<svg role="presentation" width="100%" height="100%" viewBox="0 0 58 60" fill="none" xmlns="http://www.w3.org/2000/svg">
<rect x="0.487966" y="0.817495" width="57.0241" height="57.8789" fill="#181818"></rect>
<g clip-path="url(#clip0_1762_56051)">
<path d="M38.9206 23.7513C38.9206 23.7513 35.5936 34.4027 35.3218 35.2823C34.484 28.6067 33.6383 21.9322 32.7847 15.2588C27.1154 15.2588 24.0842 19.3776 22.4823 23.7251L18.097 35.3085C18.0714 34.4777 17.4815 23.8508 17.4815 23.8508C17.1328 18.5242 12.3526 15.2815 8.48535 15.2815L13.1681 44.253C19.1074 44.2268 22.3096 40.1324 23.9868 35.7849C23.9868 35.7849 27.56 26.364 27.707 25.9364C27.7326 26.3378 30.2715 44.2512 30.2715 44.2512C36.2347 44.2512 39.4386 40.4081 41.162 36.2125L49.517 15.2832C43.6273 15.2832 40.5226 19.3776 38.9206 23.7495V23.7513Z" fill="#fdd33c"></path>
</g>
<rect x="0.487966" y="0.817495" width="57.0241" height="57.8789" stroke="#fdd33c" stroke-width="0.975932"></rect>
<defs>
<clipPath id="clip0_1762_56051">
<rect width="41.0317" height="41.8865" fill="white" transform="translate(8.48438 8.81366)"></rect>
</clipPath>
</defs>
</svg>