<svg xmlns="http://www.w3.org/2000/svg" width="140" height="36" fill="none"><g clip-path="url(#a)"><path fill="#4C4B49" d="M133.155 17.958c-.029.05-.068.098-.088.147-.41 1.038-.664 2.115-.957 3.182-.176.637-.362 1.283-.537 1.92-.137.498-.254.998-.391 1.487a189.195 189.195 0 0 1-1.143 4.073c-.205.696-.479 1.371-.684 2.066-.224.754-.449 1.724-.644 2.497-.01.03-.03.04-.059.04-.059-.01-.166-.01-.283-.01-.215.01-.43.01-.645.01-1.172-.03-2.129.019-3.243.009h-.391c-.302-.02-.273.02-.312-.117-.127-.373-.303-.97-.401-1.352a588.543 588.543 0 0 1-1.006-4.014c-.303-1.214-.586-2.428-.889-3.642-.381-1.538-.771-3.065-1.162-4.602-.156-.637-.322-1.273-.479-1.91a2.525 2.525 0 0 0-.136-.381c-.059-.03-.088-.05-.118.098-.019.538-.058 1.116-.087 1.654-.01.275-.04.539-.059.813 0 .059-.01.118-.02.176-.039.99-.068 1.978-.127 2.967-.097 1.86-.214 3.73-.312 5.59-.078 1.4-.137 2.8-.205 4.201-.01.117-.02.323-.039.47-.01.059-.069.049-.352.059-.195.01-.381.01-.576 0-.665-.03-1.387 0-2.052-.02-.771-.01-1.543-.01-2.315 0h-.351c0-.45.088-.803.137-1.214.127-1.283.293-2.565.41-3.848.097-1.038.166-2.075.254-3.104.078-.91.166-1.83.244-2.741.098-1.067.186-2.134.264-3.192.078-1.038.146-2.076.215-3.104.019-.284 0-.568.019-.842.039-.43.088-.861.137-1.292.01-.069.029-.137.029-.206.078-1.047.156-2.095.235-3.133.019-.284.029-.313.312-.313.948-.01 1.895 0 2.843-.01 1.24-.01 2.481-.04 3.711-.059.157 0 .323-.01.479-.01.225.01.274.06.322.275.44 1.782.86 3.564 1.329 5.346.498 1.909 1.035 3.808 1.543 5.718.195.724.362 1.449.547 2.173.01.059.02.118.049.176.049.108.176.118.244.02.049-.078.069-.166.098-.255.664-2.398 1.328-4.797 2.002-7.196.205-.724.479-1.43.694-2.164.371-1.273.664-2.506 1.025-3.78.079-.264.088-.352.157-.361.195-.01.664 0 .849.01.743.019 1.544-.01 2.296.01 1.143.029 2.295.048 3.438.068.215 0 .381.039.586.039.235 0 .323-.01.342.215.078.93.156 1.87.225 2.8.098 1.293.185 2.595.283 3.897.039.539.078 1.087.127 1.626.108 1.038.244 2.085.352 3.123.058.529.088 1.067.127 1.596.127 1.89.078 3.789.273 5.679.127 1.204.186 2.408.283 3.622 0 .05.04.392.049.441 0 0-.019.02-.302.02h-5.236c-.068 0-.098-.53-.107-.637a230.91 230.91 0 0 0-.167-2.624c-.009-.137-.029-.284-.039-.42-.058-1.538-.097-3.085-.166-4.622-.058-1.263-.156-2.517-.234-3.77a8.661 8.661 0 0 1-.02-.509l-.088-2.448c-.009-.137-.039-.264-.058-.401.01 0-.02-.01-.049-.01ZM89.173 33.39c-.625.01-1.29 0-1.875 0-.674.01-1.31-.009-1.983 0-.606.01-1.24-.019-1.836-.009-.264.01-.323.01-.323-.078-.01-1.714 0-3.643-.01-5.356 0-.47.02-.95.02-1.42 0-.685-.02-1.37-.03-2.056 0-.049-.029-.098-.038-.157h-6.115c-.02.079-.049.147-.049.226-.039.509-.078 1.028-.107 1.537-.03.607-.05 1.204-.059 1.811-.01.901 0 1.792-.02 2.693-.01.646-.01 1.282-.029 1.919-.01.235.01.607.02.842-.02.039-.069.03-.293.039-.147.01-.303 0-.45 0-.957-.01-1.846.01-2.803 0-.791-.01-1.436.01-2.237 0-.049 0-.342.01-.4-.01.029-.509.058-1.008.078-1.508.068-1.175.166-2.35.195-3.534.04-1.89.059-3.77.049-5.66-.01-1.595-.068-3.181-.098-4.777-.02-1.254-.058-2.507.01-3.75.059-1.126.03-2.262.049-3.388 0-.059.03-.215.03-.274.019-.206.068-.186.282-.186 1.065-.01 2.13-.03 3.204-.03h1.993c.342 0 .352.01.332.363-.02.362-.039.724-.039 1.086.01 2.125.03 4.26.049 6.384 0 .333.02.666.03 1.018.546.05 1.064 0 1.582 0 .517 0 1.045-.02 1.572-.029.528-.01 1.045-.01 1.573-.01h1.592c.01-.117.02-.225.02-.333.029-1.272.078-2.535.097-3.808.01-.666 0-1.332-.01-1.998 0-.744-.01-1.488-.01-2.242 0-.245.02-.274.284-.274 1.055-.03 2.11-.049 3.174-.059.723-.01 1.446.01 2.179.02.078 0 .156.01.254.02.01.078.029.146.029.205 0 1.978-.01 3.956-.01 5.933 0 .862 0 1.714-.01 2.576-.01 2.026-.039 4.053-.02 6.08.01 1.077-.019 1.977.04 3.054.02.431.059 1.185.059 1.616-.01.891.068 1.625.049 2.516-.02.304.019.686.01 1.009ZM52.859 33.39c-.137 0-.264-.01-.352-.01-1.934 0-3.868.01-5.802.01-.069 0-.361.02-.508.02-.049 0-.088-.03-.108-.078-.078-.206-.234-.627-.292-.764-.255-.607-.499-1.214-.753-1.811a217.283 217.283 0 0 0-1.523-3.456c-.313-.696-.655-1.39-.977-2.086-.05-.098-.078-.215-.215-.215h-1.416c-.079 1.43.107 2.81.048 4.2-.058 1.38.069 2.8.01 4.21h-1.094c-1.582-.01-3.038.01-4.62 0h-.303c0-.842 0-2.046.01-2.898.01-.832.03-1.655-.02-2.487a38.366 38.366 0 0 1 0-3.515c.059-1.449.02-2.898 0-4.347-.01-1.136-.039-2.281 0-3.417.05-1.43.01-2.869-.01-4.298-.01-.598-.029-1.126-.048-1.724 0-.098.01-.244.01-.342 0-.167.058-.226.205-.216 1.162 0 2.266.05 3.37.079.664.01 1.357-.03 2.022-.03.664 0 2.774.01 3.33.01.85 0 1.69.078 2.53.118.655.029 1.26.303 1.846.607a8.58 8.58 0 0 1 1.446.989c.45.371.85.93 1.104 1.468.117.245.273.47.39.715.098.206.176.43.254.646.079.215.157.44.245.656.185.47.263.97.342 1.469.068.47.078.94.029 1.42-.04.45-.049.91-.235 1.331-.156.353-.283.715-.449 1.057-.107.235-.244.46-.38.686-.43.705-1.075 1.194-1.73 1.664-.303.216-.664.343-.996.5-.088.039-.176.088-.283.137.02.078.029.147.048.215.303.862.723 1.655 1.212 2.428.215.343.361.715.537 1.087.244.51.459 1.028.723 1.527a293.411 293.411 0 0 0 2.06 3.868c.108.157.225.352.343.578ZM40.776 18.255c0 .754 0 1.517.01 2.271 0 .314-.079.47.234.5.537.049 1.182.01 1.758.01.42 0 .85 0 1.26-.128.528-.157 1.016-.392 1.348-.862.313-.45.498-.94.586-1.478.078-.47-.02-.93-.097-1.38-.05-.294-.118-.608-.254-.862-.42-.783-1.046-1.332-1.944-1.498a8.961 8.961 0 0 0-2.56-.108c-.302.03-.312.05-.312.353-.01.9-.03 3.025-.03 3.182ZM13.316 21.308c.361.206.674.401.996.587.547.323 1.006.745 1.417 1.214.166.196.312.421.478.627.293.362.39.803.557 1.224.342.91.283 1.84.156 2.77-.117.902-.43 1.734-.899 2.517-.664 1.097-1.592 1.88-2.735 2.438-1.025.5-2.11.695-3.242.695-1.905-.01-3.81 0-5.715 0-.888 0-1.768-.01-2.656-.01-.323 0-.645.02-.967.03h-.45a.193.193 0 0 1-.176-.118c-.039-.107-.039-.215-.039-.333-.01-.45-.01-.91-.01-1.36V26.32c0-1.234-.01-2.458-.01-3.691V12.095c0-.45-.009-.911-.019-1.361-.01-.294 0-.333.303-.353.195-.01.518-.03.723-.03 2.08 0 4.151 0 6.232-.019.644-.01 1.29-.03 1.934 0 .87.05 1.729.137 2.559.382.684.206 1.367.49 1.924.93 1.27 1.009 2.14 2.291 2.364 3.946.098.724.117 1.449-.049 2.164-.312 1.302-1.016 2.33-2.1 3.113a5.918 5.918 0 0 1-.576.44Zm-7.512 7.98c.215.02.4.058.586.049.782-.02 1.563-.04 2.345-.079.79-.039 1.357-.46 1.729-1.145a3.609 3.609 0 0 0 .42-2.066c-.088-.94-.938-2.36-2.374-2.575-.713-.108-1.426-.069-2.14-.02-.175.01-.35.069-.546.118.01 1.9-.069 3.789-.02 5.718Zm.108-14.628c-.02.068-.03.098-.03.137.01 1.684-.117 3.358.02 5.042.02.186.04.216.244.216.342 0 .684-.01 1.026-.03.41-.03.83-.039 1.23-.107 1.808-.333 2.716-2.223 2.1-3.77-.341-.852-.937-1.43-1.894-1.527-.4-.04-.801-.05-1.202-.05-.4 0-.82.03-1.23.05-.098.02-.186.029-.264.039ZM25.642 28.651h.84c1.7-.02 3.4.078 5.099.059.166 0 .342.01.508.02.195.01.264-.02.254.048.01.157.02.529.02.686-.02 1.214-.04 2.29-.07 3.505 0 .049 0 .098-.009.147-.03.215-.097.274-.312.284h-.938c-2.735-.01-5.48-.02-8.215-.02-.908 0-1.817.03-2.715.01-.508-.01-.508.03-.508-.5 0-1.233.029-2.457.02-3.69-.01-1.567-.05-3.124-.05-4.69.01-2.987.04-5.973.059-8.96 0-.89-.02-1.772-.049-2.663-.03-.695.098-1.625.059-2.32 0-.186.078-.303.654-.264.498-.01.733-.02 1.192-.02 1.455 0 2.92-.01 4.376-.03.684-.01 1.367-.058 2.051-.068.4-.01.801.03 1.202.05.078 0 .156.009.244.009.86.01 1.71.01 2.569.02.361 0 .4.048.4.391.01 1.293.03 2.585.05 3.868 0 .323-.05.401-.372.41-1.065.03-2.13.08-3.204.08-.996 0-1.993-.06-2.989-.08-.107 0-.215.01-.361.02v4.073c.01.323.029.343.341.343.665.01 1.329-.02 1.993.02 1.153.058 2.315.078 3.468.078.058 0 .117.01.215.03.127 1.468-.078 2.937-.01 4.435-1.973.049-3.898.107-5.86.088-.01.117-.03.225-.03.333 0 1.243 0 2.477.01 3.72.039.186.058.372.068.578ZM53.666 10.274c.79-.02 1.66-.039 2.402-.058.82-.02 1.651-.03 2.481-.03.489 0 .987.04 1.475.05.645.009 1.29-.02 1.934-.01 1.25.01 2.491.039 3.742.058.693.01 1.386 0 2.08 0 .078 0 .166 0 .244.01.196.02.244.02.244.108 0 .293 0 .783-.01 1.077-.01.763-.01 1.537-.019 2.3 0 .324-.02.647-.03.97-.009.264-.048.333-.312.323-.615 0-1.23-.03-1.836-.04-.684-.009-1.368-.009-2.051-.019-.03 0-.059.02-.127.04-.02.205-.04.42-.05.636-.077 2.203-.038 4.396-.009 6.599.02 1.165-.02 2.34-.01 3.505.01 1.028.05 2.056.05 3.084 0 1.126-.02 2.262-.03 3.388 0 .303 0 .773-.01 1.077 0 .108.01.088-.244.098-1.377.01-2.53-.03-3.907-.03-.41 0-.948.01-1.534.01-.059 0-.107 0-.195-.01V32.09c0-.695-.01-1.39 0-2.086.01-.695.03-1.39.03-2.085 0-1.4-.03-2.8-.03-4.21 0-1.244.039-2.477.039-3.72.01-1.607 0-3.212 0-4.808 0-.04-.01-.079-.03-.157-.107-.01-.205-.03-.312-.03h-2.803c-.274 0-.547.02-.811.02-.225.01-.264-.03-.264-.254-.02-1.165-.078-2.39-.088-3.564-.01-.314-.049-.578-.01-.92ZM7.779 3.175c0 .01.01.02.02.02.556.01 1.084.01 1.611.02.068 0 .361-.01.469-.01.01 0 .02.01.02.02 0 .028 0 .087.01.234-.02.401-.03.989-.05 1.292-.01.098-.039.079-.322.069-.557-.01-1.104-.01-1.66-.01h-.108v1.293c0 .01.01.02.02.02.107.009.205.019.302.019.489 0 .987 0 1.475.01.284 0 .303-.01.303.088 0 .342-.01 1.116-.03 1.459-.009.088-.009.078-.243.078H6.06c-.05 0-.235-.01-.284-.01-.107 0-.146-.04-.146-.117v-.696c-.01-1.478-.02-2.937-.02-4.405 0-.686.03-1.567.03-2.262 0-.01.01-.02.02-.02h.185c.85-.01 1.7-.039 2.55-.039.38 0 .751.02 1.132.03.108 0 .254-.01.371 0 .01 0 .02.01.02.019.01.069 0 .147 0 .196 0 .372.01 1.038 0 1.41 0 .039-.117.01-.361.02-.606.01-1.114-.02-1.72.019-.02 0-.039.02-.039.039-.01.372-.039.764-.02 1.214ZM15.358 2.128c-.146-.098-.205-.167-.322-.255-.342-.254-.82-.382-1.153-.235-.224.078-.4.323-.44.578-.048.274.089.48.304.607.224.137.459.245.703.323.41.127.8.284 1.123.558.47.392.791.862.782 1.518-.02 1.302-.733 2.183-2.071 2.506-1.133.274-2.14-.02-3.038-.724-.195-.147-.195-.177-.049-.392.196-.294.508-.754.723-1.038.107-.147.127-.068.352.137.39.372.86.5 1.377.411.332-.058.586-.313.625-.558.088-.519-.293-.626-.723-.832a5.52 5.52 0 0 0-.703-.274c-.44-.147-.664-.323-1.006-.617-.46-.392-.616-1.008-.547-1.576.127-.999.957-1.841 1.836-2.105.117-.04.293-.069.43-.098a2.736 2.736 0 0 1 1.65.156c.186.079.382.147.567.226.108.039.205.098.293.166.176.118.205.157.166.206-.205.333-.576.861-.781 1.194-.01.03-.04.05-.098.118ZM.07 4.066C.07 3.106.052 2.06.052 1.1c0-.216.02-.803.02-1.019C.07.032.09.032.422.023c.47-.01 1.016.029 1.495.02.234 0 .273.009.273.009-.01.382-.02.999-.029 1.38-.02 1.371 0 2.918.01 4.289 0 .274-.049.215.166.215.44 0 1.055.01 1.494.01.206 0 .215-.02.215.03 0 .352.03 1.125.01 1.478 0 .117.04.108-.107.108H2.044c-.479 0-.967-.01-1.446-.01H.354c-.244-.02-.303.02-.303-.04 0-.264 0-.802.01-1.067 0-.812 0-2.379.01-2.379Z"/><path stroke="#4C4B49" stroke-linecap="round" stroke-width="2.988" d="M102.675 34c12.001-3.118 14.87-20.666 1.444-21.735-4.06-.323-14.13 7.18-12.542 13.807 1.534 10.066 18.1 10.636 20.482-4.899 1.624-3.474-1.913-10.582-10.647-10.154-12.18 0-14.798 14.34-6.948 19.24"/></g><defs><clipPath id="a"><path fill="#fff" d="M0 0h139.621v36H0z"/></clipPath></defs></svg>