<svg width="36" height="36" fill="none" xmlns="http://www.w3.org/2000/svg"><path d="M18.353 19.173a3.608 3.608 0 0 0-2.828-.597c-1.357.29-2.054 1.447-2.948 2.356-.895.91-2.162 1.51-3.404 1.782a7.532 7.532 0 0 1-2.173.12 7.068 7.068 0 0 0 2.322 2.817c3.176 2.29 7.595 1.596 9.856-1.56a3.528 3.528 0 0 0-.825-4.918Zm11.16-9.663a1.394 1.394 0 0 0-1.954-.201l-8.474 6.881c.35.164.69.355 1.002.582a6.458 6.458 0 0 1 2.058 2.524l7.311-7.962a1.394 1.394 0 0 0 .055-1.822l.002-.002Z" fill="#181818"/><path stroke="#181818" d="M.5.5h35v35H.5z"/></svg>