<svg width="82" height="81" viewBox="0 0 82 81" fill="none" xmlns="http://www.w3.org/2000/svg">
<g clip-path="url(#clip0_1749_43585)">
<path fill-rule="evenodd" clip-rule="evenodd" d="M45.624 4.33646L43.6606 4.07466L43.7915 2.50391L49.8127 3.42018L49.5509 4.99094L47.7184 4.72915L46.8021 10.4886L44.7078 10.2268L45.624 4.33646ZM36.0686 7.87066L34.1052 8.13245C34.367 9.70321 35.6759 10.4886 37.5085 10.2268C39.341 9.965 40.3882 8.65604 40.2573 7.34707C40.1264 5.77632 39.0792 5.38363 37.1158 5.38363C36.1995 5.38363 35.9377 5.12183 35.9377 4.72915C35.9377 4.33646 36.1995 4.07466 36.7231 4.07466C36.854 4.07466 36.9849 4.07466 37.1158 4.07466C37.2467 4.07466 37.3776 4.07466 37.3776 4.20556C37.5085 4.20556 37.5085 4.33646 37.6394 4.46735C37.6394 4.59825 37.7703 4.72915 37.7703 4.86004L39.7337 4.59825C39.4719 3.02749 38.2938 2.37301 36.5922 2.6348C34.8905 2.7657 33.8434 3.81287 33.9743 5.25273C34.1052 6.69259 34.8905 7.34707 36.9849 7.34707C37.9012 7.34707 38.2938 7.47797 38.2938 8.00156C38.2938 8.26335 38.0321 8.65604 37.3776 8.65604C36.4613 8.78693 36.1995 8.39425 36.0686 7.87066ZM23.2408 6.2999L25.9896 5.25273C27.8221 4.46735 29.1311 4.86004 29.6547 6.2999C29.7856 6.69259 29.9165 7.08528 29.7856 7.60887C29.7856 8.00156 29.5238 8.39425 29.1311 8.65604L32.0108 10.8813L29.9165 11.6667L27.4294 9.70321L26.9059 9.965L28.0839 12.5829L26.1205 13.3683L23.2408 6.2999ZM27.1676 8.39425C27.8221 8.13245 28.0839 7.73976 27.8221 7.08528C27.5603 6.5617 27.1676 6.4308 26.5132 6.69259L25.8587 6.95439L26.5132 8.78693L27.1676 8.39425ZM18.6594 9.04873L16.8268 10.3577L21.2773 16.5098L23.1099 15.2009L18.6594 9.04873ZM9.75842 17.0334L13.1617 13.3683L14.3398 14.5464L12.3763 16.6407L13.5544 17.6879L15.1252 15.9862L16.3032 17.0334L14.7325 18.7351L16.6959 20.5676L15.2561 22.1384L9.75842 17.0334ZM9.75842 22.7929L8.18766 25.5417L9.49662 26.3271L11.1983 23.5782L9.75842 22.7929ZM3.86808 31.8247L3.2136 33.6573L1.64284 33.1337L3.60628 27.3742L5.17704 27.8978L4.52256 29.7304L10.0202 31.5629L9.49662 33.6573L3.86808 31.8247ZM0.726562 42.4273V44.9144L8.18766 45.0452V43.2127L3.47539 43.0818L8.18766 40.4639V38.3695L0.726562 38.1077V40.0712L4.91525 40.2021L0.726562 42.4273ZM2.69001 55.1243L1.38104 50.1502L2.9518 49.7575L3.73718 52.6372L5.04615 52.3755L4.39166 50.0193L5.96242 49.6266L6.6169 51.9828L7.92587 51.5901L7.14049 48.4486L8.71125 48.0559L10.0202 53.2917L2.69001 55.1243ZM4.65346 59.9674L5.70063 61.9309L12.3763 58.5276L11.3292 56.5641L4.65346 59.9674ZM11.3292 69.9156L10.0202 68.2139L14.4707 64.5488L12.6381 62.3236L13.9471 61.2764L17.0886 65.0724L11.3292 69.9156ZM23.1099 74.6278C22.8481 75.0205 22.4554 75.4132 22.0627 75.675C21.67 75.9368 21.1464 76.1986 20.6228 76.1986C20.0992 76.3295 19.5757 76.3295 19.0521 76.1986C18.5285 76.0677 18.1358 75.8059 17.7431 75.5441C17.3504 75.4132 17.0886 75.0205 16.6959 74.7587C16.4341 74.3661 16.1723 74.1043 16.1723 73.5807C16.1723 73.0571 16.0414 72.7953 16.0414 72.2717C16.0414 71.879 16.3032 71.4863 16.4341 71.0936L18.2667 72.4026C18.1358 72.5335 18.1358 72.6644 18.0049 72.7953C18.0049 72.9262 18.0049 73.0571 18.0049 73.3189C18.0049 73.4498 18.1358 73.5807 18.1358 73.7116C18.2667 73.8425 18.3976 73.9734 18.5285 74.1043C19.3139 74.6278 20.2301 74.3661 21.0155 73.3189C21.8009 72.2717 21.8009 71.2245 20.8846 70.701C20.7537 70.5701 20.6228 70.5701 20.4919 70.4392C20.361 70.4392 20.0992 70.4392 19.9683 70.4392C19.8374 70.4392 19.5757 70.5701 19.4448 70.5701C19.3139 70.701 19.183 70.8318 19.0521 70.9627L17.3504 69.7847C17.6122 69.392 17.874 69.1302 18.2667 68.9993C18.6594 68.7375 19.0521 68.6066 19.4448 68.6066C19.8374 68.6066 20.361 68.6066 20.7537 68.7375C21.1464 68.8684 21.5391 69.1302 21.9318 69.392C22.4554 69.6538 22.8481 70.0465 23.1099 70.4392C23.3716 70.8318 23.6334 71.3554 23.7643 71.879C23.8952 72.4026 23.8952 72.9262 23.7643 73.4498C23.6334 73.7116 23.3716 74.2352 23.1099 74.6278ZM57.2738 9.83411C57.012 10.3577 56.7502 10.7504 56.6193 11.274C56.4884 11.7976 56.4884 12.3211 56.6193 12.8447C56.7502 13.3683 57.012 13.761 57.2738 14.2846C57.6665 14.6773 58.0592 15.07 58.4519 15.2009C58.8446 15.4627 59.1064 15.7244 59.63 15.7244C60.0227 15.8553 60.4153 15.8553 60.9389 15.8553C61.3316 15.8553 61.7243 15.5935 62.117 15.4627C62.5097 15.2009 62.7715 14.9391 63.0333 14.5464L61.2007 13.3683C61.0698 13.4992 60.9389 13.6301 60.808 13.761C60.808 13.8919 60.6771 13.8919 60.4153 13.8919C60.2845 13.8919 60.0227 13.8919 59.8918 13.8919C59.7609 13.8919 59.63 13.761 59.3682 13.6301C58.4519 13.1065 58.4519 12.1902 59.1064 11.0122C59.7609 9.83411 60.6771 9.57231 61.5934 10.0959C61.7243 10.2268 61.8552 10.2268 61.9861 10.3577C62.117 10.4886 62.117 10.6195 62.2479 10.7504C62.2479 10.8813 62.2479 11.0122 62.2479 11.274C62.2479 11.4049 62.117 11.5358 62.117 11.6667L63.9495 12.8447C64.8658 11.1431 64.2113 9.57231 62.5097 8.52514C62.117 8.26335 61.5934 8.00156 61.0698 8.00156C60.5462 7.87066 60.0227 7.87066 59.63 8.00156C59.1064 8.13245 58.7137 8.26335 58.321 8.65604C57.9283 8.91783 57.5356 9.31052 57.2738 9.83411ZM69.3163 14.0228L72.7196 17.9497L71.4106 18.9969L69.4472 16.7716L68.5309 17.6879L70.1017 19.3895L69.0545 20.4367L67.4837 18.6042L66.4366 19.5204L68.5309 21.8766L67.222 23.0546L63.6878 18.9969L69.3163 14.0228ZM77.0392 24.8872L75.7302 22.2693L69.0545 25.6726L69.9708 27.636L72.3269 26.458L72.5887 26.9815L70.8871 29.4686L71.9342 31.432L73.8977 28.4214C74.1595 28.6832 74.5522 28.945 75.0757 28.945C75.4684 28.945 75.992 28.945 76.2538 28.6832C77.6937 28.0287 77.9555 26.7197 77.0392 24.8872ZM75.2066 26.9815C74.6831 27.2433 74.1595 27.1124 73.8977 26.458L73.6359 25.6726L75.2066 24.8872L75.4684 25.5417C75.8611 26.1962 75.7302 26.5889 75.2066 26.9815ZM78.6099 34.3117L78.2173 32.3483L79.788 32.0865L80.9661 37.9768L79.3953 38.2386L79.0026 36.4061L73.2432 37.4533L72.8505 35.3589L78.6099 34.3117ZM81.097 44.9144V42.6891L73.6359 42.5582V44.6526L81.097 44.9144ZM80.4425 50.1502L79.2644 54.9934L77.6937 54.6007L78.3482 51.8519L76.7774 51.4592L76.2538 53.6844L74.6831 53.2917L75.2066 51.0665L72.5887 50.412L73.1123 48.3177L80.4425 50.1502ZM76.5156 61.4073L77.4319 59.4439L70.7562 56.0406L69.8399 58.004L76.5156 61.4073ZM73.7668 65.8578L70.4944 69.9156L69.1854 68.8684L71.1488 66.5123L70.1017 65.7269L68.6618 67.5594L67.4837 66.6432L69.0545 64.8106L68.0073 64.0252L66.0439 66.5123L64.7349 65.4651L68.1382 61.2764L73.7668 65.8578ZM64.4731 75.1514L66.6984 73.5807L62.3788 67.5594L60.1536 69.1302C58.0592 70.5701 57.7974 72.5335 59.1064 74.4969C60.4153 76.4604 62.3788 76.7222 64.4731 75.1514ZM60.9389 73.0571C60.1535 71.879 60.1536 71.0936 61.2007 70.3083L61.5934 70.0465L63.9495 73.4498L63.5569 73.7116C62.5097 74.3661 61.7243 74.2352 60.9389 73.0571ZM30.8327 77.9003C30.9636 77.3767 31.4872 77.1149 32.0108 77.2458C34.8905 78.0312 37.9012 78.4238 40.9118 78.4238C43.9224 78.4238 46.933 78.0312 49.8127 77.2458C50.3363 77.1149 50.8599 77.3767 50.9908 77.9003C51.1217 78.4238 50.8599 78.9474 50.3363 79.0783C47.3257 79.8637 44.1842 80.2564 40.9118 80.2564C37.6394 80.2564 34.4978 79.8637 31.4872 79.0783C30.9636 78.9474 30.7018 78.4238 30.8327 77.9003Z" fill="black"/>
<path d="M52.0378 31.1738H42.7441V34.4462H52.0378V31.1738Z" fill="#2D40EA"/>
<path d="M42.7441 37.7192H52.0378V40.3372H46.1474V44.2641H50.7288V46.882H46.1474V53.2959H42.7441V37.7192Z" fill="#000111"/>
<path d="M39.6033 50.0225H30.0479V53.2949H39.6033V50.0225Z" fill="#8600A1"/>
<path d="M33.4512 34.4462V43.4781H39.6033V46.7505H30.0479V31.1738H39.6033V34.4462H33.4512Z" fill="#000111"/>
<path d="M58.1904 25.1504H23.8955V59.4453H58.1904V25.1504Z" stroke="#000111" stroke-width="1.30896" stroke-miterlimit="10"/>
</g>
<defs>
<clipPath id="clip0_1749_43585">
<rect width="81.1558" height="78.5379" fill="white" transform="translate(0.333984 2.11133)"/>
</clipPath>
</defs>
</svg>
