<svg width="36" height="35" viewBox="0 0 36 35" fill="none" xmlns="http://www.w3.org/2000/svg">
<g clip-path="url(#clip0_1465_54592)">
<path fill-rule="evenodd" clip-rule="evenodd" d="M19.8659 1.46898L19.0127 1.35522L19.0696 0.672638L21.6861 1.07081L21.5723 1.75339L20.776 1.63963L20.3778 4.14242L19.4677 4.02866L19.8659 1.46898ZM15.7135 3.00479L14.8603 3.11855C14.9741 3.80113 15.5429 4.14242 16.3392 4.02866C17.1356 3.9149 17.5906 3.34608 17.5337 2.77726C17.4769 2.09468 17.0218 1.92404 16.1686 1.92404C15.7704 1.92404 15.6566 1.81027 15.6566 1.63963C15.6566 1.46898 15.7704 1.35522 15.9979 1.35522C16.0548 1.35522 16.1117 1.35522 16.1686 1.35522C16.2255 1.35522 16.2823 1.35522 16.2823 1.4121C16.3392 1.4121 16.3392 1.46898 16.3961 1.52586C16.3961 1.58275 16.453 1.63963 16.453 1.69651L17.3062 1.58275C17.1925 0.900165 16.6805 0.615756 15.9411 0.72952C15.2016 0.786401 14.7465 1.24146 14.8034 1.86715C14.8603 2.49285 15.2016 2.77726 16.1117 2.77726C16.5099 2.77726 16.6805 2.83414 16.6805 3.06167C16.6805 3.17543 16.5668 3.34608 16.2823 3.34608C15.8842 3.40296 15.7704 3.23232 15.7135 3.00479ZM10.1391 2.32221L11.3336 1.86715C12.13 1.52586 12.6988 1.69651 12.9263 2.32221C12.9832 2.49285 13.0401 2.6635 12.9832 2.89102C12.9832 3.06167 12.8694 3.23232 12.6988 3.34608L13.9502 4.31307L13.0401 4.65436L11.9593 3.80113L11.7318 3.9149L12.2437 5.05253L11.3905 5.39382L10.1391 2.32221ZM11.8456 3.23232C12.13 3.11855 12.2437 2.94791 12.13 2.6635C12.0162 2.43597 11.8456 2.37909 11.5612 2.49285L11.2768 2.60662L11.5612 3.40296L11.8456 3.23232ZM8.14826 3.51672L7.35192 4.08554L9.2859 6.75898L10.0822 6.19016L8.14826 3.51672ZM4.28031 6.98651L5.75923 5.39382L6.27117 5.90576L5.41794 6.81586L5.92988 7.27092L6.61246 6.53145L7.12439 6.98651L6.44181 7.72597L7.29504 8.52231L6.66934 9.2049L4.28031 6.98651ZM4.28031 9.4893L3.59773 10.6838L4.16654 11.0251L4.90601 9.83059L4.28031 9.4893ZM1.72063 13.4141L1.43622 14.2105L0.753641 13.983L1.60687 11.4802L2.28945 11.7077L2.00504 12.504L4.39407 13.3004L4.16654 14.2105L1.72063 13.4141ZM0.355469 18.0216V19.1023L3.59773 19.1592V18.3629L1.54998 18.306L3.59773 17.1683V16.2582L0.355469 16.1445V16.9977L2.17568 17.0546L0.355469 18.0216ZM1.20869 23.5391L0.639877 21.3776L1.32246 21.2069L1.66375 22.4583L2.23257 22.3446L1.94816 21.3207L2.63074 21.1501L2.91515 22.1739L3.48396 22.0033L3.14267 20.6381L3.82525 20.4675L4.39407 22.7427L1.20869 23.5391ZM2.06192 25.6437L2.51697 26.4969L5.41794 25.018L4.96289 24.1648L2.06192 25.6437ZM4.96289 29.9667L4.39407 29.2273L6.32805 27.6346L5.5317 26.6676L6.10052 26.2125L7.46568 27.8621L4.96289 29.9667ZM10.0822 32.0145C9.96848 32.1851 9.79783 32.3558 9.62719 32.4695C9.45654 32.5833 9.22902 32.697 9.00149 32.697C8.77396 32.7539 8.54643 32.7539 8.31891 32.697C8.09138 32.6402 7.92074 32.5264 7.75009 32.4126C7.57945 32.3558 7.46568 32.1851 7.29504 32.0713C7.18127 31.9007 7.06751 31.7869 7.06751 31.5594C7.06751 31.3319 7.01063 31.2181 7.01063 30.9906C7.01063 30.8199 7.12439 30.6493 7.18127 30.4787L7.97762 31.0475C7.92074 31.1044 7.92074 31.1612 7.86385 31.2181C7.86385 31.275 7.86385 31.3319 7.86385 31.4456C7.86385 31.5025 7.92074 31.5594 7.92074 31.6163C7.97762 31.6732 8.0345 31.7301 8.09138 31.7869C8.43267 32.0145 8.83084 31.9007 9.17213 31.4456C9.51342 30.9906 9.51342 30.5355 9.11525 30.308C9.05837 30.2511 9.00149 30.2511 8.94461 30.1942C8.88772 30.1942 8.77396 30.1942 8.71708 30.1942C8.6602 30.1942 8.54643 30.2511 8.48955 30.2511C8.43267 30.308 8.37579 30.3649 8.31891 30.4218L7.57945 29.9098C7.69321 29.7392 7.80697 29.6254 7.97762 29.5685C8.14826 29.4548 8.31891 29.3979 8.48955 29.3979C8.6602 29.3979 8.88772 29.3979 9.05837 29.4548C9.22902 29.5117 9.39966 29.6254 9.57031 29.7392C9.79783 29.853 9.96848 30.0236 10.0822 30.1942C10.196 30.3649 10.3098 30.5924 10.3666 30.8199C10.4235 31.0475 10.4235 31.275 10.3666 31.5025C10.3098 31.6163 10.196 31.8438 10.0822 32.0145ZM24.9284 3.85801C24.8146 4.08554 24.7008 4.25619 24.644 4.48371C24.5871 4.71124 24.5871 4.93877 24.644 5.16629C24.7008 5.39382 24.8146 5.56447 24.9284 5.79199C25.099 5.96264 25.2697 6.13328 25.4403 6.19016C25.6109 6.30393 25.7247 6.41769 25.9522 6.41769C26.1229 6.47457 26.2935 6.47457 26.5211 6.47457C26.6917 6.47457 26.8623 6.36081 27.033 6.30393C27.2036 6.19016 27.3174 6.0764 27.4312 5.90576L26.6348 5.39382C26.5779 5.4507 26.5211 5.50758 26.4642 5.56447C26.4642 5.62135 26.4073 5.62135 26.2935 5.62135C26.2366 5.62135 26.1229 5.62135 26.066 5.62135C26.0091 5.62135 25.9522 5.56447 25.8385 5.50758C25.4403 5.28006 25.4403 4.88188 25.7247 4.36995C26.0091 3.85801 26.4073 3.74425 26.8055 3.97178C26.8623 4.02866 26.9192 4.02866 26.9761 4.08554C27.033 4.14242 27.033 4.1993 27.0899 4.25619C27.0899 4.31307 27.0899 4.36995 27.0899 4.48371C27.0899 4.54059 27.033 4.59748 27.033 4.65436L27.8293 5.16629C28.2275 4.42683 27.9431 3.74425 27.2036 3.2892C27.033 3.17543 26.8055 3.06167 26.5779 3.06167C26.3504 3.00479 26.1229 3.00479 25.9522 3.06167C25.7247 3.11855 25.5541 3.17543 25.3834 3.34608C25.2128 3.45984 25.0421 3.63049 24.9284 3.85801ZM30.1615 5.67823L31.6404 7.38468L31.0716 7.83973L30.2184 6.87274L29.8202 7.27092L30.5028 8.01038L30.0477 8.46543L29.3651 7.66909L28.9101 8.06726L29.8202 9.09113L29.2514 9.60307L27.7156 7.83973L30.1615 5.67823ZM33.5175 10.3994L32.9487 9.26178L30.0477 10.7407L30.4459 11.5939L31.4698 11.082L31.5835 11.3095L30.8441 12.3903L31.2991 13.2435L32.1523 11.9352C32.2661 12.049 32.4368 12.1627 32.6643 12.1627C32.8349 12.1627 33.0625 12.1627 33.1762 12.049C33.8019 11.7646 33.9157 11.1958 33.5175 10.3994ZM32.7212 11.3095C32.4936 11.4233 32.2661 11.3664 32.1523 11.082L32.0386 10.7407L32.7212 10.3994L32.8349 10.6838C33.0056 10.9682 32.9487 11.1389 32.7212 11.3095ZM34.2001 14.4949L34.0294 13.6417L34.712 13.5279L35.224 16.0876L34.5414 16.2013L34.3707 15.405L31.8679 15.8601L31.6973 14.9499L34.2001 14.4949ZM35.2808 19.1023V18.1353L32.0386 18.0784V18.9886L35.2808 19.1023ZM34.9964 21.3776L34.4845 23.4822L33.8019 23.3116L34.0863 22.117L33.4037 21.9464L33.1762 22.9134L32.4936 22.7427L32.7212 21.7758L31.5835 21.4913L31.8111 20.5812L34.9964 21.3776ZM33.29 26.2694L33.6882 25.4162L30.7872 23.9373L30.389 24.7905L33.29 26.2694ZM32.0955 28.2034L30.6734 29.9667L30.1046 29.5117L30.9578 28.4878L30.5028 28.1465L29.8771 28.9429L29.3651 28.5447L30.0477 27.7483L29.5927 27.407L28.7394 28.4878L28.1706 28.0327L29.6495 26.2125L32.0955 28.2034ZM28.0569 32.242L29.0238 31.5594L27.1468 28.9429L26.1798 29.6254C25.2697 30.2511 25.1559 31.1044 25.7247 31.9576C26.2935 32.8108 27.1468 32.9246 28.0569 32.242ZM26.5211 31.3319C26.1798 30.8199 26.1798 30.4787 26.6348 30.1374L26.8055 30.0236L27.8293 31.5025L27.6587 31.6163C27.2036 31.9007 26.8623 31.8438 26.5211 31.3319ZM13.4383 33.4365C13.4951 33.209 13.7227 33.0952 13.9502 33.1521C15.2016 33.4934 16.5099 33.664 17.8182 33.664C19.1264 33.664 20.4347 33.4934 21.6861 33.1521C21.9136 33.0952 22.1412 33.209 22.198 33.4365C22.2549 33.664 22.1412 33.8916 21.9136 33.9484C20.6054 34.2897 19.2402 34.4604 17.8182 34.4604C16.3961 34.4604 15.0309 34.2897 13.7227 33.9484C13.4951 33.8916 13.3814 33.664 13.4383 33.4365Z" fill="white"/>
<path d="M22.6441 13.1317H18.6055V14.5538H22.6441V13.1317Z" fill="#2D40EA"/>
<path d="M18.6055 15.976H22.6441V17.1136H20.0844V18.8201H22.0753V19.9577H20.0844V22.7449H18.6055V15.976Z" fill="white"/>
<path d="M17.2461 21.3226H13.0938V22.7447H17.2461V21.3226Z" fill="#8600A1"/>
<path d="M14.5727 14.5538V18.4786H17.2461V19.9007H13.0938V13.1317H17.2461V14.5538H14.5727Z" fill="white"/>
<path d="M25.3327 10.5141H10.4297V25.4171H25.3327V10.5141Z" stroke="white" stroke-width="0.568817" stroke-miterlimit="10"/>
</g>
<defs>
<clipPath id="clip0_1465_54592">
<rect width="35.2667" height="34.129" fill="white" transform="translate(0.179688 0.502167)"/>
</clipPath>
</defs>
</svg>
