<svg width="104" height="36" fill="none" xmlns="http://www.w3.org/2000/svg"><g clip-path="url(#a)" fill="#4C4B49"><path d="M18.766 28.543a.03.03 0 0 0 .002.012.03.03 0 0 0 .007.009c.054.054.33.065.521.065.765 0 1.878-.358 2.614-.66 2.593-1.063 4.865-3.114 6.016-5.686.068-.158.078-.26.14-.316.112-.113.283 0 .802-.12a3.837 3.837 0 0 0 1.89-1.107c.28-.289.528-.607.738-.95.978-1.583 1.365-3.741 1.365-5.555 0-3.009-1.055-5.944-2.81-8.391-.274-.381-.56-.75-.86-1.109-.093-.115-.295-.46-.464-.475-.103 0-.112.317-.112.494v.12c-.026.438-.035.88-.035 1.32 0 .726.028 1.453.077 2.175.159 2.356.567 4.686 1.425 6.915.132.344.304.548.379.548.023 0 .038-.02.038-.062a.334.334 0 0 0-.01-.07c-.022-.102-.093-.28-.144-.427-.204-.594-.37-1.2-.494-1.816a26.36 26.36 0 0 1-.598-5.475c0-.49.015-.978.047-1.464 1.463 2.031 2.68 4.542 2.68 7.098 0 1.705-.546 3.817-1.782 5.053-.395.4-.874.707-1.403.898.175-.865.261-1.745.258-2.627.01-1.99-.422-3.956-1.266-5.758a26.69 26.69 0 0 0-1.357-2.375.158.158 0 0 0-.103-.053.119.119 0 0 0-.08.038c-.167.158-1 3.038-1 6.3a15.04 15.04 0 0 0 .437 3.775c.17.709.456 1.384.847 2 .1.147.185.194.185.288 0 .21-.84 1.356-1.048 1.62-2.454 3.121-6.706 5.564-6.888 5.745a.033.033 0 0 0-.01.01.033.033 0 0 0-.004.013Zm7.515-9.592c-.309-.488-.369-1.29-.369-2.014-.02-1.928.244-3.848.784-5.7.866 1.571 1.357 3.137 1.357 4.918a10.741 10.741 0 0 1-.634 3.603 1.966 1.966 0 0 1-1.138-.807Zm-14.277 2.793c0-1.571-.293-1.92-.293-2.879 0-.399.217-1.887.499-2.169a.149.149 0 0 1 .098-.05.085.085 0 0 1 .063.028c.288.288.328 2.77.328 3.306 0 .745-.119 1.583-.119 2.387a5.44 5.44 0 0 0 .106 1.135c.265 1.235 1.425 1.86 2.587 1.86.322 0 .642-.047.95-.142 1.051-.326 1.982-.98 2.777-1.774.388-.391.746-.81 1.072-1.254.08-.119.17-.232.266-.338a.458.458 0 0 1 .342-.158c.228 0 .813.263 1.347.263a1.28 1.28 0 0 0 .95-.402.72.72 0 0 0 .17-.236c.24-.442.793-1.651.793-1.79v-.013c.01.004.019.01.026.019.06.094.085.206.072.316a6.718 6.718 0 0 1-.159 1.094c-.083.428-.188.85-.316 1.267-.258.837-.659 1.797-1.523 2.166-.18.075-.372.114-.567.112-.877 0-1.137-.572-1.466-.572a.124.124 0 0 0-.092.035s-.693.882-.877 1.096c-.975 1.14-2.297 2.555-3.865 2.76a3.531 3.531 0 0 1-.427.028c-.67 0-1.79-.242-2.362-1.195-.447-.741-.455-2.146-.455-2.483.01-.84.075-1.61.075-2.418Zm11.951-4.025c.168.158.301.317.301.382a.846.846 0 0 1-.221.278c-.284.282-.746.665-.841.665a1.532 1.532 0 0 1-.421-.345c-.266-.268-.556-.602-.556-.67a.823.823 0 0 1 .212-.264c.28-.279.747-.67.846-.67a.017.017 0 0 1 .012 0c.065.067.409.363.668.624Zm12.094-4.63c0 3.691-1.62 7.458-3.9 10.434a24.308 24.308 0 0 1-2.095 2.375c-3.873 3.866-8.812 6.62-10.8 8.616a7.44 7.44 0 0 0-.762.88 3.72 3.72 0 0 1-.345.557.158.158 0 0 1-.102.057.133.133 0 0 1-.082-.05c-.168-.167-.44-.708-.576-.901-.364-.505-.77-.978-1.213-1.414-1.452-1.452-3.325-2.784-4.87-3.889-1.488-1.07-3.23-2.11-4.525-3.407-.809-.809-1.515-2.086-1.515-3.308 0-.917.425-1.668 1.063-2.306.291-.287.609-.546.95-.774a.644.644 0 0 0 .1-.079.18.18 0 0 0 .063-.131 2.376 2.376 0 0 0-.105-.34 4.688 4.688 0 0 1-.176-1.212c0-1.132.513-2.091 1.324-2.902 1.217-1.217 3.017-2.025 4.274-2.647 0-.674-.06-1.453-.54-1.933a1.304 1.304 0 0 0-.158-.142 15.01 15.01 0 0 1-.464.441c-1.463 1.335-3.232 2.443-5.197 2.443-1.072 0-2.153-.348-2.899-1.092a3.692 3.692 0 0 1-1.03-2.312.363.363 0 0 1 .064-.247.057.057 0 0 1 .04-.015c.041.007.079.029.106.061.11.113.245.35.397.504.71.709 1.716.99 2.723.99 2.226 0 4.193-1.34 5.744-2.936a20.039 20.039 0 0 0 4.264-6.604c.283-.721.351-1.097.427-1.171a.042.042 0 0 1 .03-.014.065.065 0 0 1 .044.025c.028.03.053.063.075.098.752 1.172.963 2.804.963 4.208 0 .197 0 .838-.099.933a.028.028 0 0 1-.024.011.049.049 0 0 1-.034-.018.456.456 0 0 1-.081-.148c-.275-.687-.42-1.444-.586-2.163a21.74 21.74 0 0 1-1.657 3.356 19.638 19.638 0 0 1-1.674 2.4c-.142.176-.232.236-.232.331a.475.475 0 0 0 .1.231c.397.61.465 1.368.465 2.089v.394c0 .204-.016.44-.016.685 0 .586.063 1.218.432 1.542.244.216.554.34.879.352.136.002.27-.03.39-.095.222-.122.357-.583.476-.583.049 0 .095.084.144.317.183.93 1.035 1.088 1.903 1.088h.142c2.041-.038 4.237-.91 5.58-2.48a12.58 12.58 0 0 1-4.383.838h-.427c-.792 0-1.802-.073-2.115-.855a1.615 1.615 0 0 1-.116-.614c0-.72.407-1.47.771-2.03A7.758 7.758 0 0 1 19.989 8c.475-.261 1.54-.819 2.36-.819.414 0 .766.143.95.539.079.188.117.392.112.597a4.45 4.45 0 0 1-.205 1.182c-.022.073-.273 1.043-.474 1.043h-.016c-.062-.015-.081-.082-.081-.175 0-.146.046-.356.046-.542a.372.372 0 0 0-.159-.365 1.561 1.561 0 0 0-.715-.159c-.39.014-.776.097-1.138.244a8.075 8.075 0 0 0-3.293 2.318c.335.285 1.166.351 1.885.351.27 0 .526-.01.732-.02.963-.061 1.918-.22 2.85-.475.365-.097 1.161-.402 1.283-.439h.02c.074 0 .096.138.096.317a5.71 5.71 0 0 1-.05.6 5.408 5.408 0 0 1-.739 2.182c-.86 1.424-2.314 2.41-3.877 2.936a7.876 7.876 0 0 1-2.359.447c-.897 0-1.71-.279-1.957-1.186a1.038 1.038 0 0 1-.791.3c-.375 0-.74-.12-1.043-.34-.505-.399-.658-1.117-.703-1.727-1.074.537-2.155 1.108-3.07 1.886-.784.673-1.713 1.727-1.713 2.827v.057c.791-.443 2.007-1.002 2.299-1.961.023-.081.052-.113.082-.113.08 0 .158.236.204.338.134.36.215.737.24 1.12v.238c0 1.013-.443 1.822-1.28 2.435-.92.673-2.093 1.042-2.873 1.9-.159.158-.297.285-.297.42a.317.317 0 0 0 .132.224c.269.24.548.464.834.68.52.398 1.056.77 1.583 1.152 1.109.791 2.217 1.597 3.308 2.422 2.002 1.517 4.06 3.166 5.427 5.308.875-1.488 2.47-2.548 3.833-3.547 2.546-1.864 5.463-3.811 8.042-6.39a22.575 22.575 0 0 0 3.073-3.759c1.742-2.691 2.758-5.802 2.758-8.927 0-2.266-1.059-4.311-2.636-5.894a10.503 10.503 0 0 0-2.104-1.633 9.765 9.765 0 0 0-4.887-1.375 7.6 7.6 0 0 0-5.46 2.216 7.03 7.03 0 0 0-1.166 1.534 4.456 4.456 0 0 1-.279.518.068.068 0 0 1-.045.024.065.065 0 0 1-.045-.024c-.106-.106-.266-.546-.266-1.066 0-1.024.512-2.354 1.444-3.288C21.261.73 23.221.117 25.173.117c2.743 0 5.272 1.184 7.14 3.05a10.976 10.976 0 0 1 2.402 3.61c.83 2.037 1.334 4.157 1.334 6.311ZM25.284 6.265l.033.037c.226.185.514.279.806.263.142-.001.285-.013.425-.035.159-.022.274-.087.352-.087.025 0 .032 0 .054.019a.18.18 0 0 1 .03.122.958.958 0 0 1 0 .104c-.062.557-.439.69-.703.95-.158.158-.777.866-.902.99 0 0-.03.018-.021.018a.352.352 0 0 1-.046-.03.168.168 0 0 1-.043-.128c0-.33.463-.962.543-1.06a.96.96 0 0 1-.633-.256.934.934 0 0 1-.255-.677c0-.357.138-.7.387-.955.244-.231.568-.36.905-.36a.344.344 0 0 1 .27.086.278.278 0 0 1 .072.206.993.993 0 0 1-.174.521.293.293 0 0 1-.227.07H26a1.244 1.244 0 0 0-.722.202h.007ZM20.412 20.99c-.098 0-.571-.396-.848-.674-.037-.037-.21-.208-.21-.26 0-.052.295-.407.561-.673.052-.052.342-.342.416-.342.1 0 .573.397.852.676.043.043.21.209.21.268 0 .058-.13.213-.299.381-.26.26-.604.557-.668.62a.019.019 0 0 1-.02.006l.006-.002Zm-5.335-1.2c-.098 0-.572-.396-.849-.673-.036-.036-.207-.209-.207-.26 0-.118.85-1.016.975-1.016.1 0 .575.397.852.676.043.043.21.21.21.268 0 .057-.131.213-.299.381-.26.26-.605.559-.668.62a.017.017 0 0 1-.007.003.02.02 0 0 1-.007 0Zm7.6-13.327c-.142 0-1.058-.819-1.058-.934 0-.116.851-1.017.976-1.017s1.063.819 1.063.95c0 .158-.863.9-.97 1a.017.017 0 0 1-.017.002l.005-.001ZM4.49 22.287l-.158-.213.158.211a.898.898 0 0 1 .116.5c0 .402-.14.792-.214.792a.25.25 0 0 1-.136-.089 7.613 7.613 0 0 1-.69-.977 22.762 22.762 0 0 1-1.81-3.354C.722 16.769.063 14.15.063 11.597.063 8.233 1.29 5.429 3.3 3.42A11.486 11.486 0 0 1 11.28.098a9.58 9.58 0 0 1 2.583.342c.209.059.726.138.927.339a.282.282 0 0 1 .092.22c0 .288-.256.701-.38.902-.076.135-.166.261-.27.376a.552.552 0 0 1-.42.174c-.066 0-.132-.008-.196-.02a9.43 9.43 0 0 0-1.767-.159 11.462 11.462 0 0 0-7.696 3.089 11.016 11.016 0 0 0-3.374 7.9c0 3.483 1.742 6.31 3.711 9.024M40.797 29.346c-.838 0-1.376-.442-1.376-1.175a1.966 1.966 0 0 1 .013-.279l.076-.05c.278.142.587.212.899.202 1.1 0 1.487-.758 1.487-2.085V21.6h-2.317v-1.39h4.354v5.522c0 2.217-1.35 3.615-3.136 3.615ZM45.657 23.938l-.186-1.38a7.738 7.738 0 0 1 2.048-.289c1.65 0 2.975.581 2.975 2.533v2.807c0 .378.112.62.437.62.101.003.2-.024.287-.077l.063.05c-.063.57-.5 1.036-1.267 1.036-.85 0-1.249-.555-1.312-1.035h-.036c-.613.655-1.2 1.137-2.013 1.137-1.108 0-1.763-.886-1.763-1.984 0-1.314.95-2.087 2.762-2.087.326.002.652.024.975.065v-.57c0-.82-.538-1.137-1.35-1.137-.557-.007-1.11.1-1.624.317m2.974 2.425a3.99 3.99 0 0 0-.815-.088c-.825 0-1.162.33-1.162.809a.686.686 0 0 0 .725.733c.512 0 .887-.353 1.267-.72l-.015-.734ZM61.141 29.232c-.863 0-1.325-.568-1.325-1.504v-3.146c0-.494-.276-.72-.6-.72-.6 0-1.137.657-1.5 1.06v4.209h-1.849v-4.549c0-.494-.273-.72-.6-.72-.6 0-1.136.657-1.499 1.06v4.209h-1.85v-6.748h1.812v1.289h.038c.725-.822 1.474-1.492 2.5-1.492.355-.001.698.13.961.368.317.29.439.695.475 1.124h.013c.725-.822 1.474-1.492 2.5-1.492.355-.002.698.13.962.368.437.39.486.985.486 1.553v3.526c0 .329.102.593.413.593a.486.486 0 0 0 .276-.074l.062.049c-.062.57-.512 1.037-1.275 1.037ZM68.476 25.351l-4.222.596c.149 1.25.986 2.11 2.398 2.11.5 0 1.1-.089 1.512-.418l.087.063c.01.076.015.152.013.228 0 1.163-1.108 1.403-2.023 1.403-2.15 0-3.762-1.425-3.762-3.665 0-2.047 1.267-3.483 3.3-3.483 1.611 0 2.735 1.024 2.735 2.654 0 .173-.013.346-.038.517m-2.86-2.096c-.989 0-1.313.733-1.388 1.642l2.524-.391c0-.67-.362-1.251-1.137-1.251ZM74.856 25.351l-4.224.596c.15 1.25.988 2.11 2.399 2.11.5 0 1.1-.089 1.513-.418l.087.063c.01.076.015.152.013.228 0 1.163-1.108 1.403-2.025 1.403-2.15 0-3.762-1.425-3.762-3.665 0-2.047 1.267-3.483 3.3-3.483 1.612 0 2.737 1.024 2.737 2.654 0 .173-.013.346-.038.517m-2.862-2.096c-.987 0-1.311.733-1.387 1.642l2.525-.391c0-.67-.363-1.251-1.138-1.251ZM76.962 29.333c-.862 0-1.337-.57-1.337-1.504v-8.175h1.85v8.074c0 .327.1.593.411.593a.476.476 0 0 0 .276-.076l.061.051c-.049.569-.498 1.037-1.266 1.037M44.495 16.484c-2.875 0-5.074-1.82-5.074-4.853 0-3.033 2.188-4.385 4.962-4.385.723-.004 1.446.049 2.161.158l-.212 1.492a5.638 5.638 0 0 0-1.775-.266c-1.949 0-3.062.986-3.062 2.957 0 2.047 1.376 3.551 3.5 3.551.55 0 1.163-.101 1.638-.418l.074.064c.01.08.015.16.013.24 0 1.227-1.275 1.466-2.224 1.466"/><path d="M49.619 16.522c-2.149 0-3.249-1.643-3.249-3.69 0-2.149 1.35-3.513 3.463-3.513 2.023 0 3.198 1.266 3.198 3.324 0 2.138-1.213 3.88-3.412 3.88m.063-5.977c-1.137 0-1.376 1.201-1.376 2.097 0 .896.189 2.655 1.438 2.655 1.108 0 1.363-1.478 1.363-2.427 0-.923-.226-2.325-1.425-2.325ZM63.077 16.383c-.861 0-1.323-.568-1.323-1.504v-3.146c0-.494-.276-.72-.6-.72-.6 0-1.137.657-1.5 1.06v4.209h-1.85v-4.549c0-.494-.275-.72-.599-.72-.6 0-1.137.657-1.5 1.06v4.209h-1.85V9.534h1.813v1.289h.038C56.429 10 57.18 9.33 58.204 9.33c.355-.002.699.13.963.368.316.29.436.695.474 1.124h.013c.725-.822 1.474-1.492 2.5-1.492.355-.001.698.13.961.368.439.39.488.984.488 1.553v3.525c0 .33.1.596.411.596a.474.474 0 0 0 .276-.076l.061.05c-.061.569-.51 1.036-1.274 1.036ZM74.313 16.383c-.863 0-1.325-.568-1.325-1.504v-3.146c0-.494-.276-.72-.6-.72-.6 0-1.137.657-1.5 1.06v4.209H69.04v-4.549c0-.494-.275-.72-.6-.72-.6 0-1.136.657-1.499 1.06v4.209h-1.85V9.534h1.812v1.289h.038c.724-.822 1.474-1.492 2.498-1.492.356-.002.7.13.963.368.325.29.437.695.475 1.124h.013c.725-.822 1.474-1.492 2.5-1.492.355-.002.698.13.962.368.437.39.486.984.486 1.553v3.525c0 .33.101.596.413.596a.475.475 0 0 0 .276-.076l.061.05c-.061.569-.513 1.036-1.274 1.036ZM81.51 16.383c-.96 0-1.31-.683-1.31-1.175v-.228h-.039c-.712.822-1.46 1.504-2.487 1.504a1.425 1.425 0 0 1-.962-.367c-.437-.391-.5-.985-.5-1.553v-5.03h1.863v4.556c0 .494.275.722.6.722.587 0 1.136-.658 1.486-1.062V9.534h1.862v5.243c0 .33.1.596.413.596a.494.494 0 0 0 .274-.076l.062.05c-.062.569-.499 1.036-1.267 1.036M89.11 16.383c-.863 0-1.338-.568-1.338-1.504v-3.146c0-.494-.3-.72-.662-.72-.663 0-1.25.657-1.637 1.06v4.209h-1.862V9.534h1.824v1.289h.038c.749-.822 1.55-1.492 2.624-1.492.374-.002.737.128 1.025.368.463.39.512.984.512 1.553v3.525c0 .33.1.596.4.596a.466.466 0 0 0 .274-.076l.063.05c-.05.569-.5 1.036-1.266 1.036M92.12 8.636c-.623 0-1.037-.378-1.037-.935 0-.518.363-.95 1.038-.95.633 0 1.013.39 1.013.95 0 .559-.4.935-1.013.935Zm.401 7.747c-.876 0-1.338-.568-1.338-1.504V9.534h1.85v5.243c0 .33.1.596.413.596a.494.494 0 0 0 .273-.076l.064.05c-.064.569-.5 1.036-1.267 1.036M103.988 9.534v5.8c0 2.086-1.499 3.577-3.537 3.577-.973 0-1.611-.475-1.611-1.289a1.38 1.38 0 0 1 .012-.227l.087-.064c.276.24.75.342 1.201.342 1.312 0 2.037-.619 2.037-1.984v-.91h-.038c-.633.733-1.387 1.504-2.411 1.504a1.335 1.335 0 0 1-.925-.367c-.425-.4-.487-.998-.487-1.555v-3.575h-1.742v3.993c0 .328.1.594.4.594a.475.475 0 0 0 .275-.076l.061.05c-.049.569-.498 1.037-1.266 1.037-.861 0-1.336-.57-1.336-1.504v-4.094h-.938l-.05-.09c.063-.556.426-.822.9-1.162l1.796-1.327h.136v1.327h3.608v4.347c0 .354.158.72.575.72.537 0 1.049-.669 1.399-1.062V9.534h1.854ZM1.371 2.42h-.3V.68c.144-.021.289-.032.435-.033.457 0 .71.203.71.57a.53.53 0 0 1-.35.524l.526.688h-.36l-.465-.627h-.196v.619Zm0-.865h.146c.239 0 .39-.103.39-.33 0-.2-.137-.316-.401-.316H1.37v.646Z"/><path d="M1.57 3.141A1.57 1.57 0 1 1 1.57 0a1.57 1.57 0 0 1 0 3.141Zm0-2.88a1.31 1.31 0 1 0 0 2.619 1.31 1.31 0 0 0 0-2.619Z"/></g><defs><clipPath id="a"><path fill="#fff" d="M0 0h103.988v36H0z"/></clipPath></defs></svg>