<svg width="71" height="74" viewBox="0 0 71 74" fill="none" xmlns="http://www.w3.org/2000/svg">
<g clip-path="url(#clip0_1749_44275)">
<path d="M4.42569 3.35998L45.1287 0.353964C50.1284 -0.0750735 51.413 0.214252 54.5566 2.49943L67.5495 11.6528C69.6928 13.2268 70.4062 13.6561 70.4062 15.37V65.5694C70.4062 68.7154 69.2635 70.5762 65.2644 70.8608L17.9976 73.7222C14.9962 73.8644 13.5669 73.4353 11.9952 71.4321L2.42736 58.9908C0.711213 56.7007 0 54.9864 0 52.9832V8.36212C0 5.79009 1.14273 3.64463 4.42569 3.35998Z" fill="white"/>
<path d="M45.1287 0.353964L4.42569 3.35998C1.14273 3.64463 0 5.79009 0 8.36212V52.9834C0 54.9867 0.710938 56.7007 2.42736 58.9908L11.9952 71.4321C13.5669 73.4353 14.9962 73.8644 17.9976 73.7222L65.2644 70.8608C69.261 70.5762 70.4062 68.7154 70.4062 65.5694V15.37C70.4062 13.7443 69.7638 13.276 67.8732 11.8882L67.5473 11.6528L54.5566 2.49943C51.413 0.214252 50.1287 -0.0750735 45.1287 0.353964ZM19.0666 14.5485C15.2072 14.8084 14.3318 14.8673 12.1398 13.0846L6.56648 8.65145C5.99993 8.07775 6.2843 7.36158 7.71141 7.2194L46.8402 4.36052C50.1259 4.07367 51.8374 5.21859 53.1223 6.21913L59.8332 11.0816C60.12 11.2259 60.8337 12.0818 59.9754 12.0818L19.5669 14.5141L19.0666 14.5485ZM14.5672 65.1403V22.5248C14.5672 20.6637 15.1384 19.8056 16.8499 19.6609L63.2611 16.944C64.8353 16.8018 65.5465 17.8021 65.5465 19.6609V61.9919C65.5465 63.8529 65.2594 65.4269 62.6899 65.5694L18.277 68.1439C15.7075 68.2861 14.5672 67.4305 14.5672 65.1403ZM58.4088 24.8097C58.6932 26.0971 58.4088 27.3844 57.1214 27.5316L54.9809 27.9557V59.4196C53.1223 60.4198 51.4108 60.9913 49.981 60.9913C47.6961 60.9913 47.1246 60.2752 45.4131 58.1322L31.4149 36.1085V57.4163L35.8428 58.419C35.8428 58.419 35.8428 60.9938 32.2705 60.9938L22.4208 61.565C22.134 60.9913 22.4208 59.5617 23.4191 59.2774L25.9909 58.5637V30.3907L22.4211 30.1014C22.134 28.8143 22.8474 26.9554 24.8484 26.8107L35.4165 26.0998L49.9813 48.4079V28.6721L46.269 28.2453C45.9821 26.6686 47.1246 25.5236 48.5517 25.3839L58.4086 24.8099L58.4088 24.8097Z" fill="black"/>
</g>
<defs>
<clipPath id="clip0_1749_44275">
<rect width="70.4062" height="73.7065" fill="white" transform="translate(0 0.186523)"/>
</clipPath>
</defs>
</svg>
