<svg width="144" height="36" fill="none" xmlns="http://www.w3.org/2000/svg"><path d="M6.172 28.846c-.326 0-.646-.158-.838-.45A7.948 7.948 0 0 1 4.01 24c0-3.02 1.223-4.988 2.7-7.068.321-.45.947-.557 1.398-.238.452.32.56.944.24 1.394-1.322 1.86-2.333 3.477-2.333 5.912 0 1.175.343 2.314.992 3.296a.998.998 0 0 1-.836 1.55Z" fill="#4C4B49"/><path d="M12.031 4.693c1.764 3.34 3.627 5.925 5.206 8.115 2.799 3.884 4.82 6.69 4.82 11.192 0 5.514-4.497 10-10.026 10-5.528 0-10.026-4.486-10.026-10 0-4.503 2.022-7.308 4.821-11.192 1.58-2.19 3.442-4.775 5.205-8.115Zm0-4.693C7.018 12 0 15 0 24c0 6.627 5.386 12 12.031 12 6.645 0 12.032-5.373 12.032-12 0-9-7.018-12-12.032-24ZM51.493 2.12v23.132h-2.761V23.17h-.062c-.531.775-1.252 1.377-2.162 1.805a6.724 6.724 0 0 1-2.9.643c-2.188-.02-3.962-.745-5.322-2.173-1.36-1.428-2.05-3.243-2.07-5.446 0-2.223.68-4.039 2.04-5.446 1.36-1.408 3.144-2.132 5.353-2.173 1.002 0 1.963.214 2.883.643.92.428 1.647 1.03 2.178 1.805h.062V2.12h2.76ZM39.16 18c0 1.49.44 2.698 1.32 3.626.879.928 2.034 1.402 3.466 1.423 1.452 0 2.613-.465 3.482-1.393.87-.928 1.304-2.146 1.304-3.656 0-1.489-.43-2.698-1.289-3.626-.859-.928-2.035-1.402-3.528-1.423-1.431 0-2.582.47-3.45 1.408-.87.938-1.305 2.152-1.305 3.641Zm23.683-7.619c.511 0 .92.062 1.227.184l-.122 2.968c-.532-.143-.992-.214-1.38-.214-2.72 0-4.101 1.51-4.142 4.528v7.405h-2.761V10.749h2.76v2.233h.062c.368-.775.961-1.402 1.78-1.882a5.022 5.022 0 0 1 2.576-.719Zm11.197 0c2.148 0 3.968.74 5.461 2.219 1.493 1.479 2.25 3.279 2.27 5.4 0 2.142-.746 3.937-2.24 5.385-1.492 1.448-3.323 2.193-5.49 2.234-2.127 0-3.938-.735-5.43-2.203-1.493-1.469-2.26-3.274-2.301-5.416 0-2.101.741-3.886 2.224-5.354 1.483-1.47 3.318-2.224 5.506-2.265Zm-4.785 7.62c0 1.488.44 2.697 1.319 3.625.88.928 2.035 1.402 3.466 1.423 1.453 0 2.608-.465 3.467-1.393.859-.928 1.299-2.146 1.32-3.656 0-1.489-.43-2.698-1.29-3.626-.858-.928-2.034-1.402-3.527-1.423-1.452 0-2.608.48-3.467 1.439-.859.958-1.288 2.162-1.288 3.61Zm23.008-7.62c2.147 0 3.967.74 5.46 2.219 1.493 1.479 2.25 3.279 2.27 5.4 0 2.142-.746 3.937-2.239 5.385-1.493 1.448-3.323 2.193-5.491 2.234-2.127 0-3.937-.735-5.43-2.203-1.493-1.469-2.26-3.274-2.3-5.416 0-2.101.74-3.886 2.223-5.354 1.483-1.47 3.318-2.224 5.507-2.265Zm-4.786 7.62c0 1.488.44 2.697 1.32 3.625.879.928 2.034 1.402 3.466 1.423 1.452 0 2.607-.465 3.466-1.393.86-.928 1.299-2.146 1.32-3.656 0-1.489-.43-2.698-1.29-3.626-.858-.928-2.034-1.402-3.527-1.423-1.452 0-2.608.48-3.466 1.439-.86.958-1.289 2.162-1.289 3.61Zm23.898-7.62c2.147 0 3.901.704 5.261 2.112 1.36 1.407 2.06 3.243 2.101 5.507 0 2.264-.695 4.095-2.086 5.492-1.391 1.398-3.16 2.106-5.307 2.127a6.703 6.703 0 0 1-2.976-.673c-.92-.45-1.615-1.04-2.086-1.775h-.061V33.88h-2.761V10.748h2.761v2.081h.061a5.546 5.546 0 0 1 2.178-1.805 6.696 6.696 0 0 1 2.915-.643Zm-5.154 7.62c0 1.508.445 2.727 1.334 3.655.89.928 2.04 1.393 3.452 1.393 1.472 0 2.633-.465 3.481-1.393.849-.928 1.284-2.146 1.304-3.656 0-1.51-.434-2.723-1.304-3.641-.869-.918-2.04-1.387-3.512-1.408-1.452 0-2.608.475-3.467 1.423-.859.949-1.288 2.157-1.288 3.626Zm18.958-15.88v23.13h-2.76V2.122h2.76Zm11.044 8.26c2.229 0 3.963.699 5.2 2.096 1.237 1.397 1.866 3.32 1.887 5.768v.765h-11.658c0 1.183.476 2.177 1.427 2.983.951.806 2.111 1.219 3.482 1.24 1.513 0 2.842-.725 3.988-2.173l2.086 1.59c-1.554 1.98-3.702 2.969-6.442 2.969-2.23 0-4.024-.71-5.384-2.127-1.36-1.417-2.061-3.248-2.102-5.492 0-2.162.701-3.962 2.102-5.4 1.401-1.438 3.206-2.178 5.414-2.219Zm4.142 6.426c-.041-1.367-.43-2.412-1.166-3.136-.736-.725-1.749-1.087-3.037-1.087-.859 0-1.631.21-2.316.628a4.625 4.625 0 0 0-1.611 1.621c-.388.663-.583 1.321-.583 1.974h8.713Z" fill="#4C4B49"/></svg>