<svg width="18" height="27" viewBox="0 0 18 27" fill="none" xmlns="http://www.w3.org/2000/svg">
<g clip-path="url(#clip0_1709_70153)">
<path d="M4.45833 26.8864C6.85033 26.8864 8.79167 24.9451 8.79167 22.5531V18.2197H4.45833C2.06633 18.2197 0.125 20.1611 0.125 22.5531C0.125 24.9451 2.06633 26.8864 4.45833 26.8864Z" fill="#0ACF83"/>
<path d="M0.125 13.887C0.125 11.495 2.06633 9.55371 4.45833 9.55371H8.79167V18.2204H4.45833C2.06633 18.2204 0.125 16.279 0.125 13.887Z" fill="#A259FF"/>
<path d="M0.124023 5.22005C0.124023 2.82805 2.06536 0.886719 4.45736 0.886719H8.79069V9.55339H4.45736C2.06536 9.55339 0.124023 7.61205 0.124023 5.22005Z" fill="#F24E1E"/>
<path d="M8.79102 0.886719H13.1243C15.5163 0.886719 17.4577 2.82805 17.4577 5.22005C17.4577 7.61205 15.5163 9.55339 13.1243 9.55339H8.79102V0.886719Z" fill="#FF7262"/>
<path d="M17.4577 13.887C17.4577 16.279 15.5163 18.2204 13.1243 18.2204C10.7323 18.2204 8.79102 16.279 8.79102 13.887C8.79102 11.495 10.7323 9.55371 13.1243 9.55371C15.5163 9.55371 17.4577 11.495 17.4577 13.887Z" fill="#1ABCFE"/>
</g>
<defs>
<clipPath id="clip0_1709_70153">
<rect width="17.3333" height="26" fill="white" transform="translate(0.125 0.886719)"/>
</clipPath>
</defs>
</svg>
