<svg width="18" height="18" viewBox="0 0 18 18" fill="none" xmlns="http://www.w3.org/2000/svg">
<path d="M9 2.25H6.75C6.15326 2.25 5.58097 2.48705 5.15901 2.90901C4.73705 3.33097 4.5 3.90326 4.5 4.5C4.5 5.09674 4.73705 5.66903 5.15901 6.09099C5.58097 6.51295 6.15326 6.75 6.75 6.75H9M9 2.25V6.75M9 2.25H11.25C11.8467 2.25 12.419 2.48705 12.841 2.90901C13.2629 3.33097 13.5 3.90326 13.5 4.5C13.5 5.09674 13.2629 5.66903 12.841 6.09099C12.419 6.51295 11.8467 6.75 11.25 6.75H9" stroke="#BEBEBE" stroke-linecap="round" stroke-linejoin="round"/>
<path d="M6.75 11.25C6.15326 11.25 5.58097 11.4871 5.15901 11.909C4.73705 12.331 4.5 12.9033 4.5 13.5C4.5 14.0967 4.73705 14.669 5.15901 15.091C5.58097 15.5129 6.15326 15.75 6.75 15.75C7.34674 15.75 7.91903 15.5129 8.34099 15.091C8.76295 14.669 9 14.0967 9 13.5V11.25M6.75 11.25H9M6.75 11.25C6.15326 11.25 5.58097 11.0129 5.15901 10.591C4.73705 10.169 4.5 9.59674 4.5 9C4.5 8.40326 4.73705 7.83097 5.15901 7.40901C5.58097 6.98705 6.15326 6.75 6.75 6.75H9V11.25M9 9C9 8.40326 9.23705 7.83097 9.65901 7.40901C10.081 6.98705 10.6533 6.75 11.25 6.75C11.8467 6.75 12.419 6.98705 12.841 7.40901C13.2629 7.83097 13.5 8.40326 13.5 9C13.5 9.59674 13.2629 10.169 12.841 10.591C12.419 11.0129 11.8467 11.25 11.25 11.25C10.6533 11.25 10.081 11.0129 9.65901 10.591C9.23705 10.169 9 9.59674 9 9Z" stroke="#BEBEBE" stroke-linecap="round" stroke-linejoin="round"/>
</svg>
