<svg width="78" height="78" viewBox="0 0 78 78" fill="none" xmlns="http://www.w3.org/2000/svg">
<rect x="0.851562" y="0.0993652" width="76.5451" height="77.5924" rx="11.6329" fill="#222222"/>
<g clip-path="url(#clip0_1775_50128)">
<path d="M29.5282 67.6907C34.8266 67.6907 39.1267 63.3906 39.1267 58.0922V48.4937H29.5282C24.2298 48.4937 19.9297 52.7938 19.9297 58.0922C19.9297 63.3906 24.2298 67.6907 29.5282 67.6907Z" fill="#0ACF83"/>
<path d="M19.9297 38.8961C19.9297 33.5977 24.2298 29.2976 29.5282 29.2976H39.1267V48.4947H29.5282C24.2298 48.4947 19.9297 44.1945 19.9297 38.8961Z" fill="#A259FF"/>
<path d="M19.9297 19.6984C19.9297 14.4 24.2298 10.0999 29.5282 10.0999H39.1267V29.2969H29.5282C24.2298 29.2969 19.9297 24.9968 19.9297 19.6984Z" fill="#F24E1E"/>
<path d="M39.125 10.0999H48.7235C54.0219 10.0999 58.3221 14.4 58.3221 19.6984C58.3221 24.9968 54.0219 29.2969 48.7235 29.2969H39.125V10.0999Z" fill="#FF7262"/>
<path d="M58.3221 38.8961C58.3221 44.1945 54.0219 48.4947 48.7235 48.4947C43.4251 48.4947 39.125 44.1945 39.125 38.8961C39.125 33.5977 43.4251 29.2976 48.7235 29.2976C54.0219 29.2976 58.3221 33.5977 58.3221 38.8961Z" fill="#1ABCFE"/>
</g>
<defs>
<clipPath id="clip0_1775_50128">
<rect width="38.3941" height="57.5912" fill="white" transform="translate(19.9297 10.0999)"/>
</clipPath>
</defs>
</svg>
