<svg width="20" height="21" viewBox="0 0 20 21" fill="none" xmlns="http://www.w3.org/2000/svg">
<g clip-path="url(#clip0_1749_43629)">
<path d="M19.3551 10.4081C19.3551 9.59611 19.2893 9.0036 19.1467 8.38916H9.875V12.0539H15.3173C15.2076 12.9646 14.6151 14.3362 13.2984 15.2578L13.2799 15.3805L16.2114 17.6515L16.4145 17.6718C18.2798 15.9491 19.3551 13.4145 19.3551 10.4081Z" fill="#4285F4"/>
<path d="M9.87553 20.0661C12.5418 20.0661 14.7801 19.1883 16.4151 17.6741L13.2989 15.2601C12.465 15.8417 11.3458 16.2477 9.87553 16.2477C7.26412 16.2477 5.04771 14.525 4.25763 12.144L4.14182 12.1539L1.09357 14.5129L1.05371 14.6238C2.67761 17.8496 6.01322 20.0661 9.87553 20.0661Z" fill="#34A853"/>
<path d="M4.25724 12.1425C4.04877 11.5281 3.92812 10.8697 3.92812 10.1894C3.92812 9.50908 4.04877 8.85077 4.24627 8.23632L4.24075 8.10546L1.15431 5.7085L1.05332 5.75653C0.384037 7.09518 0 8.59842 0 10.1894C0 11.7804 0.384037 13.2836 1.05332 14.6222L4.25724 12.1425Z" fill="#FBBC05"/>
<path d="M9.87553 4.13379C11.7298 4.13379 12.9807 4.93477 13.6939 5.60413L16.4809 2.88297C14.7692 1.29198 12.5418 0.31543 9.87553 0.31543C6.01322 0.31543 2.67761 2.53183 1.05371 5.75769L4.24666 8.23748C5.04772 5.85648 7.26412 4.13379 9.87553 4.13379Z" fill="#EB4335"/>
</g>
<defs>
<clipPath id="clip0_1749_43629">
<rect width="19.3645" height="19.8184" fill="white" transform="translate(0 0.31543)"/>
</clipPath>
</defs>
</svg>
