<svg width="44" height="37" viewBox="0 0 44 37" fill="none" xmlns="http://www.w3.org/2000/svg">
<path d="M24.5039 18.6302L28.6902 23.4154L34.32 27.0126L35.2992 18.6604L34.32 10.4966L28.5824 13.6567L24.5039 18.6302Z" fill="#00832D"/>
<path d="M0.210938 26.2354V33.3526C0.210938 34.9777 1.53005 36.2972 3.15547 36.2972H10.2727L11.7465 30.9195L10.2727 26.2354L5.38978 24.7616L0.211105 26.2354H0.210938Z" fill="#0066DA"/>
<path d="M10.2727 0.963409L0.210938 11.0252L5.39011 12.4954L10.2727 11.0252L11.7197 6.40476L10.2727 0.963409Z" fill="#E94235"/>
<path d="M0.210938 26.2384H10.2726V11.0249H0.210938V26.2384Z" fill="#2684FC"/>
<path d="M40.748 5.22381L34.3203 10.4969V27.0127L40.7745 32.3063C41.7407 33.0631 43.1541 32.3734 43.1541 31.1452V6.36143C43.1541 5.11964 41.707 4.43324 40.7478 5.22397" fill="#00AC47"/>
<path d="M24.5043 18.6302V26.2353H10.2734V36.2971H31.3759C33.0014 36.2971 34.3203 34.9776 34.3203 33.3525V27.0126L24.5043 18.6302Z" fill="#00AC47"/>
<path d="M31.3759 0.963409H10.2734V11.0252H24.5043V18.6302L34.3205 10.4965V3.90811C34.3205 2.28269 33.0014 0.963577 31.3759 0.963577" fill="#FFBA00"/>
</svg>
