<svg xmlns="http://www.w3.org/2000/svg" width="36" height="36" fill="none"><path fill="#181818" fill-rule="evenodd" d="M18 16a4 4 0 1 0 0-8 4 4 0 0 0 0 8Zm9 2a3 3 0 1 0 0-6 3 3 0 0 0 0 6Zm-15-3a3 3 0 1 1-6 0 3 3 0 0 1 6 0Zm-4 5a2 2 0 0 0-2 2v2a2 2 0 0 0 2 2h2a2 2 0 0 0 2-2v-2a2 2 0 0 0-2-2H8Zm16 2a2 2 0 0 1 2-2h2a2 2 0 0 1 2 2v2a2 2 0 0 1-2 2h-2a2 2 0 0 1-2-2v-2Zm-8-4a2 2 0 0 0-2 2v6a2 2 0 0 0 2 2h4a2 2 0 0 0 2-2v-6a2 2 0 0 0-2-2h-4Z" clip-rule="evenodd"/><path stroke="#181818" d="M.5.5h35v35H.5z"/></svg>