<svg width="25" height="24" viewBox="0 0 25 24" fill="none" xmlns="http://www.w3.org/2000/svg">
<g clip-path="url(#clip0_1709_53653)">
<path d="M19.1338 0H6.38379C3.27719 0 0.758789 2.5184 0.758789 5.625V18.375C0.758789 21.4816 3.27719 24 6.38379 24H19.1338C22.2404 24 24.7588 21.4816 24.7588 18.375V5.625C24.7588 2.5184 22.2404 0 19.1338 0Z" fill="url(#paint0_radial_1709_53653)"/>
<path d="M19.1338 0H6.38379C3.27719 0 0.758789 2.5184 0.758789 5.625V18.375C0.758789 21.4816 3.27719 24 6.38379 24H19.1338C22.2404 24 24.7588 21.4816 24.7588 18.375V5.625C24.7588 2.5184 22.2404 0 19.1338 0Z" fill="url(#paint1_radial_1709_53653)"/>
<path d="M12.7596 2.625C10.2136 2.625 9.89398 2.63616 8.89404 2.68163C7.89598 2.72738 7.2147 2.88534 6.61863 3.11719C6.00195 3.35663 5.47891 3.67697 4.95785 4.19822C4.43632 4.71937 4.11598 5.24241 3.87579 5.85881C3.64329 6.45506 3.48513 7.13663 3.44023 8.13422C3.39551 9.13425 3.38379 9.45394 3.38379 12.0001C3.38379 14.5463 3.39504 14.8648 3.44041 15.8648C3.48635 16.8628 3.64432 17.5441 3.87598 18.1402C4.1156 18.7568 4.43595 19.2799 4.9572 19.8009C5.47816 20.3225 6.0012 20.6436 6.61741 20.883C7.21395 21.1148 7.89532 21.2728 8.8932 21.3186C9.89323 21.364 10.2125 21.3752 12.7585 21.3752C15.3049 21.3752 15.6234 21.364 16.6234 21.3186C17.6214 21.2728 18.3034 21.1148 18.9 20.883C19.5164 20.6436 20.0387 20.3225 20.5595 19.8009C21.0811 19.2799 21.4013 18.7568 21.6416 18.1404C21.872 17.5441 22.0303 16.8626 22.0772 15.8649C22.1221 14.865 22.1338 14.5463 22.1338 12.0001C22.1338 9.45394 22.1221 9.13444 22.0772 8.13441C22.0303 7.13634 21.872 6.45516 21.6416 5.85909C21.4013 5.24241 21.0811 4.71937 20.5595 4.19822C20.0381 3.67678 19.5166 3.35644 18.8994 3.11728C18.3018 2.88534 17.6201 2.72728 16.622 2.68163C15.622 2.63616 15.3036 2.625 12.7567 2.625H12.7596ZM11.9186 4.31447C12.1683 4.31409 12.4468 4.31447 12.7596 4.31447C15.2629 4.31447 15.5595 4.32347 16.548 4.36838C17.462 4.41019 17.9582 4.56291 18.2886 4.69125C18.7262 4.86113 19.0381 5.06428 19.366 5.3925C19.6941 5.72063 19.8972 6.03309 20.0675 6.47062C20.1959 6.80062 20.3488 7.29675 20.3904 8.21081C20.4353 9.19913 20.4451 9.49594 20.4451 11.9979C20.4451 14.4999 20.4353 14.7968 20.3904 15.7851C20.3486 16.6991 20.1959 17.1953 20.0675 17.5253C19.8977 17.9629 19.6941 18.2744 19.366 18.6023C19.0379 18.9305 18.7264 19.1335 18.2886 19.3035C17.9585 19.4324 17.462 19.5848 16.548 19.6266C15.5597 19.6715 15.2629 19.6812 12.7596 19.6812C10.2563 19.6812 9.9596 19.6715 8.97138 19.6266C8.05732 19.5844 7.5612 19.4317 7.23045 19.3033C6.79301 19.1333 6.48045 18.9303 6.15232 18.6022C5.8242 18.274 5.62113 17.9623 5.45079 17.5246C5.32245 17.1945 5.16954 16.6984 5.12791 15.7843C5.08301 14.796 5.07401 14.4992 5.07401 11.9956C5.07401 9.49209 5.08301 9.19678 5.12791 8.20847C5.16973 7.29441 5.32245 6.79828 5.45079 6.46781C5.62076 6.03028 5.8242 5.71781 6.15241 5.38969C6.48054 5.06156 6.79301 4.85841 7.23054 4.68816C7.56101 4.55925 8.05732 4.40691 8.97138 4.36491C9.83623 4.32581 10.1714 4.31409 11.9186 4.31212V4.31447ZM17.764 5.87109C17.1429 5.87109 16.639 6.37453 16.639 6.99572C16.639 7.61681 17.1429 8.12072 17.764 8.12072C18.3851 8.12072 18.889 7.61681 18.889 6.99572C18.889 6.37463 18.3851 5.87072 17.764 5.87072V5.87109ZM12.7596 7.18556C10.1009 7.18556 7.9452 9.34125 7.9452 12.0001C7.9452 14.6589 10.1009 16.8136 12.7596 16.8136C15.4185 16.8136 17.5734 14.6589 17.5734 12.0001C17.5734 9.34134 15.4183 7.18556 12.7594 7.18556H12.7596ZM12.7596 8.87503C14.4855 8.87503 15.8847 10.2741 15.8847 12.0001C15.8847 13.7259 14.4855 15.1252 12.7596 15.1252C11.0337 15.1252 9.63466 13.7259 9.63466 12.0001C9.63466 10.2741 11.0337 8.87503 12.7596 8.87503Z" fill="white"/>
</g>
<defs>
<radialGradient id="paint0_radial_1709_53653" cx="0" cy="0" r="1" gradientUnits="userSpaceOnUse" gradientTransform="translate(7.13379 25.8485) rotate(-90) scale(23.7858 22.1227)">
<stop stop-color="#FFDD55"/>
<stop offset="0.1" stop-color="#FFDD55"/>
<stop offset="0.5" stop-color="#FF543E"/>
<stop offset="1" stop-color="#C837AB"/>
</radialGradient>
<radialGradient id="paint1_radial_1709_53653" cx="0" cy="0" r="1" gradientUnits="userSpaceOnUse" gradientTransform="translate(-3.2613 1.72884) rotate(78.681) scale(10.6324 43.827)">
<stop stop-color="#3771C8"/>
<stop offset="0.128" stop-color="#3771C8"/>
<stop offset="1" stop-color="#6600FF" stop-opacity="0"/>
</radialGradient>
<clipPath id="clip0_1709_53653">
<rect width="24" height="24" fill="white" transform="translate(0.758789)"/>
</clipPath>
</defs>
</svg>
