<svg width="25" height="24" viewBox="0 0 25 24" fill="none" xmlns="http://www.w3.org/2000/svg">
<path d="M21.2079 20.4495H17.6519V14.8804C17.6519 13.5525 17.6282 11.8429 15.8024 11.8429C13.9503 11.8429 13.6669 13.2899 13.6669 14.7838V20.4491H10.1109V8.99697H13.5246V10.562H13.5724C13.9141 9.97787 14.4078 9.49732 15.0009 9.17154C15.594 8.84577 16.2644 8.68697 16.9407 8.71206C20.5449 8.71206 21.2094 11.0828 21.2094 14.167L21.2079 20.4495ZM6.09841 7.43162C4.9587 7.43181 4.0346 6.508 4.03441 5.36828C4.03423 4.22856 4.95795 3.30447 6.09766 3.30428C7.23738 3.304 8.16148 4.22781 8.16166 5.36753C8.16176 5.91484 7.94444 6.43978 7.55751 6.82687C7.17058 7.21396 6.64573 7.4315 6.09841 7.43162ZM7.87648 20.4496H4.3167V8.99697H7.87638V20.4495L7.87648 20.4496ZM22.9807 0.00174674H2.52982C1.56326 -0.00912826 0.770602 0.765153 0.758789 1.73172V22.2679C0.770227 23.235 1.56279 24.01 2.52973 23.9999H22.9807C23.9497 24.0119 24.7454 23.2368 24.7588 22.2679V1.73012C24.745 0.761684 23.9493 -0.0125033 22.9807 0.00015299" fill="#0A66C2"/>
<path d="M7.87648 20.4496H4.3167V8.99697H7.87638V20.4495L7.87648 20.4496Z" fill="white"/>
<path d="M21.2079 20.4495H17.6519V14.8804C17.6519 13.5525 17.6282 11.8429 15.8024 11.8429C13.9503 11.8429 13.6669 13.2899 13.6669 14.7838V20.4491H10.1109V8.99697H13.5246V10.562H13.5724C13.9141 9.97787 14.4078 9.49732 15.0009 9.17154C15.594 8.84577 16.2644 8.68697 16.9407 8.71206C20.5449 8.71206 21.2094 11.0828 21.2094 14.167L21.2079 20.4495Z" fill="white"/>
<path d="M6.09841 7.43162C4.9587 7.43181 4.0346 6.508 4.03441 5.36828C4.03423 4.22856 4.95795 3.30447 6.09766 3.30428C7.23738 3.304 8.16148 4.22781 8.16166 5.36753C8.16176 5.91484 7.94444 6.43978 7.55751 6.82687C7.17058 7.21396 6.64573 7.4315 6.09841 7.43162Z" fill="white"/>
</svg>
