<svg width="106" height="36" fill="none" xmlns="http://www.w3.org/2000/svg"><g clip-path="url(#a)" fill="#F8F8F8"><path fill-rule="evenodd" clip-rule="evenodd" d="M30.836 5.223A18.183 18.183 0 0 0 18.063 0 18.18 18.18 0 0 0 5.291 5.223 17.721 17.721 0 0 0 0 17.833c0 4.73 1.904 9.267 5.291 12.611a18.183 18.183 0 0 0 12.774 5.223h18.063V17.834c0-4.73-1.904-9.267-5.292-12.61Zm-.494 6.753a8.178 8.178 0 0 1 2.474 5.646v.422a14.708 14.708 0 0 1-3.825 9.68 14.763 14.763 0 0 1-12.564 4.738 14.759 14.759 0 0 1-9.287-4.738 14.7 14.7 0 0 1-3.825-9.68v-.422a8.163 8.163 0 0 1 2.474-5.646 8.206 8.206 0 0 1 5.721-2.32c1.305 0 2.555.518 3.477 1.436a4.897 4.897 0 0 1 1.441 3.47v7.493c0 1.485.59 2.908 1.64 3.955a5.589 5.589 0 0 0 1.64-3.955v-7.494c0-1.301.518-2.548 1.44-3.469a4.922 4.922 0 0 1 3.478-1.436c2.137 0 4.19.832 5.72 2.32h-.004Zm-17.197 9.129V18.65a2.457 2.457 0 0 0-2.257-2.45 2.455 2.455 0 0 0-1.715.51 2.454 2.454 0 0 0 1.51 4.394h2.462Zm12.294 0a2.453 2.453 0 0 0 2.458-2.454 2.45 2.45 0 0 0-.948-1.94 2.457 2.457 0 0 0-3.97 1.94v2.454h2.46Z"/><path d="M44.739 35.662h-3.181V16.789h3.18v8.779l7.005-8.779h3.955l-6.334 7.97 6.952 10.907h-3.824l-5.318-8.185-2.432 2.989v5.196l-.003-.004ZM57.583 18.01a2.298 2.298 0 0 1 2.323-2.31c1.298 0 2.294 1.02 2.294 2.31s-1 2.28-2.294 2.28-2.323-.994-2.323-2.28Zm.703 4.346h3.24v13.31h-3.24v-13.31ZM64.916 30.628V16.789h3.2v13.597c0 1.502.452 2.438 2.051 2.438a4.02 4.02 0 0 0 1.306-.213l.053 2.734c-.481.16-1.118.32-2.08.32-2.559 0-4.53-1.473-4.53-5.04v.003ZM72.432 18.01c0-1.29 1.005-2.31 2.277-2.31 1.272 0 2.25 1.02 2.25 2.31s-.981 2.28-2.25 2.28a2.255 2.255 0 0 1-2.277-2.28Zm.689 4.346h3.177v13.31H73.12v-13.31ZM86.038 35.934c-1.555 0-2.797-.493-3.725-1.478v1.182h-3V16.789h3.053v6.643c1-.861 2.224-1.29 3.669-1.29 1.875 0 3.413.654 4.609 1.965 1.195 1.31 1.797 2.956 1.797 4.95 0 1.992-.598 3.638-1.797 4.945-1.214 1.293-2.751 1.936-4.609 1.936l.004-.004Zm-2.786-3.87c.626.788 1.484 1.181 2.573 1.181 1.09 0 1.947-.393 2.573-1.182.626-.79.936-1.793.936-3.01 0-1.218-.313-2.222-.936-3.01-.626-.79-1.484-1.183-2.573-1.183s-1.947.393-2.573 1.182c-.626.79-.936 1.793-.936 3.01 0 1.218.313 2.222.936 3.011ZM98.477 35.93c-1.265 0-2.315-.356-3.152-1.074-.836-.736-1.255-1.71-1.255-2.932 0-1.4.497-2.482 1.497-3.253.996-.771 2.315-1.157 3.95-1.157.818 0 1.697.154 2.644.457v-.885c0-.647-.241-1.172-.72-1.571-.482-.404-1.095-.604-1.843-.604-1.369 0-2.404.636-3.095 1.91l-2.057-1.935c.479-.878 1.188-1.553 2.124-2.028a6.655 6.655 0 0 1 3.056-.714c1.727 0 3.088.428 4.085 1.289.996.86 1.496 2.089 1.496 3.685v8.524h-2.989V34.62c-.979.879-2.223 1.318-3.737 1.318l-.004-.007Zm-1.361-4.22c0 .45.174.818.521 1.103.347.286.833.432 1.454.432 1.28 0 2.304-.378 3.07-1.128V30.61c-.961-.357-1.868-.539-2.723-.539-.712 0-1.28.143-1.695.432-.418.286-.627.69-.627 1.21v-.003Z"/></g><defs><clipPath id="a"><path fill="#fff" d="M0 0h105.221v36H0z"/></clipPath></defs></svg>