<svg xmlns="http://www.w3.org/2000/svg" width="193" height="36" fill="none"><path fill="#F8F8F8" d="M14.608 18.213v-5.33c0-1.315 1.123-2.203 2.379-1.846.688.199 1.11.694 1.243 1.412.018.09-.012.23.109.253.054.012.139-.096.193-.163.797-.893 1.75-1.539 2.951-1.714 1.763-.26 3.363.067 4.588 1.485.157.181.29.386.404.592.091.169.133.18.26.024.622-.76 1.37-1.358 2.27-1.757.76-.338 1.557-.44 2.378-.428.905.012 1.774.211 2.553.694 1.075.664 1.696 1.642 1.962 2.861.127.573.175 1.147.169 1.732-.006 2.53 0 5.059-.006 7.588 0 1.098-.9 1.974-1.962 1.907-.809-.054-1.702-.766-1.696-1.956.012-2.317.006-4.635.006-6.953 0-.52-.073-1.026-.308-1.491-.453-.9-1.25-1.177-2.185-1.135-1.256.06-2.064.809-2.68 1.835-.079.133-.06.272-.06.41v7.346c0 1.045-.815 1.926-1.781 1.95-1.05.024-1.89-.839-1.89-1.95-.005-2.335 0-4.678 0-7.014 0-.64-.096-1.267-.512-1.786-.61-.76-1.45-.893-2.342-.73-1.105.199-1.805.935-2.324 1.877-.073.132-.055.271-.055.41v7.225c0 .954-.495 1.636-1.358 1.902-.827.253-1.835-.248-2.137-1.069a2.603 2.603 0 0 1-.169-.941v-5.24ZM183.161 20.658c.241-.755.465-1.43.663-2.107.496-1.66 1.033-3.301 1.588-4.943.169-.501.35-1.002.537-1.497.344-.906 1.255-1.346 2.204-1.075.832.242 1.351 1.111 1.194 2.004-.108.616-.379 1.177-.596 1.757-.4 1.05-.821 2.088-1.227 3.127-.56 1.43-1.116 2.867-1.684 4.297-.284.718-.518 1.449-.863 2.143-.362.736-.953 1.141-1.793 1.153-.869.012-1.497-.374-1.895-1.14-.416-.804-.675-1.667-1.008-2.506-.597-1.527-1.176-3.06-1.768-4.593-.133-.344-.26-.688-.393-1.038-.15.03-.156.163-.187.253a295.97 295.97 0 0 1-2.299 6.41c-.175.477-.32.972-.543 1.43-.387.786-1.008 1.196-1.896 1.184-.87-.006-1.461-.44-1.817-1.201-.482-1.014-.827-2.083-1.244-3.12-.501-1.262-.989-2.53-1.478-3.798-.399-1.038-.797-2.07-1.183-3.114-.176-.465-.429-.906-.489-1.413-.133-1.092.869-2.064 1.974-1.913.875.115 1.357.652 1.654 1.424.743 1.932 1.387 3.9 2.033 5.868.23.706.436 1.424.64 2.136.019.073.025.157.097.17.109.023.109-.091.133-.158.422-1.177.845-2.36 1.273-3.537.399-1.098.804-2.197 1.214-3.296.181-.495.368-.995.573-1.484.307-.743.869-1.13 1.678-1.135.797-.006 1.424.41 1.732 1.165.665 1.63 1.25 3.29 1.854 4.943.398 1.087.791 2.186 1.183 3.272.036.097.072.175.139.332ZM46.998 24.225v5.964c0 .38-.006.76.006 1.147.006.175-.03.253-.23.253-1.068-.006-2.13-.006-3.199 0-.175 0-.229-.06-.217-.223.012-.241 0-.483 0-.724V12.757c0-.64.224-1.16.767-1.503 1.153-.737 2.59-.06 2.764 1.291.012.097.024.2.036.338.302-.277.538-.585.821-.839.996-.899 2.155-1.316 3.495-1.273 1.612.048 3.006.603 4.183 1.714 1.521 1.437 2.228 3.23 2.336 5.294.097 1.81-.314 3.483-1.346 4.98-1.255 1.822-2.988 2.83-5.221 2.915-1.068.042-2.1-.115-3.06-.622-.338-.18-.658-.38-.918-.67-.054-.054-.115-.084-.217-.157Zm0-5.976v2.137c0 .145.024.278.109.399.73 1.062 2.251 1.92 3.663 1.6.773-.176 1.467-.478 2.029-1.045 1.4-1.406 1.647-3.79.579-5.53-1.376-2.239-4.34-2.438-6.012-.404-.254.308-.398.622-.374 1.033.03.603.006 1.207.006 1.81ZM162.004 18.214c-.018 2.094-.7 3.923-2.227 5.396-1.196 1.153-2.632 1.799-4.279 1.992-1.438.169-2.825.018-4.159-.55-1.419-.603-2.542-1.557-3.332-2.873-1.008-1.678-1.292-3.507-.954-5.414.373-2.107 1.467-3.779 3.307-4.89 1.865-1.128 3.894-1.357 6.007-.887 1.472.326 2.728 1.039 3.742 2.15a6.986 6.986 0 0 1 1.72 3.38c.115.555.187 1.122.175 1.696Zm-11.372-.206c0 1.153.223 1.962.713 2.765 1.158 1.89 3.892 2.288 5.559.809.814-.724 1.225-1.642 1.351-2.704.152-1.274-.036-2.481-.844-3.526-1.341-1.732-3.966-1.919-5.536-.398-.911.875-1.218 1.998-1.243 3.054ZM72.024 23.767c-.924.796-1.89 1.412-3.03 1.696-1.684.416-3.284.277-4.612-.972-.875-.82-1.231-1.871-1.165-3.072.097-1.684 1.069-2.717 2.523-3.393 1.413-.658 2.94-.85 4.461-1.05.537-.072 1.08-.115 1.618-.175.096-.012.223-.006.217-.151-.018-.58.09-1.17-.181-1.72-.296-.592-.821-.815-1.43-.93-1.07-.199-2.095-.036-3.11.32-.47.17-.923.386-1.442.38-.622-.012-1.19-.332-1.37-.85-.217-.622-.157-1.208.326-1.697.465-.465 1.068-.658 1.672-.85a10.973 10.973 0 0 1 4.098-.526c1.395.09 2.692.459 3.713 1.479.85.845 1.2 1.907 1.207 3.078.012 2.789.006 5.578.006 8.372 0 .827-.453 1.467-1.201 1.727-.7.241-1.455 0-1.944-.652-.211-.278-.314-.616-.356-1.014Zm.012-3.495c0-.32-.006-.64 0-.96.006-.163-.024-.235-.211-.205-.773.139-1.546.253-2.312.392-.688.127-1.37.284-2.004.616-.737.392-.99 1.267-.525 1.937.416.598 1.044.7 1.708.67 1.14-.042 2.119-.537 3.054-1.14.23-.151.32-.32.29-.592-.018-.235 0-.477 0-.718ZM131.051 12.871c.386-.338.724-.658 1.086-.941 1.092-.863 2.336-1.25 3.737-1.153 1.69.115 3.036.815 3.935 2.282.489.796.7 1.684.706 2.607a816.38 816.38 0 0 1 0 7.98c0 1.11-.923 1.98-1.974 1.883-.935-.084-1.69-.966-1.69-1.992-.006-2.306-.006-4.617 0-6.923 0-.622-.103-1.213-.488-1.727-.617-.826-1.467-1.026-2.427-.917-.477.054-.941.181-1.347.453-.501.332-.899.778-1.254 1.273-.224.308-.297.634-.291 1.008.013 2.33.013 4.654.007 6.984 0 1.038-.87 1.877-1.89 1.853-.851-.018-1.666-.778-1.733-1.63-.011-.12-.011-.241-.011-.362 0-3.56 0-7.122-.006-10.684 0-.736.284-1.297.924-1.665 1.171-.67 2.667.162 2.716 1.514v.157ZM101.612 18.177c0-1.394-.012-2.54.006-3.682.006-.283-.084-.362-.356-.344-.35.024-.706.012-1.056-.006-.477-.024-.82-.271-.972-.718-.145-.417-.036-.797.278-1.099.941-.911 1.98-1.72 2.964-2.583.326-.284.652-.562.983-.833.369-.314.797-.35 1.214-.163.428.193.567.603.585 1.044.012.332.018.664 0 .996-.012.217.073.266.278.266 1.267-.006 2.535-.006 3.803 0 .833 0 1.442.5 1.611 1.297.181.876-.507 1.787-1.4 1.8-1.316.023-2.632.017-3.948.005-.265 0-.338.067-.338.332.012 2.059 0 4.11.024 6.17.012 1.02.713 1.671 1.727 1.69.561.011 1.092-.103 1.617-.297.459-.169.924-.368 1.431-.241.622.157.972.586 1.105 1.183.126.586-.031 1.099-.519 1.473-.761.58-1.648.887-2.572 1.026-1.237.187-2.475.2-3.694-.193-1.618-.52-2.553-1.793-2.704-3.405-.145-1.315-.036-2.643-.067-3.718ZM89.734 25.656c-1.992.012-3.55-.429-4.914-1.424-1.4-1.027-2.312-2.409-2.686-4.105-.5-2.24-.217-4.364 1.087-6.296.808-1.195 1.913-2.034 3.26-2.547 1.768-.67 3.566-.724 5.377-.205.785.223 1.533.543 2.089 1.183.489.561.543 1.274.157 1.956-.302.53-.99.802-1.672.682-.38-.067-.73-.218-1.075-.38-1.563-.755-3.537-.423-4.684.838-1.038 1.141-1.25 2.505-.923 3.96.495 2.227 2.668 3.302 4.726 2.928.465-.085.87-.29 1.292-.471.465-.2.93-.338 1.46-.211.586.144.978.483 1.117 1.05.151.64-.006 1.225-.525 1.654-.688.573-1.497.917-2.36 1.147a7.579 7.579 0 0 1-1.726.241ZM7.293 18.183v5.45c0 .822-.447 1.48-1.196 1.782-.984.392-2.112-.224-2.396-1.316a2.688 2.688 0 0 1-.078-.658V12.962c0-.736.247-1.352.917-1.745.604-.356 1.225-.356 1.835-.03.616.332.918.882.918 1.576.006 1.805 0 3.61 0 5.42ZM7.54 5.954a2.04 2.04 0 0 1-2.052 2.07c-1.183.013-2.119-.91-2.113-2.076.006-1.14.924-2.028 2.095-2.034 1.17 0 2.07.887 2.07 2.04Z"/></svg>