<svg xmlns="http://www.w3.org/2000/svg" width="162" height="36" fill="none"><g fill="#F8F8F8" clip-path="url(#a)"><path d="M66.262 28.672V11.439H60.02v1.106c1.802 0 2.385.985 2.385 2.426l.02 13.698 3.837.003ZM57.502 28.671h3.05v-1.09H58.84c-3.428 0-5.475-2.123-5.475-5.681V11.439h-6.25v1.106c2.01 0 2.376 1.31 2.376 2.849v5.335c.002 5.344 2.622 7.942 8.01 7.942ZM161.508 28.672V11.439h-6.241v1.106c1.802 0 2.384.985 2.384 2.426l.02 13.698 3.837.003ZM152.749 28.671h3.048v-1.09h-1.71c-3.428 0-5.475-2.123-5.475-5.681V11.439h-6.248v1.106c2.011 0 2.377 1.31 2.377 2.849v5.335c0 5.344 2.619 7.942 8.008 7.942ZM113.763 28.672V11.439h-6.241v1.106c1.802 0 2.385.985 2.385 2.426l.02 13.698 3.836.003ZM105.004 28.671h3.049v-1.09h-1.71c-3.429 0-5.475-2.123-5.475-5.681V11.439h-6.25v1.106c2.01 0 2.376 1.31 2.376 2.849v5.335c.002 5.344 2.622 7.942 8.01 7.942ZM77.068 0h-6.243v1.11c1.802 0 2.366.983 2.366 2.425v25.092h3.875L77.068 0ZM91.59 20.01c0-4.51-3.053-9.075-8.887-9.075-1.747 0-2.876.44-3.828.927v1.552c.79-.585 1.59-.806 2.84-.806 3.527 0 6.186 3.183 6.186 7.403 0 4.32-2.659 7.578-6.185 7.578-1.07 0-2.11-.246-2.841-.664v1.41c.991.505 1.923.84 3.219.84 5.945 0 9.496-3.426 9.496-9.164ZM131.75 11.862c-.952-.487-2.081-.927-3.829-.927-5.834 0-8.886 4.566-8.886 9.076 0 5.738 3.55 9.164 9.496 9.164 1.293 0 2.228-.337 3.219-.84v-1.41c-.732.418-1.773.663-2.842.663-3.526 0-6.185-3.257-6.185-7.577 0-4.22 2.659-7.403 6.185-7.403 1.25 0 2.051.221 2.842.806v-1.552ZM133.643 3.636v24.991h3.876V.041h-6.251V1.1c.784.015 1.061.206 1.543.59.546.455.832 1.128.832 1.946ZM15.517 0c0 10.621-5.038 15.59-15.517 15.59V18h17.986V0h-2.469ZM20.455 36c0-10.622 5.039-15.59 15.518-15.59V18H17.986v18h2.47ZM28.647 16.168V7.33h-8.83v1.213c5.21 0 7.648 2.475 7.648 7.624h1.182ZM7.4 19.711v8.837h8.83v-1.213c-5.21 0-7.649-2.475-7.649-7.624H7.4Z"/></g><defs><clipPath id="a"><path fill="#fff" d="M0 0h161.508v36H0z"/></clipPath></defs></svg>