<svg width="61" height="62" viewBox="0 0 61 62" fill="none" xmlns="http://www.w3.org/2000/svg">
<path d="M30.6542 61.3048C34.6392 61.3048 38.5853 60.512 42.267 58.9716C45.9487 57.4311 49.294 55.1733 52.1119 52.3269C54.9298 49.4806 57.165 46.1015 58.6901 42.3826C60.2151 38.6637 61 34.6777 61 30.6524C61 26.6271 60.2151 22.6412 58.6901 18.9222C57.165 15.2033 54.9298 11.8242 52.1119 8.97789C49.294 6.13155 45.9487 3.87371 42.267 2.33328C38.5853 0.792853 34.6392 5.12813e-06 30.6542 5.30584e-06V61.3048Z" fill="#FDD33C"/>
<path d="M0 61.3048C3.98507 61.3048 7.93112 60.512 11.6128 58.9715C15.2946 57.4311 18.6399 55.1733 21.4577 52.3269C24.2756 49.4806 26.5109 46.1015 28.0359 42.3826C29.5609 38.6637 30.3458 34.6777 30.3458 30.6524C30.3458 26.6271 29.5609 22.6412 28.0359 18.9222C26.5109 15.2033 24.2756 11.8242 21.4577 8.97788C18.6399 6.13154 15.2946 3.8737 11.6128 2.33328C7.93112 0.792848 3.98507 -1.77712e-07 4.62088e-07 0L0 61.3048Z" fill="#FDD33C"/>
</svg>
