<svg width="160" height="40" fill="none" xmlns="http://www.w3.org/2000/svg"><path fill-rule="evenodd" clip-rule="evenodd" d="M60.051 13.333c.371 0 .67.037.897.11a.79.79 0 0 1 .484.383c.096.182.153.346.17.492.02.146.028.36.028.639V25.08c0 .28-.013.49-.036.63a1.71 1.71 0 0 1-.17.473c-.09.177-.249.301-.476.374-.227.073-.532.11-.914.11-.31 0-.568-.03-.77-.092a1.398 1.398 0 0 1-.468-.218.763.763 0 0 1-.242-.374 1.659 1.659 0 0 1-.09-.42 11.233 11.233 0 0 1-.008-.52v-6.11c-.3.377-.736.976-1.31 1.797-.573.82-.998 1.407-1.273 1.76-.036.06-.084.13-.143.21-.06.079-.206.188-.44.328-.233.14-.487.21-.762.21-.263 0-.505-.064-.726-.192-.22-.128-.38-.252-.475-.374l-.143-.2a62.672 62.672 0 0 1-1.417-1.943 92.67 92.67 0 0 0-1.148-1.596v6.147c0 .28-.009.49-.027.63a1.392 1.392 0 0 1-.17.473c-.096.177-.258.301-.484.374-.227.073-.532.11-.915.11-.37 0-.666-.037-.888-.11a.795.795 0 0 1-.475-.373 1.384 1.384 0 0 1-.17-.484 5.81 5.81 0 0 1-.027-.657V14.92c0-.28.01-.489.027-.629.018-.14.075-.298.17-.474.096-.176.257-.301.484-.374.227-.073.532-.11.915-.11.323 0 .6.04.834.119.233.08.385.161.457.246l.108.11 4.07 5.435c2.032-2.736 3.39-4.542 4.071-5.417.203-.328.686-.493 1.452-.493Zm7.168 10.114h5.375c.268 0 .468.01.602.027.134.019.288.076.463.173.174.097.296.261.366.491.07.23.105.54.105.928 0 .315-.03.576-.087.782a1.47 1.47 0 0 1-.21.473.73.73 0 0 1-.358.246c-.157.054-.29.085-.4.09a9.58 9.58 0 0 1-.498.01h-6.91c-.304 0-.554-.03-.75-.091a1.349 1.349 0 0 1-.455-.218.762.762 0 0 1-.236-.373 1.7 1.7 0 0 1-.087-.419c-.007-.172-.01-.345-.01-.518V14.934c0-.618.111-1.04.333-1.264.22-.224.64-.337 1.256-.337h6.876c.268 0 .468.01.602.028.134.018.288.076.463.173.174.097.296.26.366.49.07.231.105.54.105.928 0 .316-.03.576-.087.783a1.47 1.47 0 0 1-.21.472.73.73 0 0 1-.358.246c-.157.055-.29.085-.4.09-.11.007-.277.01-.498.01H67.22v1.837h3.455c.268 0 .47.01.602.028.134.018.288.075.463.172.174.098.296.261.366.491.07.231.105.54.105.928 0 .316-.029.576-.087.782a1.47 1.47 0 0 1-.21.473.73.73 0 0 1-.366.246c-.163.054-.3.085-.41.09-.11.007-.277.01-.498.01h-3.42v1.837Zm12.484-3.727h2.222c.336 0 .671-.132 1.007-.396.336-.265.504-.668.504-1.21 0-.516-.168-.91-.504-1.181-.336-.27-.683-.406-1.042-.406h-2.187v3.193Zm6.667 4.601c.173.433.26.746.26.938 0 .458-.359.843-1.076 1.155-.37.168-.683.253-.938.253a.802.802 0 0 1-.512-.172 1.14 1.14 0 0 1-.312-.352 6.85 6.85 0 0 1-.252-.559c-.255-.601-.625-1.503-1.11-2.706l-.54.036h-2.187v2.039c0 .277-.009.484-.026.622a1.48 1.48 0 0 1-.165.478.768.768 0 0 1-.469.38c-.22.071-.515.108-.885.108-.3 0-.55-.03-.747-.09a1.34 1.34 0 0 1-.45-.217.755.755 0 0 1-.235-.37 1.677 1.677 0 0 1-.087-.415c-.007-.171-.01-.343-.01-.514V14.92c0-.276.01-.484.027-.622.017-.139.072-.298.165-.479a.767.767 0 0 1 .47-.378c.22-.072.514-.109.884-.109h3.75c.486 0 .987.1 1.502.298.53.208 1.026.497 1.467.857.463.373.845.878 1.146 1.516.3.637.451 1.347.451 2.129 0 1.359-.434 2.478-1.302 3.355.255.638.648 1.582 1.18 2.833l.001.001Zm10.28-1.315.103-.072c.39-.236.665-.355.826-.355.356 0 .74.332 1.154.995.253.415.38.753.38 1.014a.853.853 0 0 1-.233.604c-.155.166-.388.344-.698.534-.103.07-.25.166-.44.284-.189.119-.576.273-1.162.462a5.682 5.682 0 0 1-1.756.285 6.189 6.189 0 0 1-1.593-.223 6.857 6.857 0 0 1-1.723-.746 7.133 7.133 0 0 1-1.593-1.28c-.47-.504-.858-1.15-1.163-1.938-.304-.788-.456-1.65-.456-2.587 0-.912.15-1.745.448-2.498.298-.752.68-1.374 1.145-1.866a6.759 6.759 0 0 1 1.593-1.245 7.31 7.31 0 0 1 1.75-.728 6.516 6.516 0 0 1 1.643-.223c.54 0 1.088.086 1.645.258.557.172.98.347 1.266.525l.413.248c.207.13.365.24.474.33.11.088.212.21.31.364.097.154.146.32.146.498 0 .296-.12.616-.36.96-.449.64-.85.96-1.207.96-.207 0-.5-.13-.878-.392-.483-.402-1.126-.604-1.93-.604a3.25 3.25 0 0 0-1.102.204c-.392.144-.76.345-1.093.596-.35.26-.64.628-.87 1.102a3.622 3.622 0 0 0-.345 1.6c0 .605.115 1.144.345 1.618.23.474.522.844.878 1.111s.724.465 1.103.596a3.324 3.324 0 0 0 2.092.053c.316-.095.543-.19.68-.284l.208-.16Zm47.499-.001.104-.07c.39-.238.665-.356.826-.356.356 0 .741.332 1.154.995.253.415.379.753.379 1.014a.851.851 0 0 1-.232.604c-.155.166-.388.344-.698.534-.103.07-.25.166-.439.284-.19.118-.577.273-1.163.462a5.675 5.675 0 0 1-1.756.284 6.202 6.202 0 0 1-1.594-.222 6.864 6.864 0 0 1-1.722-.746 7.164 7.164 0 0 1-1.593-1.28c-.471-.504-.858-1.15-1.163-1.938-.304-.788-.456-1.65-.456-2.587 0-.912.149-1.745.448-2.498.298-.752.68-1.374 1.145-1.866a6.777 6.777 0 0 1 1.593-1.245 7.326 7.326 0 0 1 1.748-.729 6.533 6.533 0 0 1 1.645-.222c.54 0 1.088.086 1.645.258.557.172.979.347 1.266.525l.413.248c.207.13.365.24.474.33.109.088.212.21.31.364.097.154.146.32.146.498 0 .296-.12.616-.361.96-.448.64-.85.96-1.206.96-.207 0-.499-.13-.878-.392-.483-.402-1.126-.604-1.929-.604-.356 0-.724.068-1.103.204-.392.144-.76.345-1.093.596-.351.26-.64.628-.87 1.102a3.61 3.61 0 0 0-.345 1.6c0 .605.115 1.144.345 1.618.23.474.522.844.878 1.111s.724.465 1.103.596a3.323 3.323 0 0 0 2.092.053c.316-.095.543-.19.681-.284l.206-.16v-.001Zm-42.519-8.071c0-.279.009-.488.028-.627.019-.14.079-.3.179-.482.101-.182.27-.31.509-.382.238-.073.558-.11.96-.11.326 0 .596.03.81.091.213.061.377.134.489.219a.76.76 0 0 1 .255.372c.056.164.087.304.094.419.006.115.009.288.009.518v10.114c0 .291-.009.503-.028.637a1.436 1.436 0 0 1-.179.473c-.101.182-.27.309-.508.381-.239.073-.559.11-.961.11-.326 0-.596-.03-.81-.091a1.505 1.505 0 0 1-.489-.218.755.755 0 0 1-.254-.373 1.627 1.627 0 0 1-.095-.419c-.007-.172-.01-.345-.009-.518V14.934Zm16.882-1.601c.338 0 .61.04.819.117a.747.747 0 0 1 .438.386c.085.18.138.344.16.493.023.15.034.356.034.62v6.944c0 1.256-.427 2.366-1.282 3.329-.855.963-1.946 1.445-3.272 1.445a3.93 3.93 0 0 1-1.089-.153 3.824 3.824 0 0 1-.894-.368 7.34 7.34 0 0 1-.649-.43 2.614 2.614 0 0 1-.422-.377l-.135-.144c-.393-.442-.59-.801-.59-1.076 0-.36.197-.754.59-1.185.394-.43.748-.646 1.063-.646.292 0 .652.227 1.08.682.314.335.691.503 1.13.503.427 0 .781-.156 1.063-.467.281-.311.421-.724.421-1.238v-6.712c0-.227.003-.404.009-.53.011-.153.042-.303.093-.448a.868.868 0 0 1 .236-.395c.101-.09.253-.17.455-.242.24-.077.49-.114.742-.108Zm9.359 5.24-1.122 2.459h2.262l-1.14-2.459Zm1.378-4.306 4.592 10.013c.192.407.289.712.289.915 0 .43-.329.82-.987 1.166-.385.204-.708.306-.969.306a.783.783 0 0 1-.485-.162 1.064 1.064 0 0 1-.306-.34c-.062-.12-.15-.3-.263-.54l-.885-1.937h-4.711l-.884 1.938c-.113.24-.201.412-.264.52a1.232 1.232 0 0 1-.306.332.753.753 0 0 1-.484.17c-.261 0-.584-.101-.97-.304-.658-.335-.986-.718-.986-1.149 0-.203.096-.508.289-.915l4.592-10.031c.124-.276.314-.497.569-.665.256-.167.525-.25.808-.25.612 0 1.066.31 1.361.933Zm25.448 5.724s3.091 3.032 3.848 3.903c.39.436.585.783.585 1.042 0 .342-.248.73-.745 1.166-.449.377-.827.565-1.135.565-.295 0-.656-.247-1.081-.742l-3.901-4.433v3.444c0 .283-.009.489-.026.618-.018.13-.074.283-.169.46a.777.777 0 0 1-.479.37c-.224.07-.526.106-.904.106a2.75 2.75 0 0 1-.762-.088 1.405 1.405 0 0 1-.461-.212.742.742 0 0 1-.24-.362 1.567 1.567 0 0 1-.088-.406c-.006-.112-.009-.28-.009-.504V15.1c0-.27.009-.473.027-.609a1.39 1.39 0 0 1 .168-.468c.094-.176.254-.3.479-.37.224-.071.525-.107.904-.107.307 0 .561.03.762.089.201.059.355.13.461.212.114.094.198.22.24.361.053.16.082.295.088.407.006.112.009.28.009.503v3.373a336.035 336.035 0 0 0 3.901-4.432c.413-.483.774-.725 1.081-.725.308 0 .686.189 1.135.566.497.435.745.824.745 1.165 0 .26-.195.607-.585 1.042-.331.389-3.848 3.885-3.848 3.885M20.081 4.664l-2.587.2a1.01 1.01 0 0 1-1.085-.93l-.06-.803a1.012 1.012 0 0 1 .928-1.085l2.588-.2a1.01 1.01 0 0 1 1.084.93l.062.804a1.01 1.01 0 0 1-.93 1.084Z" fill="#F8F8F8"/><path fill-rule="evenodd" clip-rule="evenodd" d="M19.814 1.2a1.66 1.66 0 0 1 1.773 1.43l.01.097.062.803a.65.65 0 0 1-1.288.17l-.01-.07-.06-.803a.36.36 0 0 0-.334-.33h-.053l-2.588.2a.36.36 0 0 0-.33.331v.053l.062.803a.65.65 0 1 1-1.289.17l-.009-.07-.062-.804a1.66 1.66 0 0 1 1.432-1.772l.097-.01 2.587-.2V1.2Z" fill="#BEBEBE"/><path fill-rule="evenodd" clip-rule="evenodd" d="m33.462 17.393.517 6.721c.58 7.552-5.118 13.526-12.67 14.107-7.55.581-14.096-4.452-14.677-12.003l-.517-6.72" fill="#F8F8F8"/><path fill-rule="evenodd" clip-rule="evenodd" d="m33.502 17.448.425 5.837c.477 6.558-5.308 11.703-12.861 12.252-7.554.55-14.017-3.704-14.494-10.263l-.425-5.837" fill="#F8F8F8"/><path fill-rule="evenodd" clip-rule="evenodd" d="M34.112 21.818 5.994 23.98l-.164-2.125 28.12-2.163.162 2.125ZM5.236 18.013c.25-7.318 5.97-13.433 13.44-14.008 7.474-.575 14.062 4.596 15.427 11.79" fill="#F8F8F8"/><path fill-rule="evenodd" clip-rule="evenodd" d="M5.271 19.645a14.72 14.72 0 0 1-.035-1.632l.035 1.632ZM33.652 15.83l-28.12 2.164-.213-2.78 28.12-2.165.213 2.781Z" fill="#F8F8F8"/><path fill-rule="evenodd" clip-rule="evenodd" d="M29.783 12.85a.76.76 0 0 1-.713-.37 9.297 9.297 0 0 0-.393-.605.761.761 0 0 1 1.244-.877c.161.229.315.465.457.704a.76.76 0 0 1-.595 1.148Zm-1.868-2.303a.76.76 0 0 1-.577-.202 10.818 10.818 0 0 0-3.41-2.138.762.762 0 0 1 .56-1.416c1.462.579 2.77 1.4 3.887 2.44a.762.762 0 0 1-.46 1.316ZM22.556 16.845a.717.717 0 0 1-.77-.66l-.907-11.79a.719.719 0 0 1 1.182-.6.717.717 0 0 1 .248.49l.908 11.79a.718.718 0 0 1-.661.77Zm-5.749.442a.717.717 0 0 1-.77-.66l-.907-11.79a.717.717 0 0 1 1.43-.11l.908 11.79a.717.717 0 0 1-.66.77" fill="#BEBEBE"/><path fill-rule="evenodd" clip-rule="evenodd" d="M35.35 19.74 4.607 22.106a2.015 2.015 0 0 1-.31-4.017l30.746-2.366a2.014 2.014 0 1 1 .309 4.017" fill="#F8F8F8"/><path fill-rule="evenodd" clip-rule="evenodd" d="M37.205 17.577 2.443 20.251a2.014 2.014 0 0 1 1.854-2.162l30.745-2.366a2.016 2.016 0 0 1 2.163 1.854Z" fill="#F8F8F8"/><mask id="a" style="mask-type:alpha" maskUnits="userSpaceOnUse" x="1" y="14" width="37" height="9"><path fill-rule="evenodd" clip-rule="evenodd" d="M1.714 14.994h36.208v7.686H1.714v-7.686Z" fill="#fff"/></mask><g mask="url(#a)"><path fill-rule="evenodd" clip-rule="evenodd" d="M4.275 18.81a1.22 1.22 0 0 0 .187 2.432l30.9-2.377a1.22 1.22 0 0 0-.188-2.432L4.275 18.81Zm31.197 1.485-30.9 2.377a2.657 2.657 0 0 1-2.85-2.443 2.657 2.657 0 0 1 2.443-2.85l30.9-2.377a2.657 2.657 0 0 1 2.85 2.443 2.657 2.657 0 0 1-2.443 2.85Z" fill="#BEBEBE"/></g><path fill-rule="evenodd" clip-rule="evenodd" d="M33.59 19.068a.65.65 0 0 1 .69.528l.008.07.339 4.398c.6 7.802-5.241 14.188-13.268 14.806-7.946.61-14.64-4.693-15.356-12.37l-.02-.232-.338-4.398a.65.65 0 0 1 1.288-.17l.01.07.337 4.398c.544 7.066 6.65 11.968 13.98 11.404 7.254-.558 12.507-6.227 12.084-13.196l-.015-.212-.338-4.398a.648.648 0 0 1 .599-.698ZM18.628 3.356C26.376 2.76 33.306 8.1 34.742 15.675a.651.651 0 0 1-1.28.242C32.15 8.992 25.814 4.11 18.728 4.654c-7.084.545-12.6 6.338-12.84 13.382a.65.65 0 1 1-1.3-.045c.262-7.704 6.293-14.038 14.04-14.635Z" fill="#BEBEBE"/><path fill-rule="evenodd" clip-rule="evenodd" d="M24.802 27.766a.65.65 0 0 1 .575.719c-.06.549-.339 1.312-.996 2.067-.639.733-1.53 1.294-2.7 1.62-1.376.383-2.668.15-3.802-.465a4.742 4.742 0 0 1-.963-.668.65.65 0 0 1 .835-.996l.1.085c.202.165.42.31.65.434.858.467 1.814.64 2.83.356.925-.257 1.598-.68 2.07-1.221.27-.311.457-.643.577-.972.05-.135.08-.243.094-.315l.012-.07a.65.65 0 0 1 .647-.578l.071.004Zm-7.226-2.618a1.49 1.49 0 1 1-2.964.316 1.49 1.49 0 0 1 2.964-.316Z" fill="#BEBEBE"/><path fill-rule="evenodd" clip-rule="evenodd" d="M16.76 24.828a.353.353 0 0 1-.464.385.351.351 0 1 1 .464-.385Z" fill="#fff"/><path fill-rule="evenodd" clip-rule="evenodd" d="M21.948 24.848c.57-1.724 3.184-2.066 4.974-1.116a.781.781 0 1 1-.732 1.38c-1.052-.558-2.565-.36-2.76.227a.78.78 0 0 1-1.482-.491Z" fill="#BEBEBE"/></svg>