<svg xmlns="http://www.w3.org/2000/svg" width="135" height="36" fill="none"><g fill-rule="evenodd" clip-path="url(#a)" clip-rule="evenodd"><path fill="#F8F8F8" d="M4.044 4.16C-6.151 13.79 5.063 36.007 17.262 35.8 29.46 35.592 40 16.75 37.374 9.165 34.609 1.18 12.354-3.685 4.044 4.16Z"/><path fill="#F1F1F1" d="M24.288 17.373c0-.37-.018-.756-.018-1.177v-.106a9.634 9.634 0 0 1-.05-.37c-.051-.404-.136-.931-.238-1.476a16.082 16.082 0 0 0-2.61-6.294c-.339-.493-.813-.65-1.305-.44-.254.106-.797.44-.56 1.301.035.105.069.176.102.246.017.018.017.036.034.07 1 2.48 1.594 4.976 1.73 7.402.1 1.688.033 3.183-.204 4.607a26.372 26.372 0 0 1-1.576 5.467c-.136.335-.153.634-.035.88a.94.94 0 0 0 .543.51.99.99 0 0 0 .407.088c.288 0 .61-.14.915-.563.797-1.178 1.44-2.462 1.966-3.938.475-1.354.78-2.76.899-4.167.017-.65 0-1.301 0-2.04Zm-8.541-.474c-.068-.523-.153-1.239-.272-1.936a11.141 11.141 0 0 0-1.188-3.315c-.255-.47-.73-.68-1.256-.54-.544.157-.85.61-.764 1.134.034.226.085.435.136.662.084.419.17.873.237 1.29l.051.385c.102.82.22 1.657.22 2.46 0 1.029-.067 2.145-.22 3.523-.068.663-.22 1.325-.356 1.989-.051.227-.085.436-.136.662-.051.28 0 .558.186.785.187.262.51.419.85.436h.084c.475 0 .849-.226 1.07-.68.916-1.796 1.358-3.75 1.426-6.297v-.07c-.017-.122-.034-.296-.068-.488Z"/><path fill="#F8F8F8" d="M56.216 12.358v3.322c-2.04-.138-4.433.8-4.433 3.984v7.167h-3.095v-14.23h3.095v2.384c.862-1.914 2.62-2.627 4.433-2.627Zm12.607 6.45c-.43-2.44-2.181-3.477-4.019-3.477-2.267 0-3.813 1.349-4.242 3.477h8.261Zm-3.727 5.832c1.683 0 2.954-.762 3.624-1.748l2.49 1.47c-1.288 1.921-3.4 3.08-6.148 3.08-4.638 0-7.626-3.2-7.626-7.44 0-4.187 3.005-7.44 7.402-7.44 4.174 0 7.043 3.392 7.043 7.458 0 .432-.052.882-.121 1.28H60.596c.48 2.215 2.25 3.34 4.5 3.34Zm20.46-5.832c-.43-2.44-2.182-3.477-4.02-3.477-2.267 0-3.813 1.349-4.242 3.477h8.261Zm-3.728 5.832c1.683 0 2.954-.762 3.624-1.748l2.49 1.47c-1.288 1.921-3.4 3.08-6.148 3.08-4.637 0-7.626-3.2-7.626-7.44 0-4.187 3.006-7.44 7.402-7.44 4.174 0 7.042 3.392 7.042 7.458 0 .432-.051.882-.12 1.28H77.329c.48 2.215 2.249 3.34 4.499 3.34Zm8.769-4.638c0-4.204 3.16-7.44 7.362-7.44 2.733 0 5.107 1.436 6.217 3.651l-2.596 1.522c-.615-1.332-1.982-2.18-3.656-2.18-2.46 0-4.32 1.887-4.32 4.447 0 2.544 1.86 4.448 4.32 4.448 1.674 0 3.041-.883 3.707-2.18l2.597 1.505c-1.179 2.232-3.536 3.668-6.286 3.668-4.185 0-7.345-3.253-7.345-7.44Zm27.101 0c0-2.63-1.897-4.516-4.409-4.516-2.512 0-4.409 1.886-4.409 4.516s1.897 4.517 4.409 4.517c2.512 0 4.409-1.886 4.409-4.517Zm3.008-7.077v14.137h-3.008v-2.024c-1.059 1.505-2.7 2.405-4.888 2.405-3.793 0-6.955-3.253-6.955-7.44 0-4.206 3.162-7.441 6.955-7.441 2.171 0 3.829.9 4.888 2.37v-2.007h3.008Zm4.069 13.906h3.052V6.242h-3.052v20.59Zm6.713 0h3.052V6.242h-3.052v20.59Z"/></g><defs><clipPath id="a"><path fill="#fff" d="M0 0h134.727v36H0z"/></clipPath></defs></svg>