<svg width="145" height="36" fill="none" xmlns="http://www.w3.org/2000/svg"><path d="M7.988 22.757c-2.863.819-4.162 3.273-4.162 7.364 1.121.938 2.746 1.853 4.162 2.046v-9.41Z" fill="#F8F8F8"/><path d="M13.091 2.663s-4.478-.776-7.557 1.276c-3.08 2.053-3.08 3.864-3.08 4.451v16.413m5.534 7.363c-2.453-.334-5.533-2.833-5.533-3.87v-3.493m5.533 7.363V21.53m0 10.636c-1.416-.192-3.04-1.107-4.162-2.045 0-4.091 1.299-6.545 4.162-7.364v9.41Zm0-10.636c-2.863.225-4.188.771-5.533 3.273m5.533-3.273c3.277-1.349 4.201-3.21 4.5-8.182" stroke="#F8F8F8" stroke-width=".818"/><rect x="10.443" y="5.575" width="2.455" height="2.455" rx="1.227" fill="#F8F8F8"/><rect x="137.261" y="23.575" width="4.909" height="4.909" rx="2.455" fill="#F8F8F8"/><path d="M13.716 4.757a3.273 3.273 0 0 1 0 6.545V4.758ZM32.337 10.572c1.818 0 3.406.36 4.766 1.08 1.36.721 2.407 1.737 3.145 3.047.753 1.294 1.13 2.792 1.13 4.496 0 1.687-.377 3.185-1.13 4.496-.738 1.31-1.794 2.326-3.17 3.046-1.36.72-2.94 1.081-4.741 1.081h-6.462V10.571h6.462Zm-.27 13.61c1.588 0 2.825-.434 3.71-1.302.884-.868 1.326-2.096 1.326-3.685s-.442-2.826-1.327-3.71c-.884-.884-2.12-1.327-3.71-1.327h-1.99v10.024h1.99ZM42.89 20.94c0-1.408.262-2.645.786-3.71.54-1.064 1.27-1.883 2.187-2.456.917-.574 1.94-.86 3.07-.86.967 0 1.81.196 2.531.59.737.392 1.302.908 1.695 1.547v-1.94h4.202v13.708h-4.202v-1.94c-.409.638-.982 1.154-1.72 1.547-.72.393-1.563.59-2.53.59a5.633 5.633 0 0 1-3.046-.86c-.917-.59-1.646-1.417-2.187-2.482-.524-1.08-.786-2.325-.786-3.734Zm10.27.025c0-1.049-.295-1.876-.885-2.482a2.795 2.795 0 0 0-2.113-.909c-.835 0-1.548.303-2.137.91-.573.589-.86 1.408-.86 2.456s.287 1.884.86 2.506c.59.606 1.302.909 2.137.909s1.54-.303 2.113-.909c.59-.606.884-1.433.884-2.481Zm14.88 3.292v3.562h-2.137c-1.523 0-2.71-.368-3.562-1.105-.852-.754-1.278-1.974-1.278-3.661v-5.454h-1.67v-3.489h1.67v-3.341h4.201v3.341h2.752v3.489h-2.752V23.1c0 .41.099.704.295.884.197.18.524.27.983.27h1.498Zm1.505-3.317c0-1.408.262-2.645.786-3.71.54-1.064 1.27-1.883 2.187-2.456.917-.574 1.94-.86 3.07-.86.967 0 1.81.196 2.531.59.737.392 1.302.908 1.696 1.547v-1.94h4.2v13.708h-4.2v-1.94c-.41.638-.983 1.154-1.72 1.547-.72.393-1.564.59-2.53.59a5.634 5.634 0 0 1-3.047-.86c-.917-.59-1.646-1.417-2.187-2.482-.524-1.08-.786-2.325-.786-3.734Zm10.27.025c0-1.049-.295-1.876-.885-2.482a2.795 2.795 0 0 0-2.113-.909c-.835 0-1.547.303-2.137.91-.573.589-.86 1.408-.86 2.456s.287 1.884.86 2.506c.59.606 1.302.909 2.137.909.836 0 1.54-.303 2.113-.909.59-.606.885-1.433.885-2.481Zm17.681-1.99c1 .213 1.802.712 2.408 1.498a4.17 4.17 0 0 1 .909 2.654c0 1.441-.508 2.587-1.523 3.44-1 .835-2.4 1.252-4.201 1.252h-8.034V10.571h7.763c1.753 0 3.12.402 4.103 1.204 1 .803 1.499 1.892 1.499 3.268 0 1.015-.27 1.859-.81 2.53-.525.672-1.23 1.139-2.114 1.4Zm-6.24-1.425h2.752c.688 0 1.212-.148 1.572-.442.377-.312.565-.762.565-1.352 0-.59-.188-1.04-.565-1.35-.36-.312-.884-.468-1.572-.468h-2.752v3.612Zm3.096 6.879c.704 0 1.244-.156 1.621-.467.393-.328.59-.794.59-1.4 0-.606-.205-1.081-.614-1.425-.394-.344-.942-.516-1.647-.516h-3.046v3.808h3.096Zm11.01-11.744c-.737 0-1.343-.213-1.818-.638a2.167 2.167 0 0 1-.687-1.622c0-.655.229-1.196.687-1.621.475-.443 1.081-.664 1.818-.664.721 0 1.311.221 1.769.664.475.425.713.966.713 1.621 0 .639-.238 1.18-.713 1.622-.458.425-1.048.638-1.769.638Zm2.089 1.425v13.71h-4.201v-13.71h4.201Zm7.245 2.285a5.432 5.432 0 0 1 1.843-1.769 4.683 4.683 0 0 1 2.457-.663v4.447h-1.155c-1.048 0-1.834.229-2.358.688-.525.442-.787 1.228-.787 2.358v6.363h-4.201V14.11h4.201v2.285Zm5.472 4.545c0-1.408.263-2.645.787-3.71.54-1.064 1.269-1.883 2.186-2.456.917-.574 1.941-.86 3.071-.86.901 0 1.72.188 2.457.565.753.377 1.343.884 1.769 1.523V9.638h4.201v18.18h-4.201v-1.965c-.393.655-.958 1.179-1.695 1.572-.721.393-1.564.59-2.531.59-1.13 0-2.154-.287-3.071-.86-.917-.59-1.646-1.417-2.186-2.482-.524-1.08-.787-2.325-.787-3.734Zm10.27.025c0-1.049-.295-1.876-.885-2.482a2.793 2.793 0 0 0-2.112-.909c-.836 0-1.548.303-2.138.91-.573.589-.86 1.408-.86 2.456s.287 1.884.86 2.506c.59.606 1.302.909 2.138.909.835 0 1.539-.303 2.112-.909.59-.606.885-1.433.885-2.481Z" fill="#F8F8F8"/></svg>