<svg width="95" height="36" fill="none" xmlns="http://www.w3.org/2000/svg"><g clip-path="url(#a)" fill-rule="evenodd" clip-rule="evenodd" fill="#F8F8F8"><path d="m16.395 15.81 1.464.289c.2.05.28.198.246.443l-.148 1.061h-5.995l.148-1.061a.501.501 0 0 1 .423-.466l1.436-.267.795-6.244H5.2l-.79 6.244c1.173.244 1.717.489 1.717.733l-.143 1.061H0l.126-1.061a.496.496 0 0 1 .446-.443l1.436-.267L3.724 1.794l-1.436-.318c-.179-.05-.253-.197-.223-.443L2.191 0h5.96L8.01 1.033c-.035.261-.143.409-.32.443l-.498.096-.395.063a10.83 10.83 0 0 0-.647.136L5.4 7.845h9.56l.771-6.074-1.464-.295c-.2-.051-.28-.199-.246-.443L14.14 0h5.995l-.114 1.033a.501.501 0 0 1-.446.466l-1.436.272-1.745 14.038ZM24.784 16.236c.058.09.08.2.063.306l-.126 1.061h-4.013l.224-1.793 1.117-8.872-1.393-.266a.373.373 0 0 1-.258-.148.399.399 0 0 1-.063-.295l.127-1.055h4.012L23.133 15.81l1.393.267c.106.01.201.07.258.159ZM35.555 5.595l-.102.841-.298 2.337h-.96a.36.36 0 0 1-.4-.316l-.001-.026c0-.392 0-.937.051-1.625a7.964 7.964 0 0 0-1.882-.245 2.874 2.874 0 0 0-1.785.518c-.415.25-.704.663-.795 1.137v.295c-.005.237.065.47.2.665.326.42.78.726 1.293.87l1.487.494c.63.228 1.007.376 1.145.444.352.153.678.36.966.614.508.439.79 1.082.767 1.75.011.146.011.292 0 .438a4.104 4.104 0 0 1-1.585 2.842 5.26 5.26 0 0 1-3.432 1.137 11.559 11.559 0 0 1-3.964-.665l.394-3.251h.79a.309.309 0 0 1 .349.295c0 .398 0 .92-.052 1.58.78.343 1.625.51 2.477.49.721.032 1.43-.185 2.008-.615.427-.292.712-.747.79-1.256.02-.105.03-.211.028-.318.015-.251-.047-.5-.177-.716a1.564 1.564 0 0 0-.67-.569c-.32-.16-.65-.3-.989-.415-1.19-.398-1.922-.66-2.203-.79a3.89 3.89 0 0 1-1.063-.665 2.312 2.312 0 0 1-.744-1.819 3.539 3.539 0 0 1 1.481-3.001 5.678 5.678 0 0 1 3.667-1.086 9.946 9.946 0 0 1 3.21.631ZM38.233 16.954a2.53 2.53 0 0 1-.572-1.744c0-.119 0-.323.051-.618l.94-7.62h-1.478a.42.42 0 0 1-.32-.125.48.48 0 0 1-.075-.37l.097-.857 2.084-.272.99-3.833a.425.425 0 0 1 .201-.295.576.576 0 0 1 .367-.125h1.116l-.544 4.304h3.595l-.2 1.573h-3.624l-.916 7.472c-.01.108-.01.216 0 .324-.016.308.08.612.27.857.245.253.59.387.944.37.194-.01.386-.042.572-.097.166-.043.325-.11.47-.2l.349-.192a.828.828 0 0 1 .246-.102c.115 0 .206.073.275.221l.521 1.034a4.788 4.788 0 0 1-1.489.834 5.016 5.016 0 0 1-1.717.296 2.726 2.726 0 0 1-2.153-.835ZM54.192 5.405a4.36 4.36 0 0 1 1.715 1.277c.478.592.807 1.29.96 2.033.1.478.15.965.148 1.454a11.32 11.32 0 0 1-.074 1.18 9.456 9.456 0 0 1-.743 2.653 6.422 6.422 0 0 1-1.44 2.015 5.822 5.822 0 0 1-2.029 1.306 6.947 6.947 0 0 1-2.548.443 6.141 6.141 0 0 1-2.423-.443 4.416 4.416 0 0 1-1.715-1.306 5 5 0 0 1-.965-2.015 8.1 8.1 0 0 1-.172-1.574 8.682 8.682 0 0 1 .862-3.713 6.548 6.548 0 0 1 1.435-2.038 6.415 6.415 0 0 1 2.058-1.278 7.045 7.045 0 0 1 2.526-.443 6.144 6.144 0 0 1 2.405.449Zm-.868 9.414a6.183 6.183 0 0 0 1.337-3.44c.047-.378.072-.757.074-1.136a4.457 4.457 0 0 0-.571-2.311c-.514-.84-1.389-1.255-2.623-1.255a4.166 4.166 0 0 0-1.715.318 3.88 3.88 0 0 0-1.2.92 4.14 4.14 0 0 0-.868 1.47 9.605 9.605 0 0 0-.492 1.993c-.05.325-.077.654-.08.983 0 .338.028.676.08 1.01.049.514.217 1.01.492 1.448.263.396.63.712 1.063.914a3.584 3.584 0 0 0 1.583.318 3.647 3.647 0 0 0 2.92-1.232ZM62.6 16.236c.06.09.082.2.064.306l-.126 1.061h-4.012l.223-1.793 1.112-8.872-1.386-.266a.396.396 0 0 1-.264-.148.4.4 0 0 1-.057-.295l.12-1.055h4.011l-1.34 10.636 1.404.29c.1.007.19.057.252.136ZM67.934 5.325a.683.683 0 0 1 .126.47l-.075 1.94c1.147-1.838 2.535-2.754 4.167-2.75a3.086 3.086 0 0 1 1.662.413l-.493 1.645c-.086.215-.201.323-.35.323a2.113 2.113 0 0 1-.573-.125 3.312 3.312 0 0 0-.992-.124c-1.438 0-2.624.867-3.547 2.602l-.968 7.939h-2.212l1.317-10.632c-.43-.085-.75-.148-.956-.199l-.436-.096a.347.347 0 0 1-.292-.442l.12-1.055h3.06a.688.688 0 0 1 .442.09ZM81.115 17.12a6.099 6.099 0 0 1-2.918.67 4.475 4.475 0 0 1-2.747-.788 4.306 4.306 0 0 1-1.53-2.162 6.025 6.025 0 0 1-.326-2.088 8.556 8.556 0 0 1 1.759-5.328 5.687 5.687 0 0 1 4.728-2.44 4.46 4.46 0 0 1 2.164.494A2.752 2.752 0 0 1 83.52 6.85c.138.301.214.627.223.959a3.15 3.15 0 0 1-.383 1.622c-.294.46-.698.84-1.176 1.107a9.697 9.697 0 0 1-2.45.959c-1.315.308-2.652.52-3.997.635v.568c0 2.239.965 3.36 2.894 3.364a4.015 4.015 0 0 0 2.519-.811c.497-.375.81-.607.942-.687a.718.718 0 0 1 .394-.125.572.572 0 0 1 .423.2l.542.663a9.858 9.858 0 0 1-2.335 1.816Zm.148-10.213a2.227 2.227 0 0 0-1.29-.357c-.76-.02-1.5.23-2.09.704a5.105 5.105 0 0 0-1.37 1.804 6.614 6.614 0 0 0-.572 1.623 22.137 22.137 0 0 0 3.067-.54 8.093 8.093 0 0 0 1.753-.64c.3-.159.562-.382.765-.653.177-.282.263-.61.245-.942a1.133 1.133 0 0 0-.508-.993v-.006ZM93.894 5.606l-.085.842-.292 2.336h-.968a.36.36 0 0 1-.4-.341c0-.392 0-.938.051-1.626a7.976 7.976 0 0 0-1.883-.244 2.877 2.877 0 0 0-1.786.517c-.416.25-.705.663-.796 1.137v.295c-.01.238.06.472.2.665.332.42.793.721 1.311.859l1.489.494c.63.228 1.007.376 1.144.444.353.153.68.36.968.614.508.439.79 1.082.767 1.75.012.146.012.292 0 .438a4.125 4.125 0 0 1-1.586 2.842 5.28 5.28 0 0 1-3.434 1.137 11.58 11.58 0 0 1-3.968-.665l.395-3.251h.773a.309.309 0 0 1 .347.264c.002.01.002.02.003.031 0 .398 0 .921-.052 1.58.78.343 1.626.51 2.478.49a3.137 3.137 0 0 0 2.01-.614c.425-.295.71-.749.79-1.257.01-.106.01-.212 0-.318.016-.25-.044-.5-.172-.716a1.561 1.561 0 0 0-.67-.569c-.32-.16-.65-.3-.99-.415-1.19-.398-1.923-.66-2.204-.79a4.027 4.027 0 0 1-1.07-.665 2.328 2.328 0 0 1-.739-1.819 3.539 3.539 0 0 1 1.483-3.001 5.685 5.685 0 0 1 3.67-1.086c1.1.035 2.188.252 3.216.642ZM24.853 2.245c0 .635-.519 1.15-1.159 1.15s-1.158-.515-1.158-1.15c0-.635.518-1.15 1.158-1.15.64 0 1.159.515 1.159 1.15ZM62.45 2.245c0 .635-.52 1.15-1.16 1.15-.639 0-1.158-.515-1.158-1.15 0-.635.52-1.15 1.159-1.15.64 0 1.158.515 1.158 1.15ZM12.509 29.99c.074-1.72-1.273-3.174-3.008-3.247a3.067 3.067 0 0 0-.257 0c-1.818.074-3.23 1.595-3.154 3.397.072 1.695 1.443 3.054 3.154 3.125 1.739.065 3.201-1.28 3.267-3.003.003-.09.003-.182-.002-.273Zm-3.82-5.876c1.598 0 3.053.567 3.654 1.527h.097a5.858 5.858 0 0 1-.051-.97v-5.206h3.196v16.144h-2.961v-.494a9.501 9.501 0 0 1 .045-1.01h-.08c-.779 1.18-2.291 1.868-4.01 1.868-3.437 0-5.842-2.447-5.842-5.938-.139-3.133 2.31-5.783 5.471-5.92.16-.007.32-.008.48-.001ZM21.06 29.064h5.72a2.67 2.67 0 0 0-2.751-2.32 2.855 2.855 0 0 0-2.958 2.32h-.011Zm3.072 6.901c-3.793 0-6.396-2.512-6.396-5.932 0-3.42 2.626-5.914 6.35-5.914 3.513 0 5.87 2.472 5.87 5.914.004.318-.027.636-.092.948H21.06c.343 1.463 1.43 2.302 3.095 2.302a3.528 3.528 0 0 0 3.003-1.287l1.876 1.831a5.996 5.996 0 0 1-4.902 2.138ZM39.723 28.536l1.497.715c1.366.642 2.544 1.442 2.544 3.248 0 2.027-1.664 3.446-4.459 3.446-2.635 0-4-1.38-4.412-2.838l2.4-1.244a2.145 2.145 0 0 0 2.035 1.635c.76-.005 1.275-.374 1.275-1.016 0-.454-.32-.755-1.315-1.187l-1.269-.567c-1.343-.602-2.589-1.335-2.589-3.316 0-1.789 1.715-3.293 4.001-3.293 2.287 0 3.63 1.135 4.344 2.452l-2.24 1.25a2.288 2.288 0 0 0-2.035-1.312c-.646 0-1.143.323-1.143.886 0 .562.349.71 1.343 1.135M52.16 24.447h3.228v11.17H52.16v-11.17ZM45.982 19.465h3.227v16.152h-3.227V19.465ZM67.31 29.983c-.03-1.78-1.508-3.2-3.303-3.171-1.795.028-3.227 1.493-3.199 3.273.028 1.755 1.468 3.165 3.239 3.171 1.734.068 3.195-1.27 3.264-2.989.004-.094.003-.19-.002-.284Zm-3.813-5.872c1.597 0 3.051.567 3.652 1.526h.091a6.147 6.147 0 0 1-.045-.97v-5.202h3.17v16.134h-2.959v-.493a9.673 9.673 0 0 1 .046-1.01h-.091c-.767 1.18-2.29 1.85-4.007 1.85-3.434 0-5.81-2.429-5.81-5.918-.138-3.13 2.31-5.78 5.468-5.916.162-.007.324-.008.485-.001ZM75.858 29.054h5.72a2.672 2.672 0 0 0-2.774-2.323 2.855 2.855 0 0 0-2.957 2.323h.011Zm3.083 6.912c-3.793 0-6.423-2.5-6.423-5.924 0-3.424 2.654-5.923 6.377-5.923 3.513 0 5.87 2.476 5.87 5.923a4.31 4.31 0 0 1-.092.949h-8.815c.343 1.465 1.43 2.306 3.094 2.306a3.53 3.53 0 0 0 3.004-1.307l1.876 1.835a5.996 5.996 0 0 1-4.89 2.14ZM90.596 28.55l1.493.714c1.366.64 2.545 1.44 2.545 3.241 0 2.024-1.664 3.44-4.461 3.44-2.637 0-3.975-1.377-4.416-2.833l2.402-1.241a2.147 2.147 0 0 0 2.037 1.632c.76 0 1.27-.368 1.27-1.009 0-.453-.321-.753-1.316-1.184l-1.27-.567c-1.344-.6-2.59-1.332-2.59-3.31 0-1.785 1.715-3.287 4.003-3.287 2.288 0 3.631 1.134 4.346 2.448l-2.242 1.247a2.288 2.288 0 0 0-2.024-1.332c-.646 0-1.144.323-1.144.885 0 .56.349.708 1.344 1.133"/><path d="M89.812 30.58h4.165a5.235 5.235 0 0 0-1.888-1.311l-1.5-.715h-.777v2.026ZM93.415 33.262h1.139c.057-.246.086-.498.085-.75a3.105 3.105 0 0 0-.25-1.275h-.991l.017 2.025ZM94.336 33.92h-3.917v2.052c1.961-.085 3.332-.856 3.917-2.053ZM54.293 19.72l-2.133-.255v3.203h3.228v-2.206c-.006-.555-.485-.618-1.095-.742Z"/></g><defs><clipPath id="a"><path fill="#fff" d="M0 0h94.639v36H0z"/></clipPath></defs></svg>