<svg width="98" height="36" fill="none" xmlns="http://www.w3.org/2000/svg"><g clip-path="url(#a)" fill="#F8F8F8"><rect y="18.414" width="5.957" height="11.373" rx="2.979"/><rect x="9.143" y="8" width="6" height="21.714" rx="2.979"/><rect x="18.414" y="2.708" width="5.957" height="27.079" rx="2.979"/><path d="M38.572 30.344c-1.567 0-3.028-.277-4.384-.831a10.9 10.9 0 0 1-3.552-2.32 10.804 10.804 0 0 1-2.377-3.495c-.554-1.356-.831-2.817-.831-4.383 0-1.585.277-3.046.83-4.383a10.436 10.436 0 0 1 2.35-3.495 10.53 10.53 0 0 1 3.552-2.292c1.356-.554 2.826-.83 4.412-.83 1.585 0 3.055.276 4.411.83a10.902 10.902 0 0 1 3.552 2.32 10.134 10.134 0 0 1 2.35 3.467c.572 1.337.859 2.798.859 4.383 0 1.566-.287 3.027-.86 4.383a10.806 10.806 0 0 1-2.377 3.495 10.901 10.901 0 0 1-3.553 2.32c-1.336.554-2.797.83-4.383.83Zm0-3.552c1.05 0 2.014-.182 2.893-.545a7.114 7.114 0 0 0 2.291-1.575 6.59 6.59 0 0 0 1.519-2.378c.363-.917.544-1.91.544-2.98 0-1.069-.181-2.052-.544-2.95a6.591 6.591 0 0 0-1.518-2.378 6.562 6.562 0 0 0-2.292-1.575c-.879-.363-1.843-.544-2.894-.544-1.03 0-1.986.181-2.864.544a6.855 6.855 0 0 0-2.32 1.575 7.142 7.142 0 0 0-1.519 2.378c-.363.898-.544 1.881-.544 2.95 0 1.07.181 2.063.544 2.98a7.14 7.14 0 0 0 1.518 2.378 7.453 7.453 0 0 0 2.32 1.575c.88.363 1.834.545 2.865.545ZM58.349 30 50.901 8.658h4.24l5.843 17.675h-.83l5.844-17.675h4.24L62.817 30h-4.469Zm14.274 0V8.658h8.995c1.413 0 2.616.249 3.61.745 1.011.478 1.785 1.165 2.32 2.063.553.878.83 1.948.83 3.208 0 .974-.267 1.89-.802 2.75-.515.84-1.346 1.538-2.492 2.091v-1.804c1.05.4 1.881.897 2.492 1.49.611.591 1.041 1.25 1.29 1.976a7.03 7.03 0 0 1 .372 2.292c0 2.043-.678 3.647-2.034 4.812-1.337 1.146-3.2 1.719-5.586 1.719h-8.995Zm3.896-3.438h5.5c1.012 0 1.814-.277 2.406-.83.611-.573.917-1.328.917-2.263 0-.936-.306-1.69-.917-2.264-.592-.572-1.394-.859-2.406-.859h-5.5v6.216Zm0-9.625h5.3c.801 0 1.441-.229 1.919-.687.477-.478.716-1.089.716-1.834 0-.745-.239-1.337-.716-1.776-.478-.44-1.118-.659-1.92-.659h-5.3v4.956Z"/><circle cx="94.143" cy="26.476" r="3"/></g><defs><clipPath id="a"><path fill="#fff" d="M0 0h97.143v36H0z"/></clipPath></defs></svg>