<svg width="19" height="36" fill="none" xmlns="http://www.w3.org/2000/svg"><g clip-path="url(#a)" fill="#F8F8F8"><path d="M18.064.423v35.14c-.01.036-.017.073-.03.106a.52.52 0 0 1-.377.317c-.014.003-.027.01-.042.014H.464l-.043-.014a.51.51 0 0 1-.399-.38.778.778 0 0 1-.02-.203C0 23.8 0 12.198 0 .595V.529A.528.528 0 0 1 .382.023C.406.017.428.008.451 0h17.178c.024.009.048.018.073.025.158.051.27.154.333.307.012.03.02.06.03.091h-.001ZM.278 17.998V35.489a.247.247 0 0 0 .21.231c.031.006.065.003.098.003h16.979a.242.242 0 0 0 .222-.186.523.523 0 0 0 .011-.118c0-11.614 0-23.227.003-34.842 0-.173-.098-.303-.305-.303C11.86.277 6.221.277.584.277H.511a.246.246 0 0 0-.231.23C.278.542.279.577.279.613v17.385H.278Z"/><path d="M9.395 30.652h1.696v-.427h.272v.694c-.049.014-2.604.017-2.675.002v-.262c.142-.004.281 0 .417-.002l.009-.008s.003-.003.003-.005l.003-.06V5.346c-.074-.005-.146-.003-.218-.003h-.214v-.26c.052-.015.633-.017.706-.003v25.573Z"/><path d="M3.488 16.128h-.433c-.007-.092-.003-.179-.004-.27h.704v1.49c.031-.01.035-.036.044-.054.181-.34.421-.628.725-.865a2.706 2.706 0 0 1 4.318 1.595 2.704 2.704 0 0 1-5.042 1.805c-.01-.02-.02-.038-.04-.071v5.938c.07.008.142.002.214.003h.213v.271h-.7v-9.843Zm5.137 2.435a2.433 2.433 0 1 0-4.868-.003 2.433 2.433 0 0 0 4.869.003h-.001ZM15.018 18.564h-5.13c.002.411.096.794.29 1.15.29.532.717.908 1.282 1.125.403.154.821.195 1.246.126a2.394 2.394 0 0 0 1.139-.507c.336-.27.582-.61.745-1.018l.246.095c-.361 1.04-1.56 1.942-2.98 1.694a2.697 2.697 0 0 1-2.204-3.113 2.697 2.697 0 0 1 3.069-2.23c1.528.235 2.334 1.58 2.296 2.678h.001Zm-.287-.28c-.093-1.096-1.074-2.17-2.434-2.155-1.371.013-2.305 1.113-2.385 2.154h4.819Z"/></g><defs><clipPath id="a"><path fill="#fff" d="M0 0h18.065v36H0z"/></clipPath></defs></svg>