<svg width="180" height="36" fill="none" xmlns="http://www.w3.org/2000/svg"><g clip-path="url(#a)"><path d="M36 0H0v36h36V0Z" fill="#F8F8F8"/><path d="M19.702 7.854 11.847 7.2l-.327 12.764h6.218l-.982 9.49 7.855-13.418-6.218-.327 1.309-7.854Z" fill="#222"/><path d="M54.994 17.957c.26-1.498.814-2.83 1.663-3.996a8.994 8.994 0 0 1 3.197-2.743 8.727 8.727 0 0 1 4.104-.994c1.8 0 3.254.475 4.363 1.426 1.123.95 1.757 2.246 1.901 3.888h-4.06c-.188-.62-.534-1.088-1.038-1.404-.49-.332-1.094-.497-1.814-.497-1.138 0-2.124.396-2.96 1.188-.834.777-1.367 1.822-1.598 3.132a6.122 6.122 0 0 0-.108 1.058c0 1.008.281 1.808.843 2.398.561.59 1.332.886 2.311.886.706 0 1.36-.166 1.966-.497a4.321 4.321 0 0 0 1.555-1.426h4.06c-.72 1.642-1.807 2.938-3.261 3.888-1.454.936-3.082 1.404-4.882 1.404-1.296 0-2.426-.252-3.39-.756a5.314 5.314 0 0 1-2.226-2.138c-.518-.922-.777-1.995-.777-3.219 0-.547.05-1.08.151-1.598Zm16.064 1.555c.216-1.238.641-2.326 1.275-3.262.633-.935 1.397-1.655 2.29-2.16a5.67 5.67 0 0 1 2.829-.755c.85 0 1.562.172 2.138.518.576.345.994.8 1.253 1.36l.303-1.706h3.693L82.701 25.56h-3.694l.324-1.706a5.163 5.163 0 0 1-1.75 1.36 5.231 5.231 0 0 1-2.332.519c-.85 0-1.606-.195-2.268-.583a3.973 3.973 0 0 1-1.512-1.642c-.36-.72-.54-1.562-.54-2.527 0-.46.043-.95.13-1.469Zm9.03.022c.042-.26.064-.497.064-.713 0-.706-.209-1.26-.626-1.663-.404-.404-.922-.605-1.556-.605-.734 0-1.404.266-2.008.8-.605.517-.987 1.237-1.145 2.16-.043.258-.065.496-.065.712 0 .705.202 1.267.605 1.685.417.403.936.605 1.555.605.734 0 1.404-.267 2.009-.8.605-.532.993-1.26 1.166-2.181Zm13.709-7.755c-.706-.043-1.224.058-1.555.303-.317.244-.533.684-.648 1.317l-.022.108h1.987l-.54 3.068h-1.987l-1.577 8.985H85.74l1.577-8.985h-1.34l.54-3.068h1.34l.064-.345c.274-1.484.9-2.607 1.88-3.37.993-.778 2.31-1.166 3.953-1.166.259 0 .453.007.583.021l-.54 3.132Zm6.876 1.556c1.556 0 2.787.424 3.694 1.274.922.835 1.382 1.98 1.382 3.434 0 .476-.036.9-.108 1.275a8.587 8.587 0 0 1-.259 1.058h-8.359a2.77 2.77 0 0 0-.022.41c0 .634.173 1.116.519 1.448.345.33.806.496 1.382.496.922 0 1.627-.388 2.117-1.166h3.931c-.518 1.224-1.361 2.225-2.527 3.003-1.166.777-2.477 1.166-3.931 1.166-1.555 0-2.801-.432-3.737-1.296-.922-.864-1.382-2.038-1.382-3.52 0-.447.043-.908.13-1.383.215-1.253.662-2.348 1.338-3.284a6.88 6.88 0 0 1 2.528-2.16c1.008-.504 2.11-.755 3.304-.755Zm1.34 5.162c.028-.202.043-.338.043-.41 0-.576-.18-1.016-.54-1.318-.36-.317-.835-.475-1.426-.475-.633 0-1.195.194-1.685.583-.475.374-.82.914-1.036 1.62h4.644Zm1.814-7.992-5.616 2.181.454-2.548 5.659-2.506-.497 2.873Zm8.373 7.452c.259-1.498.814-2.83 1.663-3.996a8.996 8.996 0 0 1 3.197-2.743 8.726 8.726 0 0 1 4.104-.994c1.8 0 3.254.475 4.363 1.426 1.123.95 1.757 2.246 1.901 3.888h-4.061c-.187-.62-.533-1.088-1.037-1.404-.489-.332-1.094-.497-1.814-.497-1.138 0-2.124.396-2.959 1.188-.835.777-1.368 1.822-1.599 3.132a6.122 6.122 0 0 0-.108 1.058c0 1.008.281 1.808.843 2.398.561.59 1.332.886 2.311.886.706 0 1.361-.166 1.966-.497a4.325 4.325 0 0 0 1.555-1.426h4.061c-.72 1.642-1.808 2.938-3.262 3.888-1.454.936-3.082 1.404-4.882 1.404-1.296 0-2.426-.252-3.391-.756a5.317 5.317 0 0 1-2.225-2.138c-.518-.922-.777-1.995-.777-3.219 0-.547.05-1.08.151-1.598Zm20.601-4.45 1.468 7.539 4.104-7.539h3.996l-10.692 17.777h-3.974l3.845-6.134-2.851-11.643h4.104Zm14.274 1.707a5.159 5.159 0 0 1 1.749-1.361 5.184 5.184 0 0 1 2.311-.518c1.296 0 2.34.424 3.132 1.274.807.835 1.21 1.98 1.21 3.434 0 .461-.043.95-.13 1.47-.216 1.237-.64 2.332-1.274 3.282-.634.936-1.397 1.663-2.29 2.182a5.668 5.668 0 0 1-2.829.756c-.85 0-1.563-.166-2.139-.497-.576-.346-.993-.8-1.252-1.36l-.303 1.684h-3.693l2.829-15.984h3.694l-1.015 5.638Zm4.536 4.298c.043-.245.064-.468.064-.67 0-.72-.208-1.281-.626-1.684-.403-.404-.922-.605-1.555-.605-.735 0-1.404.266-2.009.8-.605.532-.994 1.26-1.166 2.18-.044.26-.065.497-.065.713 0 .706.201 1.26.605 1.664.403.403.921.605 1.555.605.734 0 1.404-.267 2.009-.8.619-.547 1.015-1.281 1.188-2.203Zm12.132-6.178c1.555 0 2.787.425 3.694 1.275.921.835 1.382 1.98 1.382 3.434 0 .476-.036.9-.108 1.275a8.587 8.587 0 0 1-.259 1.058h-8.359a2.676 2.676 0 0 0-.022.41c0 .634.173 1.116.519 1.448.345.33.806.496 1.382.496.922 0 1.627-.388 2.117-1.166h3.931c-.518 1.224-1.361 2.225-2.527 3.003-1.167.777-2.477 1.166-3.931 1.166-1.556 0-2.801-.432-3.737-1.296-.922-.864-1.383-2.038-1.383-3.52 0-.447.044-.908.13-1.383.216-1.253.662-2.348 1.339-3.284a6.88 6.88 0 0 1 2.527-2.16c1.008-.504 2.11-.755 3.305-.755Zm1.339 5.163c.029-.202.044-.338.044-.41 0-.576-.18-1.016-.54-1.318-.36-.317-.836-.475-1.426-.475-.634 0-1.195.194-1.685.583-.475.374-.821.914-1.037 1.62h4.644Zm9.877-2.808c.561-.72 1.202-1.282 1.922-1.685.735-.418 1.498-.626 2.29-.626l-.691 3.91h-1.016c-.921 0-1.648.2-2.181.604-.533.389-.886 1.08-1.059 2.074l-.993 5.594h-3.694l2.117-12.053h3.694l-.389 2.182Z" fill="#F8F8F8"/></g><defs><clipPath id="a"><path fill="#fff" d="M0 0h179.28v36H0z"/></clipPath></defs></svg>