<svg width="182" height="36" fill="none" xmlns="http://www.w3.org/2000/svg"><g clip-path="url(#a)" fill="#F8F8F8"><path d="M11.168 21.424A3.422 3.422 0 0 0 14.593 18a3.422 3.422 0 0 0-3.425-3.425A3.422 3.422 0 0 0 7.744 18a3.422 3.422 0 0 0 3.424 3.424ZM11.168 26.759a8.753 8.753 0 0 0 8.76-8.76l-.002-.099a11.12 11.12 0 0 1 2.41 6.932c0 3.53-1.633 6.67-4.185 8.716A11.121 11.121 0 0 1 11.168 36H0a9.236 9.236 0 0 1 9.24-9.241h1.928ZM11.168 9.24A8.753 8.753 0 0 0 2.41 18l.002.1A11.12 11.12 0 0 1 0 11.168c0-3.53 1.633-6.67 4.185-8.716A11.12 11.12 0 0 1 11.168 0h11.169a9.236 9.236 0 0 1-9.241 9.24h-1.928ZM39.998 26.58c4.398 0 7.083-2.02 7.083-5.3 0-2.995-1.83-4.47-6.013-5.182-3.351-.594-3.993-1.117-3.993-2.21 0-1.165 1.022-1.83 2.828-1.83 2.353 0 3.613.998 4.469 1.972l2.472-1.996c-1.45-1.688-3.684-2.972-6.988-2.972-3.874 0-6.489 1.878-6.489 4.897 0 2.947 1.902 4.373 5.823 5.086 3.518.618 4.16 1.236 4.16 2.472 0 1.284-1.379 2.044-3.257 2.044-2.305 0-3.85-.903-5.205-2.282l-2.353 2.163c1.783 2.044 4.445 3.138 7.463 3.138ZM49.075 10.441v3.28h-1.71v2.472h1.71v6.465c0 2.353 1.023 3.803 4.017 3.803a9.196 9.196 0 0 0 2.734-.404v-2.662c-.547.143-1.141.261-1.806.261-1.142 0-1.474-.499-1.474-1.545v-5.918h3.042v-2.472h-3.042v-3.28h-3.47ZM64.148 13.175c-1.355 0-2.567.689-3.446 2.376v-2.044H57.35v12.621h3.47V20.9c0-3.446 1.521-4.326 3.47-4.326.167 0 .333 0 .761.024v-3.375a10.893 10.893 0 0 0-.903-.047ZM72.016 26.461c2.71 0 4.587-1.093 5.8-2.995l-2.781-1.355c-.547.975-1.45 1.664-2.852 1.664-1.807 0-2.948-1.046-3.067-3.137h8.795v-.666c0-4.064-2.282-6.797-6.109-6.797-3.993 0-6.25 2.757-6.25 6.63 0 3.828 2.423 6.656 6.464 6.656Zm-2.9-8.034c.143-1.854 1.189-2.733 2.662-2.733 1.522 0 2.472.856 2.591 2.733h-5.252ZM85.072 13.175c-3.398 0-5.443 1.33-5.538 4.088h3.423c.047-1.189.618-1.664 2.044-1.664 1.497 0 1.901.451 1.901 1.782v.571l-2.638.333c-3.636.451-5.229 1.854-5.229 4.302 0 2.258 1.545 3.874 4.23 3.874 1.403 0 2.782-.404 3.709-1.616.071.451.19.88.38 1.283H90.8c-.356-.88-.427-1.759-.427-2.757v-6.227c0-2.52-1.474-3.97-5.3-3.97Zm1.83 8.223c0 1.403-1.188 2.377-2.614 2.377-1.165 0-1.711-.618-1.711-1.521 0-1.046.713-1.593 2.543-1.854l1.782-.238v1.236ZM96.287 26.128V19.07c0-1.806.95-2.995 2.258-2.995 1.474 0 1.735.998 1.735 3.185v6.87h3.47v-7.06c0-1.806.927-2.995 2.258-2.995 1.426 0 1.735.998 1.735 3.185v6.87h3.47v-8.13c0-3.09-1.354-4.824-4.017-4.824-1.616 0-3.042.617-3.992 2.044-.571-1.308-1.759-2.044-3.47-2.044-1.498 0-2.615.546-3.566 1.782v-1.45h-3.351v12.621h3.47ZM124.285 9.49v11.338L118.01 9.49h-4.183v16.638h3.28V15.076l6.275 11.052h4.183V9.49h-3.28ZM135.603 13.175c-3.399 0-5.443 1.33-5.538 4.088h3.423c.047-1.189.618-1.664 2.044-1.664 1.497 0 1.901.451 1.901 1.782v.571l-2.638.333c-3.636.451-5.229 1.854-5.229 4.302 0 2.258 1.545 3.874 4.231 3.874 1.402 0 2.781-.404 3.708-1.616.071.451.19.88.38 1.283h3.446c-.356-.88-.427-1.759-.427-2.757v-6.227c0-2.52-1.474-3.97-5.301-3.97Zm1.83 8.223c0 1.403-1.188 2.377-2.614 2.377-1.165 0-1.712-.618-1.712-1.521 0-1.046.713-1.593 2.544-1.854l1.782-.238v1.236ZM143.847 10.441v3.28h-1.712v2.472h1.712v6.465c0 2.353 1.022 3.803 4.017 3.803a9.2 9.2 0 0 0 2.733-.404v-2.662c-.547.143-1.141.261-1.807.261-1.14 0-1.473-.499-1.473-1.545v-5.918h3.042v-2.472h-3.042v-3.28h-3.47ZM153.856 11.653c1.094 0 2.044-.88 2.044-1.949 0-1.117-.95-1.973-2.044-1.973-1.093 0-2.067.856-2.067 1.973 0 1.07.974 1.95 2.067 1.95Zm-1.735 1.854v12.621h3.471v-12.62h-3.471ZM165.477 13.507l-2.544 9.77-2.424-9.77h-3.85l4.135 12.621h4.255l4.136-12.62h-3.708ZM175.816 26.461c2.71 0 4.588-1.093 5.8-2.995l-2.781-1.355c-.547.975-1.45 1.664-2.852 1.664-1.807 0-2.947-1.046-3.066-3.137h8.794v-.666c0-4.064-2.282-6.797-6.109-6.797-3.993 0-6.25 2.757-6.25 6.63 0 3.828 2.424 6.656 6.464 6.656Zm-2.899-8.034c.142-1.854 1.188-2.733 2.662-2.733 1.521 0 2.472.856 2.59 2.733h-5.252Z"/></g><defs><clipPath id="a"><path fill="#fff" d="M0 0h181.92v36H0z"/></clipPath></defs></svg>