<svg width="140" height="36" fill="none" xmlns="http://www.w3.org/2000/svg"><g clip-path="url(#a)" fill="#F8F8F8"><path d="m128.311 17.822-4.205-10.668h-7.036l8.16 17.482-4.746 10.506h6.703l12.656-27.988h-6.703l-4.829 10.668ZM116.813 28.761v-5.246h-.169c-1.124 0-1.623-.582-1.623-1.748V.776h-6.162v21.366c0 4.163 2.415 6.62 6.536 6.62h1.418ZM99.25 7.154c-1.852 0-4.348.333-5.597 2.58v-2.58h-6.12V28.76h6.12V16.105c0-2.748 1.624-4.205 3.83-4.205 1.79 0 3.206 1.332 3.206 3.83v13.03h6.12V14.648c0-4.87-3.27-7.493-7.559-7.493ZM52.166 23.823c-2.456 0-4.121-1.303-4.454-4.543h14.696c.041-.395.041-.908.041-1.303 0-6.4-4.204-10.785-10.324-10.785-6.287 0-10.658 4.425-10.658 10.785 0 6.478 4.455 10.784 10.99 10.784 4.58 0 8.41-2.251 9.992-6.834l-5.162-1.738c-1.04 2.607-2.706 3.634-5.12 3.634Zm-.041-12.009c1.78 0 3.538 1.023 4.121 2.991h-8.368c.541-1.928 2.217-2.99 4.247-2.99ZM75.2 23.823c-2.457 0-4.122-1.303-4.455-4.543h14.696c.042-.395.042-.908.042-1.303 0-6.4-4.205-10.785-10.325-10.785-6.287 0-10.658 4.425-10.658 10.785 0 6.478 4.455 10.784 10.991 10.784 4.58 0 8.41-2.251 9.992-6.834l-5.163-1.738c-1.04 2.607-2.706 3.634-5.12 3.634Zm-.042-12.009c1.78 0 3.538 1.023 4.121 2.991h-8.368c.541-1.928 2.218-2.99 4.247-2.99ZM11.541 35.136c8.004 0 11.488-2.596 11.488-6.49 0-3.696-3.525-6.174-10.244-6.174h-1.244c-2.032 0-5.9.073-5.9-1.107 0-1.337 3.163-1.213 5.403-1.213 5.971 0 10.077-2.281 10.077-6.018 0-1.612-.663-2.713-1.949-3.579 1.41-.275 2.779-.629 3.94-1.1l-1.698-4.082c-2.779 1.377-6.396 1.79-9.962 1.79-5.682 0-9.822 1.937-9.822 6.303 0 2.124.995 3.5 2.654 4.562C1.878 18.697 0 20.107 0 22.23c0 1.927 1.63 3.231 3.454 4.018-2.198.865-3.442 2.202-3.442 4.05 0 2.439 3.028 4.838 11.53 4.838Zm-.083-19.31c-2.612 0-3.857-.944-3.857-2.4 0-1.455 1.245-2.477 3.857-2.477 2.572 0 3.733 1.022 3.733 2.478 0 1.455-1.162 2.399-3.733 2.399Zm.042 15.18c-3.608 0-4.935-.629-4.935-1.77 0-1.14 1.327-1.77 4.935-1.77 3.608 0 4.893.63 4.893 1.77 0 1.141-1.285 1.77-4.893 1.77ZM31.294 12.359V28.799h-6.12V7.155h.916a5.204 5.204 0 0 1 5.204 5.204Z"/><path d="M34.913 15.019c1.522-.17 5.408-1.099 7.359-6.086a6.522 6.522 0 0 0-7.729-.91c-2.122 1.22-3.252 3.444-3.252 5.733v1.3h2.539c.362.002.723.003 1.083-.037Z"/></g><defs><clipPath id="a"><path fill="#fff" d="M0 0h140v36H0z"/></clipPath></defs></svg>