<svg width="36" height="36" fill="none" xmlns="http://www.w3.org/2000/svg"><g clip-path="url(#a)"><path d="M32.227 32.226c-5.03 5.032-23.424 5.032-28.455 0-5.032-5.031-5.03-23.423 0-28.452 5.03-5.03 23.425-5.03 28.455 0 5.03 5.03 5.03 23.423 0 28.452Z" fill="#F8F8F8"/><path d="M7.613 13.7a.345.345 0 0 1 .217-.168c.122-.035.249-.052.376-.05.127-.003.254.01.377.04a.69.69 0 0 1 .207.096c.052.042.09.098.113.16.031.137.044.278.04.418v4.437c0 .092-.003.184-.012.277a.67.67 0 0 1-.077.212c-.075.143-.282.217-.625.217-.377 0-.591-.1-.655-.298a1.279 1.279 0 0 1-.05-.416v-1.627H5.4v1.635c.002.092-.002.184-.01.277a.661.661 0 0 1-.076.212c-.075.143-.284.217-.625.217-.377 0-.593-.1-.657-.298a1.333 1.333 0 0 1-.05-.416v-4.448a1.985 1.985 0 0 1 .014-.274.604.604 0 0 1 .075-.213c.075-.145.283-.217.625-.217.377 0 .595.1.665.296.031.137.044.277.04.418v1.634h2.124v-1.644a2.432 2.432 0 0 1 .01-.274.655.655 0 0 1 .078-.204ZM12.34 13.402a2.952 2.952 0 0 1 2.931 2.984 3.062 3.062 0 0 1-.832 2.164 2.695 2.695 0 0 1-2.049.892 2.774 2.774 0 0 1-2.07-.88 2.914 2.914 0 0 1-.854-2.1 3.237 3.237 0 0 1 .24-1.247c.145-.365.364-.696.641-.974.266-.26.578-.47.921-.615a2.662 2.662 0 0 1 1.072-.224Zm-1.458 3.013a1.54 1.54 0 0 0 .46 1.158 1.423 1.423 0 0 0 2.056.01 1.52 1.52 0 0 0 .456-1.161 1.543 1.543 0 0 0-.46-1.17 1.457 1.457 0 0 0-1.03-.44 1.439 1.439 0 0 0-1.026.444 1.546 1.546 0 0 0-.454 1.166l-.002-.008ZM15.881 18.522a.77.77 0 0 1-.209-.462c0-.135.115-.316.345-.54a.608.608 0 0 1 .425-.188c.15 0 .358.133.624.399.091.105.2.194.322.261a.752.752 0 0 0 .376.125c.503 0 .754-.204.754-.61a.363.363 0 0 0-.206-.31c-.157-.09-.33-.15-.508-.178-.46-.09-.905-.25-1.318-.473a1.32 1.32 0 0 1-.509-.532 1.778 1.778 0 0 1-.205-.878 1.68 1.68 0 0 1 .525-1.23 1.934 1.934 0 0 1 1.432-.525 2.93 2.93 0 0 1 .875.13c.197.05.382.136.548.252l.2.153c.13.094.219.234.248.391a.882.882 0 0 1-.188.441c-.188.267-.377.401-.565.401a.819.819 0 0 1-.508-.24 1.307 1.307 0 0 0-.124-.104.795.795 0 0 0-.428-.104.72.72 0 0 0-.433.124.4.4 0 0 0-.173.345.409.409 0 0 0 .205.356c.154.099.327.163.508.188.225.037.447.086.665.149.228.061.45.143.665.243.217.11.396.285.51.5.143.27.213.573.203.878.007.313-.063.624-.203.904-.124.249-.312.46-.544.614a2.49 2.49 0 0 1-1.386.424c-.24 0-.48-.03-.714-.09a2.297 2.297 0 0 1-1.13-.728l-.079-.086ZM24.094 13.7a.349.349 0 0 1 .216-.168c.123-.035.25-.052.377-.05.127-.004.253.01.377.04.074.02.144.053.209.096.05.043.088.098.11.16.032.137.045.278.04.418v4.437c.002.092-.002.184-.011.277a.661.661 0 0 1-.075.212c-.076.143-.285.217-.626.217-.376 0-.593-.1-.657-.298a1.335 1.335 0 0 1-.049-.416v-1.627h-2.122v1.635c.002.092-.002.185-.013.277a.619.619 0 0 1-.075.212c-.076.143-.283.217-.626.217-.376 0-.593-.1-.657-.298a1.343 1.343 0 0 1-.047-.416v-4.448a2.402 2.402 0 0 1 .012-.274.646.646 0 0 1 .075-.213c.075-.145.284-.217.625-.217.377 0 .597.1.665.296.033.137.047.277.041.418v1.634h2.122v-1.644a1.973 1.973 0 0 1 .014-.274.603.603 0 0 1 .075-.204ZM28.82 13.402a2.954 2.954 0 0 1 2.934 2.984 3.064 3.064 0 0 1-.834 2.164 2.694 2.694 0 0 1-2.05.892 2.776 2.776 0 0 1-2.072-.88 2.915 2.915 0 0 1-.85-2.1 3.2 3.2 0 0 1 .242-1.247c.145-.365.363-.696.64-.974.266-.26.578-.468.92-.615a2.675 2.675 0 0 1 1.07-.224Zm-1.457 3.013a1.542 1.542 0 0 0 .461 1.158 1.42 1.42 0 0 0 2.054.01 1.524 1.524 0 0 0 .458-1.161 1.546 1.546 0 0 0-.461-1.17 1.454 1.454 0 0 0-1.03-.44 1.434 1.434 0 0 0-1.025.444 1.54 1.54 0 0 0-.457 1.166v-.008ZM31.872 12.784a.54.54 0 0 1 .144.409c-.001.068-.01.136-.027.203a.405.405 0 0 1-.25.284.702.702 0 0 1-.26.038.537.537 0 0 1-.39-.117.549.549 0 0 1-.147-.414.522.522 0 0 1 .138-.4.584.584 0 0 1 .403-.126.535.535 0 0 1 .39.123Zm-.101.721a.377.377 0 0 0 .103-.305.443.443 0 0 0-.088-.309.406.406 0 0 0-.3-.09.446.446 0 0 0-.299.079.4.4 0 0 0-.104.31.41.41 0 0 0 .093.304.428.428 0 0 0 .3.086.45.45 0 0 0 .295-.07v-.005Zm-.18-.42a.152.152 0 0 0-.103-.04.143.143 0 0 0-.101.04.136.136 0 0 0-.046.107.13.13 0 0 0 .047.108c.027.025.063.04.1.04a.119.119 0 0 0 .078-.025.097.097 0 0 1 .05-.023.074.074 0 0 1 .029 0 .15.15 0 0 1 .028.03c.018.02.029.044.032.07a.064.064 0 0 1-.034.047.29.29 0 0 1-.173.059.323.323 0 0 1-.304-.198.306.306 0 0 1-.022-.13.299.299 0 0 1 .09-.21.295.295 0 0 1 .22-.093.277.277 0 0 1 .189.064c.023.019.032.032.032.041a.116.116 0 0 1-.047.094.064.064 0 0 1-.036.015.079.079 0 0 1-.022.004h-.006ZM10.884 21.231v1.714c0 .126 0 .269.011.367h-.231l-.012-.247a.52.52 0 0 1-.482.279c-.342 0-.606-.29-.606-.721 0-.473.29-.763.634-.763a.481.481 0 0 1 .43.217v-.846h.256Zm-.258 1.24a.418.418 0 0 0-.013-.108.377.377 0 0 0-.377-.3c-.267 0-.425.234-.425.549 0 .286.14.523.42.523a.377.377 0 0 0 .376-.307.42.42 0 0 0 .013-.111l.006-.247ZM11.304 22.329c0-.166 0-.31-.011-.44h.225v.276h.014a.424.424 0 0 1 .391-.31.28.28 0 0 1 .074.009v.243a.41.41 0 0 0-.089 0 .36.36 0 0 0-.344.33.773.773 0 0 0-.012.12v.753h-.256l.008-.981ZM12.377 22.644a.455.455 0 0 0 .486.491.942.942 0 0 0 .393-.073l.044.188c-.15.06-.31.09-.471.087a.659.659 0 0 1-.699-.714c0-.43.253-.767.667-.767.461 0 .585.41.585.669.004.04.004.08 0 .12l-1.005-.001Zm.753-.189a.377.377 0 0 0-.358-.42.428.428 0 0 0-.395.42h.753ZM14.488 23.303l-.02-.18a.53.53 0 0 1-.434.212.403.403 0 0 1-.433-.407c0-.345.305-.531.853-.53v-.027a.294.294 0 0 0-.324-.328.692.692 0 0 0-.376.105l-.059-.171a.891.891 0 0 1 .467-.126c.433 0 .539.297.539.58v.53c-.002.115.005.229.022.342h-.235Zm-.038-.725c-.282 0-.6.045-.6.32a.23.23 0 0 0 .146.232c.03.012.064.017.097.015a.356.356 0 0 0 .342-.238.257.257 0 0 0 .015-.083v-.246ZM15.115 22.27c0-.146 0-.265-.011-.376h.226l.011.228h.01a.488.488 0 0 1 .69-.185.418.418 0 0 1 .155.208.564.564 0 0 1 .158-.189c.09-.068.2-.104.313-.1.188 0 .467.125.467.616v.83h-.252V22.5c0-.271-.1-.437-.31-.437a.333.333 0 0 0-.302.235.375.375 0 0 0-.021.128v.878h-.252v-.848c0-.224-.1-.39-.296-.39a.376.376 0 0 0-.34.377v.86h-.253l.007-1.031ZM18.147 23.043c.102.063.22.098.34.102.189 0 .275-.095.275-.211 0-.117-.073-.189-.263-.26-.256-.093-.377-.232-.377-.403a.44.44 0 0 1 .49-.416.705.705 0 0 1 .348.088l-.066.188a.543.543 0 0 0-.29-.082c-.15 0-.237.088-.237.188s.087.17.271.239c.245.094.377.218.377.43 0 .248-.189.423-.53.423a.812.812 0 0 1-.399-.096l.06-.19ZM19.653 21.48v.409h.377v.188h-.377v.764c0 .175.051.275.189.275.05 0 .1-.005.148-.017l.013.189a.689.689 0 0 1-.23.034.36.36 0 0 1-.278-.108.536.536 0 0 1-.1-.376v-.774h-.218v-.189h.218v-.34l.258-.055ZM21.1 23.303l-.021-.18h-.01a.53.53 0 0 1-.433.212.405.405 0 0 1-.433-.407c0-.345.303-.531.851-.53v-.027a.293.293 0 0 0-.322-.328.694.694 0 0 0-.376.105l-.057-.163a.883.883 0 0 1 .465-.127c.435 0 .54.298.54.58v.532a2.09 2.09 0 0 0 .023.34l-.228-.007Zm-.04-.725c-.28 0-.599.045-.599.32a.229.229 0 0 0 .243.247.356.356 0 0 0 .343-.238.319.319 0 0 0 .013-.082v-.247ZM22.026 21.48v.409h.377v.188h-.377v.764c0 .175.049.275.188.275a.644.644 0 0 0 .157-.002l.01.189a.668.668 0 0 1-.227.034.36.36 0 0 1-.279-.108.528.528 0 0 1-.1-.376v-.774h-.22v-.189h.22v-.34l.25-.07ZM22.973 21.49a.16.16 0 0 1-.32 0 .157.157 0 0 1 .1-.151.158.158 0 0 1 .062-.012.155.155 0 0 1 .158.162Zm-.288 1.813v-1.418h.25v1.417h-.25ZM24.655 22.585a.693.693 0 0 1-.707.753.675.675 0 0 1-.68-.73.693.693 0 0 1 .705-.753.674.674 0 0 1 .682.73Zm-1.13.015c0 .311.179.544.43.544.25 0 .43-.231.43-.551 0-.24-.12-.544-.425-.544s-.43.28-.43.551h-.005ZM24.98 22.27c0-.146 0-.265-.01-.376h.225l.015.234a.524.524 0 0 1 .47-.268c.197 0 .5.119.5.605v.838h-.256v-.82c0-.227-.087-.418-.33-.418a.365.365 0 0 0-.344.264.339.339 0 0 0-.019.12v.854h-.258l.008-1.032Z" fill="#BEBEBE"/></g><defs><clipPath id="a"><path fill="#fff" d="M0 0h36v36H0z"/></clipPath></defs></svg>