<svg xmlns="http://www.w3.org/2000/svg" width="104" height="36" fill="none"><g fill="#F8F8F8" clip-path="url(#a)"><path d="M9.433 12.865v2.68c0 1.629-.397 2.88-1.192 3.752-.794.875-1.97 1.31-3.524 1.31-1.556 0-2.73-.435-3.525-1.31C.397 18.425 0 17.174 0 15.544V5.072C0 3.438.397 2.185 1.192 1.31 1.986.437 3.162 0 4.717 0s2.73.437 3.524 1.31c.795.875 1.192 2.128 1.192 3.762v1.952H6.441V4.87c0-.731-.15-1.245-.448-1.539-.294-.298-.691-.448-1.192-.448-.497 0-.894.15-1.192.448-.3.294-.448.808-.448 1.539v10.878c0 .727.148 1.234.448 1.522.298.287.696.43 1.192.43.5 0 .898-.143 1.192-.43.298-.288.448-.795.448-1.522v-2.882h2.992ZM14.82.237h3.17v17.269h5.207v2.874H14.82V.237ZM38.264 20.379H35.07l-.54-3.652H30.64l-.55 3.652h-2.907L30.412.236h4.632l3.22 20.143Zm-7.218-6.39h3.051l-1.53-10.186-1.521 10.186ZM50.208 9.644l-1.15 10.735h-4.344L42.465.236h3.077l1.699 15.883L48.771.236h3.051l1.581 16 1.64-16h2.764L55.558 20.38h-4.2l-1.15-10.735ZM65.751 15.747c0 .727.148 1.24.448 1.539.298.3.695.448 1.192.448.5 0 .898-.148 1.192-.448.298-.298.448-.812.448-1.539V4.87c0-.731-.15-1.245-.448-1.539-.294-.298-.691-.448-1.192-.448-.497 0-.894.15-1.192.448-.3.294-.448.808-.448 1.539v10.878ZM62.59 5.072c0-1.634.41-2.887 1.234-3.762C64.646.437 65.836 0 67.39 0c1.555 0 2.743.437 3.567 1.31.828.875 1.243 2.128 1.243 3.762v10.472c0 1.63-.415 2.88-1.243 3.753-.824.875-2.012 1.31-3.567 1.31-1.555 0-2.745-.435-3.567-1.31-.824-.872-1.234-2.123-1.234-3.753V5.072ZM84.307 20.38a5.004 5.004 0 0 0-.11-.372 2.712 2.712 0 0 1-.101-.431 5.308 5.308 0 0 1-.06-.66c-.012-.27-.017-.608-.017-1.014v-3.161c0-.94-.164-1.602-.49-1.986-.321-.383-.85-.575-1.58-.575h-1.09v8.199h-3.17V.237h4.775c1.65 0 2.844.385 3.584 1.15.738.767 1.107 1.927 1.107 3.482V6.45c0 2.075-.69 3.436-2.07 4.083.805.327 1.356.862 1.656 1.606.298.74.448 1.635.448 2.688v3.11c0 .497.017.934.051 1.31.038.372.137.75.296 1.133h-3.23ZM80.858 3.11V9.3h1.234c.596 0 1.061-.153 1.395-.457.338-.308.507-.866.507-1.674V5.182c0-.727-.13-1.253-.389-1.58-.26-.326-.667-.49-1.225-.49h-1.522ZM96.868 12.35l-.98 1.843v6.187h-3.17V.237h3.17v8.774l4.141-8.774h3.17l-4.404 8.977 4.404 11.166h-3.255l-3.076-8.03ZM68.6 33.266h29.143v1.623H68.6v-1.623ZM6.681 33.266h29.14v1.623H6.682v-1.623ZM41.706 35.097l-.16.862h-.449l.82-4.285h.693l.82 4.285h-.473l-.17-.862h-1.081Zm.059-.414h.955l-.482-2.468-.473 2.468ZM44.908 31.673l.693 3.727.694-3.727h.44l-.804 4.285h-.701l-.812-4.285h.49ZM47.799 32.712c0-.332.078-.594.236-.786.163-.196.408-.296.736-.296.332 0 .579.1.744.296.162.192.245.454.245.786v2.215c0 .327-.083.59-.245.786-.165.192-.412.287-.744.287-.328 0-.573-.095-.736-.287-.158-.197-.236-.459-.236-.786v-2.215Zm.465 2.24c0 .193.042.345.127.457.084.108.21.16.38.16.18 0 .308-.053.389-.16.084-.112.127-.264.127-.457v-2.265c0-.197-.043-.349-.127-.456-.08-.106-.21-.161-.39-.161-.168 0-.295.055-.38.16-.084.108-.126.26-.126.457v2.265ZM51.874 31.63c.331 0 .576.1.735.296.156.199.237.46.237.786v.38h-.457v-.405c0-.197-.04-.349-.118-.456-.08-.106-.207-.161-.38-.161-.176 0-.305.055-.39.16-.08.108-.118.26-.118.457v2.265c0 .193.038.345.119.457.084.108.213.16.389.16.173 0 .3-.053.38-.16.078-.112.118-.264.118-.457v-.558h.457v.533c0 .327-.08.59-.237.786-.159.192-.404.287-.735.287-.328 0-.57-.095-.727-.287-.152-.197-.228-.459-.228-.786v-2.215c0-.162.016-.308.05-.44a.928.928 0 0 1 .178-.346.854.854 0 0 1 .304-.22c.118-.05.258-.076.423-.076ZM54.49 35.096l-.16.862h-.449l.82-4.285h.693l.82 4.285h-.473l-.17-.862H54.49Zm.06-.414h.954l-.481-2.468-.474 2.468ZM57.957 35.96v-3.847h-.794v-.44h2.062v.44h-.794v3.846h-.474ZM61.175 31.63c.325 0 .566.1.718.296.156.192.237.452.237.778v.118h-.448v-.144c0-.196-.04-.346-.119-.447-.08-.106-.203-.161-.372-.161-.175 0-.302.055-.38.16-.074.102-.11.25-.11.44 0 .158.034.296.102.414.072.119.162.228.27.33.106.101.222.2.347.296.122.097.238.2.346.313.106.114.195.242.262.388.072.148.11.32.11.516 0 .327-.08.59-.236.786-.159.192-.402.287-.727.287-.334 0-.58-.095-.736-.287-.152-.197-.228-.459-.228-.786v-.245h.448v.27c0 .199.038.351.118.457.085.108.212.16.38.16.174 0 .3-.053.381-.16.085-.106.127-.258.127-.457a.746.746 0 0 0-.11-.405 1.727 1.727 0 0 0-.27-.33 3.914 3.914 0 0 0-.339-.296 2.704 2.704 0 0 1-.346-.313 1.65 1.65 0 0 1-.262-.389 1.125 1.125 0 0 1-.11-.515c0-.332.076-.594.228-.786.156-.19.397-.288.718-.288Z"/></g><defs><clipPath id="a"><path fill="#fff" d="M0 0h104v36H0z"/></clipPath></defs></svg>