<svg width="39" height="36" fill="none" xmlns="http://www.w3.org/2000/svg"><g clip-path="url(#a)"><mask id="b" style="mask-type:luminance" maskUnits="userSpaceOnUse" x="0" y="0" width="39" height="36"><path d="M0 0h38.552v35.958H0V0Z" fill="#fff"/></mask><g mask="url(#b)"><path d="M19.454 0C13.778 0 9.16 4.618 9.16 10.295c0 3.158 1.449 6.047 3.993 8.006a2.207 2.207 0 0 0 2.114 2.84c1.279 0 2.206-.929 2.206-2.207a2.205 2.205 0 0 0-3.51-1.778c-2.168-1.69-3.402-4.163-3.402-6.86 0-4.905 3.99-8.896 8.894-8.896s8.894 3.99 8.894 8.894a8.914 8.914 0 0 1-1.513 4.991 8.633 8.633 0 0 1-3.91 3.203c-.762.31-1.059.323-1.157.328h-.036c-.413.024-.728-.07-.959-.289-.332-.313-.54-.924-.6-1.746 1.32-.752 2.68-1.996 3.71-3.408 1.636-2.243 2.475-4.755 2.19-6.553-.133-.842-.511-1.51-1.094-1.931-.873-.631-2.111-.64-3.47-.043A.963.963 0 1 0 22 6.16c.908-.416 1.694-.47 2.157-.136.277.2.456.542.53 1.015.226 1.422-.533 3.584-1.938 5.508-.932 1.278-2.152 2.393-3.317 3.043-1.137-.617-2.322-1.709-3.295-3.043-1.403-1.924-2.164-4.086-1.939-5.508.075-.473.254-.814.532-1.015.46-.333 1.218-.288 2.115.117a.97.97 0 0 0 .87.554.962.962 0 1 0-.351-1.857c-1.363-.6-2.576-.586-3.456.05-.582.422-.96 1.09-1.093 1.932-.285 1.799.554 4.31 2.19 6.553 1.092 1.497 2.445 2.734 3.765 3.45.08 1.23.428 2.144 1.04 2.722.475.448 1.078.674 1.796.674.067 0 .135-.002.205-.006h.02c.19-.008.636-.028 1.62-.43a10.026 10.026 0 0 0 4.546-3.718 10.313 10.313 0 0 0 1.75-5.773C29.75 4.618 25.132 0 19.455 0Zm-4.188 18.128a.806.806 0 0 1 .805.805c0 .388-.211.804-.805.804a.806.806 0 0 1-.569-1.374.806.806 0 0 1 .57-.235ZM3.926 25.73h.018c.132-.447.578-1.854.748-2.475.033-.1.05-.205.053-.31 0-.088-.053-.146-.276-.146a.04.04 0 0 1-.044-.034c0-.024.025-.034.083-.034.247 0 .451.015.495.015.034 0 .242-.015.393-.015.043 0 .068.01.068.03 0 .019-.015.038-.044.038a.635.635 0 0 0-.165.025c-.146.053-.223.257-.315.524-.214.616-.704 2.16-.893 2.703-.127.358-.151.417-.204.417-.054 0-.078-.063-.146-.253l-.95-2.698h-.01c-.175.467-.84 2.242-1.015 2.694-.077.203-.102.257-.16.257-.048 0-.073-.054-.17-.384L.53 23.208c-.078-.257-.14-.33-.267-.379a.793.793 0 0 0-.218-.029c-.025 0-.044-.005-.044-.034s.03-.034.078-.034c.252 0 .519.015.572.015.044 0 .257-.015.5-.015.068 0 .087.015.087.034 0 .03-.024.034-.048.034a.476.476 0 0 0-.19.03.127.127 0 0 0-.063.116c0 .063.044.233.093.446.072.31.577 2.092.65 2.349h.01l1.028-2.765c.073-.2.092-.224.121-.224.03 0 .063.063.122.228l.965 2.75Zm2.76-2.878c.058-.16.077-.189.106-.189.03 0 .049.024.107.175.073.184.835 2.188 1.13 2.926.175.431.316.51.418.538a.63.63 0 0 0 .194.03c.029 0 .048.004.048.029 0 .024-.043.038-.097.038-.072 0-.427 0-.761-.01-.093-.004-.146-.004-.146-.033 0-.02.015-.03.034-.034.03-.01.058-.054.03-.131l-.452-1.194a.042.042 0 0 0-.044-.029H6.21a.05.05 0 0 0-.049.039l-.291.859c-.04.104-.063.213-.068.325 0 .097.102.14.184.14h.049c.034 0 .048.01.048.03 0 .029-.029.038-.072.038-.117 0-.325-.014-.379-.014-.053 0-.32.014-.548.014-.063 0-.092-.01-.092-.038 0-.02.02-.03.044-.03.033 0 .101-.005.14-.01.223-.028.32-.213.408-.455l1.103-3.014Zm.504 1.94c.024 0 .024-.014.02-.033l-.461-1.31c-.025-.073-.049-.073-.073 0l-.427 1.31c-.01.024 0 .034.014.034h.927Zm1.93 1.545c-.068-.034-.073-.054-.073-.185 0-.242.02-.436.024-.514.005-.053.015-.078.04-.078.023 0 .033.015.033.054-.001.06.003.12.015.18.072.358.393.494.718.494.465 0 .693-.335.693-.645 0-.335-.14-.529-.558-.873l-.218-.18c-.514-.422-.63-.723-.63-1.053 0-.52.388-.873 1.004-.873.152-.002.303.014.451.049a.79.79 0 0 0 .17.024c.039 0 .048.01.048.034s-.02.184-.02.514c0 .078-.009.112-.033.112s-.034-.025-.039-.064a.856.856 0 0 0-.063-.242c-.03-.053-.16-.257-.606-.257-.335 0-.597.208-.597.563 0 .276.126.451.592.815l.136.107c.572.451.708.752.708 1.14a1.004 1.004 0 0 1-.412.805c-.21.146-.471.204-.733.204a1.47 1.47 0 0 1-.65-.131Zm6.008-1.345c0 .466 0 .85.024 1.053.015.14.044.248.19.267.072.01.145.017.218.02.029 0 .038.014.038.029 0 .024-.024.038-.077.038-.267 0-.573-.014-.597-.014-.024 0-.33.014-.475.014-.054 0-.078-.01-.078-.038 0-.015.01-.03.039-.03a.737.737 0 0 0 .145-.019c.097-.02.122-.126.141-.267.024-.204.024-.587.024-1.053v-.51a.029.029 0 0 0-.008-.02.028.028 0 0 0-.02-.008h-2.07a.027.027 0 0 0-.01.007.026.026 0 0 0-.006.01.026.026 0 0 0-.001.012v.51c0 .465 0 .848.024 1.052.015.14.044.248.19.267.072.01.145.017.218.02.029 0 .039.014.039.029 0 .024-.025.038-.078.038-.267 0-.572-.014-.597-.014-.024 0-.33.014-.475.014-.054 0-.078-.01-.078-.038 0-.015.01-.03.039-.03a.737.737 0 0 0 .146-.019c.097-.02.12-.126.14-.267.024-.204.024-.587.024-1.053v-.854c0-.757 0-.893-.01-1.048-.009-.165-.048-.243-.208-.277a.912.912 0 0 0-.165-.014c-.02 0-.039-.01-.039-.03 0-.028.025-.038.078-.038.218 0 .524.015.548.015.024 0 .33-.015.476-.015.053 0 .077.01.077.039 0 .02-.02.029-.039.029a.718.718 0 0 0-.12.014c-.132.025-.17.107-.18.277-.01.155-.01.291-.01 1.048v.102l.001.012a.025.025 0 0 0 .006.01.025.025 0 0 0 .022.007h2.069a.025.025 0 0 0 .01-.007.026.026 0 0 0 .007-.022v-.102c0-.757 0-.893-.01-1.048-.009-.165-.048-.243-.208-.277a.912.912 0 0 0-.165-.014c-.02 0-.039-.01-.039-.03 0-.028.024-.038.078-.038.218 0 .524.015.548.015.024 0 .33-.015.476-.015.053 0 .077.01.077.039 0 .02-.02.029-.039.029a.719.719 0 0 0-.12.014c-.132.025-.17.107-.18.277-.01.155-.01.291-.01 1.048v.854Zm2.134 0c0 .466 0 .85.025 1.053.014.14.043.248.189.267.072.01.145.017.218.02.03 0 .04.014.04.029 0 .024-.025.038-.079.038-.266 0-.572-.014-.596-.014-.025 0-.33.014-.476.014-.053 0-.077-.01-.077-.038 0-.015.01-.03.038-.03a.736.736 0 0 0 .146-.019c.097-.02.121-.126.14-.267.025-.204.025-.587.025-1.053v-.854c0-.757 0-.893-.01-1.048-.01-.165-.058-.248-.165-.272a.641.641 0 0 0-.15-.02c-.02 0-.039-.009-.039-.028 0-.03.024-.04.078-.04.16 0 .465.015.49.015.024 0 .33-.014.475-.014.053 0 .078.01.078.039 0 .02-.02.029-.04.029a.716.716 0 0 0-.12.014c-.131.025-.17.107-.18.277-.01.155-.01.291-.01 1.048v.854Zm1.859.748c.01.397.058.524.19.562.079.02.16.029.242.03.024 0 .038.01.038.029 0 .029-.029.038-.087.038-.276 0-.47-.014-.514-.014-.044 0-.247.014-.466.014-.048 0-.078-.005-.078-.038 0-.02.015-.03.04-.03.067 0 .134-.01.198-.029.121-.034.146-.174.146-.616l.005-2.78c0-.19.014-.243.053-.243s.121.107.17.155c.073.083.796.864 1.543 1.665.48.514 1.009 1.106 1.164 1.266l-.053-2.465c-.005-.315-.04-.422-.19-.46a1.3 1.3 0 0 0-.237-.025c-.034 0-.039-.015-.039-.034 0-.03.039-.034.097-.034.218 0 .451.015.505.015.053 0 .213-.015.412-.015.053 0 .087.005.087.034 0 .02-.02.034-.053.034a.428.428 0 0 0-.117.014c-.16.034-.179.141-.179.432l-.01 2.844c0 .32-.01.344-.043.344-.034 0-.097-.053-.355-.31a56.946 56.946 0 0 1-1.266-1.315 100.23 100.23 0 0 1-1.266-1.393l.063 2.325Zm6.695-.578c0-.393-.024-.446-.218-.5a.904.904 0 0 0-.165-.014c-.02 0-.039-.01-.039-.03 0-.028.025-.038.078-.038.218 0 .524.015.548.015.024 0 .33-.015.476-.015.053 0 .077.01.077.039 0 .02-.02.029-.039.029a.716.716 0 0 0-.12.014c-.132.025-.17.107-.18.277-.01.155-.01.3-.01.505v.543c0 .218-.005.228-.063.262-.31.165-.747.218-1.029.218-.369 0-1.058-.048-1.596-.519-.296-.257-.577-.776-.577-1.383 0-.776.378-1.325.81-1.596.432-.272.917-.306 1.29-.306.25.005.498.033.743.082.13.027.26.044.393.049.048.005.058.024.058.044a6.144 6.144 0 0 0-.034.689c0 .077-.01.102-.044.102-.024 0-.029-.03-.034-.073a.746.746 0 0 0-.101-.32c-.122-.185-.515-.393-1.14-.393-.306 0-.67.029-1.039.32-.281.223-.48.665-.48 1.233 0 .684.344 1.179.514 1.344a1.768 1.768 0 0 0 1.271.519c.175 0 .427-.03.553-.102a.176.176 0 0 0 .097-.17v-.825Zm2.911-.17c0 .466 0 .85.024 1.053.015.14.044.248.19.267.072.01.145.017.218.02.03 0 .039.014.039.029 0 .024-.024.038-.078.038-.267 0-.572-.014-.597-.014-.024 0-.33.014-.475.014-.053 0-.078-.01-.078-.038 0-.015.01-.03.04-.03a.736.736 0 0 0 .145-.019c.097-.02.121-.126.14-.267.025-.204.025-.587.025-1.053v-2.051l-.718.01c-.301.004-.418.038-.496.154a.837.837 0 0 0-.082.15c-.015.04-.029.05-.048.05-.02 0-.024-.015-.024-.044 0-.049.096-.466.106-.505.01-.029.03-.092.048-.092.035 0 .083.049.214.058.14.015.325.024.383.024h1.82c.115.003.23-.006.344-.024.073-.01.117-.024.136-.024.02 0 .024.029.024.058 0 .146-.014.48-.014.534 0 .043-.015.063-.034.063-.02 0-.034-.015-.039-.083l-.005-.053c-.014-.145-.13-.257-.596-.267l-.612-.01v2.052Zm3.532-2.329c1.092 0 1.907.689 1.907 1.82 0 1.087-.766 1.984-1.936 1.984-1.33 0-1.882-1.033-1.882-1.907 0-.786.572-1.897 1.911-1.897Zm.102 3.62c.437 0 1.34-.252 1.34-1.664 0-1.165-.71-1.791-1.476-1.791-.81 0-1.416.534-1.416 1.597-.002 1.13.677 1.858 1.55 1.858h.002Zm2.964-.543c.01.397.059.524.19.562.08.02.16.03.242.03.025 0 .04.01.04.029 0 .029-.03.038-.088.038-.277 0-.47-.014-.515-.014-.043 0-.247.014-.466.014-.048 0-.077-.005-.077-.038 0-.02.014-.03.038-.03.068 0 .135-.01.2-.029.12-.034.145-.174.145-.616l.005-2.78c0-.19.015-.243.054-.243.038 0 .12.107.17.155.072.083.795.864 1.542 1.665.48.514 1.01 1.106 1.165 1.266l-.054-2.465c-.005-.315-.038-.422-.189-.46a1.3 1.3 0 0 0-.238-.025c-.034 0-.038-.015-.038-.034 0-.03.038-.034.097-.034.218 0 .45.015.504.015.054 0 .214-.015.413-.015.053 0 .087.005.087.034 0 .02-.02.034-.053.034a.428.428 0 0 0-.117.014c-.16.034-.18.141-.18.432l-.01 2.844c0 .32-.009.344-.043.344-.034 0-.097-.053-.354-.31a56.64 56.64 0 0 1-1.266-1.315 100.23 100.23 0 0 1-1.267-1.393l.063 2.325Zm-31.21 5.055c-.471-.422-.588-.975-.588-1.436 0-.325.112-.893.544-1.325.29-.291.732-.52 1.48-.52.235 0 .47.02.703.059.163.034.329.058.495.073.053.005.063.024.063.053 0 .039-.015.097-.024.272-.01.16-.01.427-.015.5-.005.072-.014.101-.043.101-.03 0-.04-.034-.04-.102 0-.189-.077-.388-.203-.494-.17-.146-.543-.277-.97-.277-.646 0-.947.19-1.116.354-.354.34-.437.772-.437 1.267 0 .927.713 1.776 1.752 1.776.363 0 .65-.044.844-.243.102-.107.165-.32.18-.407.009-.054.019-.073.048-.073s.034.034.034.073a5.028 5.028 0 0 1-.107.62c-.03.093-.039.103-.126.141-.194.078-.563.112-.873.112-.728 0-1.218-.179-1.602-.524Zm5.181-3.28c1.092 0 1.907.689 1.907 1.82 0 1.086-.767 1.984-1.936 1.984-1.33 0-1.882-1.033-1.882-1.907 0-.786.57-1.897 1.911-1.897Zm.102 3.62c.437 0 1.34-.253 1.34-1.665 0-1.164-.71-1.79-1.476-1.79-.81 0-1.417.533-1.417 1.596 0 1.13.68 1.859 1.553 1.859Zm2.964-.544c.01.398.058.524.19.563.079.019.16.029.242.03.024 0 .039.009.039.028 0 .03-.03.04-.088.04-.276 0-.47-.015-.514-.015-.043 0-.247.014-.466.014-.048 0-.077-.005-.077-.039 0-.02.014-.029.039-.029.067 0 .134-.01.198-.029.122-.034.146-.175.146-.616l.005-2.78c0-.19.014-.243.053-.243.04 0 .122.107.17.155.073.082.796.864 1.543 1.665.48.514 1.01 1.106 1.164 1.266l-.053-2.465c-.005-.316-.039-.422-.19-.461a1.29 1.29 0 0 0-.237-.024c-.034 0-.039-.015-.039-.034 0-.03.039-.034.097-.034.219 0 .452.014.505.014.053 0 .213-.014.412-.014.054 0 .088.005.088.034 0 .019-.02.034-.054.034a.431.431 0 0 0-.116.014c-.16.034-.18.14-.18.432l-.01 2.844c0 .32-.01.344-.043.344-.034 0-.097-.053-.354-.31a56.633 56.633 0 0 1-1.267-1.315 101.454 101.454 0 0 1-1.266-1.393l.063 2.324Zm4.423.204c-.47-.422-.587-.975-.587-1.436 0-.325.112-.893.544-1.325.29-.291.732-.52 1.48-.52.235 0 .47.02.703.059.163.034.329.058.495.073.053.005.063.024.063.053 0 .039-.015.097-.024.272-.01.16-.01.427-.015.5-.005.072-.014.101-.043.101-.03 0-.04-.034-.04-.102 0-.189-.077-.388-.203-.494-.17-.146-.543-.277-.97-.277-.646 0-.947.19-1.116.354-.354.34-.437.772-.437 1.267 0 .927.713 1.776 1.752 1.776.363 0 .65-.044.844-.243.102-.107.165-.32.18-.407.009-.054.019-.073.048-.073s.034.034.034.073a5.02 5.02 0 0 1-.107.62c-.03.093-.039.103-.126.141-.194.078-.563.112-.873.112-.728 0-1.217-.179-1.602-.524Zm4.281-.95c0 .465 0 .848.024 1.052.015.14.044.247.19.267.072.01.145.017.218.02.03 0 .039.014.039.028 0 .024-.024.04-.078.04-.267 0-.572-.015-.597-.015-.024 0-.33.014-.475.014-.053 0-.078-.01-.078-.039 0-.014.01-.029.04-.029a.745.745 0 0 0 .145-.02c.097-.019.12-.125.14-.266.025-.204.025-.587.025-1.053v-.854c0-.757 0-.893-.01-1.048-.01-.165-.058-.248-.165-.272a.642.642 0 0 0-.15-.02c-.02 0-.04-.01-.04-.029 0-.029.025-.038.078-.038.16 0 .466.014.49.014.025 0 .33-.014.476-.014.053 0 .078.01.078.038 0 .02-.02.03-.04.03a.727.727 0 0 0-.12.014c-.132.024-.17.107-.18.277-.01.155-.01.29-.01 1.048v.854Zm1.728-.855c0-.757 0-.893-.01-1.048-.01-.165-.049-.243-.209-.277a.912.912 0 0 0-.165-.014c-.02 0-.038-.01-.038-.03 0-.029.024-.038.077-.038.112 0 .243 0 .35.005l.198.01c.034 0 1 0 1.111-.006.07-.002.14-.01.21-.024.023-.005.043-.024.067-.024.015 0 .02.02.02.043 0 .034-.025.093-.04.229-.004.048-.014.261-.024.32-.005.024-.014.053-.034.053-.029 0-.038-.024-.038-.063 0-.06-.01-.118-.03-.175-.034-.077-.082-.136-.344-.165-.082-.01-.611-.014-.665-.014-.02 0-.029.014-.029.048v1.34c0 .034.005.048.03.048.062 0 .66 0 .77-.01.112-.009.185-.019.229-.067.034-.039.053-.063.072-.063.02 0 .025.01.025.039 0 .029-.025.111-.039.271-.01.097-.02.277-.02.31 0 .035 0 .093-.033.093-.025 0-.034-.02-.034-.044a.496.496 0 0 0-.02-.16c-.02-.068-.063-.15-.252-.17a12.517 12.517 0 0 0-.707-.022.03.03 0 0 0-.02.032v.427c0 .165-.006.728 0 .83.014.334.086.398.562.398.126 0 .34 0 .466-.054.126-.053.184-.15.218-.35.01-.053.02-.072.044-.072.024 0 .029.039.029.073 0 .034-.039.369-.063.47-.034.127-.073.127-.262.127-.364 0-.63-.01-.82-.015-.19-.005-.306-.014-.379-.014-.01 0-.092 0-.194.004-.102.005-.208.01-.281.01-.053 0-.078-.01-.078-.039 0-.014.01-.029.04-.029a.744.744 0 0 0 .145-.02c.097-.019.121-.125.14-.266.025-.204.025-.587.025-1.053v-.854Zm2.96 0c0-.757 0-.893-.01-1.048-.01-.165-.049-.243-.209-.277a.914.914 0 0 0-.165-.014c-.02 0-.04-.01-.04-.03 0-.029.025-.038.079-.038.218 0 .524.014.548.014.053 0 .422-.014.573-.014.305 0 .63.029.887.213a.85.85 0 0 1 .335.66c0 .359-.15.718-.587 1.121.398.51.728.942 1.01 1.242.261.277.47.33.591.35.063.01.126.014.19.014.024 0 .043.015.043.03 0 .028-.029.038-.116.038h-.345c-.271 0-.393-.024-.519-.092-.209-.112-.378-.35-.655-.713-.204-.267-.432-.592-.529-.718a.077.077 0 0 0-.063-.03l-.597-.01c-.024 0-.034.015-.034.04v.116c0 .466 0 .85.025 1.053.014.14.043.247.189.267.072.01.145.017.218.02.03 0 .04.014.04.028 0 .024-.025.04-.079.04-.266 0-.572-.015-.596-.015-.005 0-.31.014-.456.014-.054 0-.078-.01-.078-.039 0-.014.01-.029.039-.029a.743.743 0 0 0 .145-.02c.097-.019.122-.125.141-.266.024-.204.024-.587.024-1.053v-.854Zm.387.422a.063.063 0 0 0 .034.058c.073.044.296.078.51.078a.63.63 0 0 0 .364-.092c.17-.117.296-.379.296-.748 0-.606-.32-.97-.84-.97a1.473 1.473 0 0 0-.325.029.06.06 0 0 0-.029.023.06.06 0 0 0-.01.035v1.587Zm5.648.602c0-.393-.025-.447-.219-.5a.903.903 0 0 0-.165-.014c-.02 0-.039-.01-.039-.03 0-.029.025-.038.078-.038.218 0 .524.014.548.014.025 0 .33-.014.476-.014.053 0 .077.01.077.038 0 .02-.019.03-.038.03a.716.716 0 0 0-.122.014c-.13.024-.17.107-.18.277-.009.155-.009.3-.009.504v.544c0 .218-.005.228-.063.262-.31.165-.747.218-1.029.218-.368 0-1.057-.049-1.596-.52-.296-.256-.577-.775-.577-1.382 0-.776.378-1.325.81-1.597.432-.271.917-.305 1.29-.305.25.005.498.033.743.082.13.027.26.043.393.049.048.005.058.024.058.043a6.144 6.144 0 0 0-.034.69c0 .077-.01.101-.043.101-.025 0-.03-.029-.034-.073a.746.746 0 0 0-.102-.32c-.122-.184-.515-.393-1.14-.393-.306 0-.67.03-1.039.32-.281.224-.48.666-.48 1.233 0 .684.344 1.18.514 1.344a1.764 1.764 0 0 0 1.271.52c.175 0 .427-.03.553-.102a.176.176 0 0 0 .098-.17v-.825Zm1.877-1.024c0-.757 0-.893-.01-1.048-.01-.165-.048-.243-.208-.277a.913.913 0 0 0-.165-.014c-.02 0-.04-.01-.04-.03 0-.029.025-.038.079-.038.11 0 .242 0 .35.005l.198.01c.034 0 1 0 1.111-.006.07-.002.14-.01.209-.024.024-.005.043-.024.068-.024.014 0 .019.02.019.043 0 .034-.024.093-.039.229-.005.048-.014.261-.024.32-.005.024-.015.053-.034.053-.03 0-.039-.024-.039-.063a.52.52 0 0 0-.029-.175c-.034-.077-.082-.136-.344-.165-.083-.01-.612-.014-.665-.014-.02 0-.03.014-.03.048v1.34c0 .034.006.048.03.048.063 0 .66 0 .771-.01.112-.009.185-.019.228-.067.034-.039.054-.063.073-.063.02 0 .024.01.024.039 0 .029-.024.111-.038.271-.01.097-.02.277-.02.31 0 .035 0 .093-.034.093-.024 0-.034-.02-.034-.044a.498.498 0 0 0-.02-.16c-.019-.068-.062-.15-.252-.17a12.517 12.517 0 0 0-.707-.022.031.031 0 0 0-.019.018.03.03 0 0 0-.001.014v.427c0 .165-.005.728 0 .83.014.334.087.398.563.398.126 0 .34 0 .465-.054.127-.053.185-.15.219-.35.01-.053.02-.072.043-.072.025 0 .03.039.03.073 0 .034-.04.369-.064.47-.034.127-.072.127-.262.127-.363 0-.63-.01-.82-.015-.189-.005-.305-.014-.378-.014-.01 0-.092 0-.194.004-.102.005-.208.01-.281.01-.054 0-.078-.01-.078-.039 0-.014.01-.029.04-.029a.751.751 0 0 0 .145-.02c.097-.019.121-.125.14-.266.025-.204.025-.587.025-1.053v-.854ZM.678 32.771h.914l.746 1.21.745-1.21h.915v3.125h-.86V34.1l-.8 1.223H2.32l-.795-1.218v1.79H.678v-3.124Zm3.784 0h2.513v.732H5.32v.477h1.5v.683h-1.5v.496h1.679v.737H4.462V32.77Zm2.893 0h1.21c1.111 0 1.758.642 1.758 1.544v.01c0 .9-.656 1.57-1.776 1.57H7.355v-3.124Zm.866.763v1.594h.353c.522 0 .866-.286.866-.79v-.01c0-.5-.344-.794-.866-.794H8.22Zm2.486-.763h.866v3.125h-.866V32.77Zm1.246 1.572v-.009c0-.91.696-1.625 1.642-1.625.638 0 1.049.268 1.325.648l-.651.501c-.179-.219-.384-.366-.683-.366-.436 0-.745.375-.745.83v.009c0 .469.308.834.745.834.326 0 .518-.15.705-.379l.65.466c-.294.406-.691.706-1.378.706-.892 0-1.61-.683-1.61-1.615Zm4.33-1.595h.834l1.33 3.148h-.928l-.223-.563h-1.21l-.222.563h-.907l1.325-3.148Zm.758 1.911-.348-.884-.353.884h.701Zm1.62-1.888h.866v2.365h1.514v.76h-2.378l-.002-3.125Zm3.71 1.572v-.009c0-.91.713-1.625 1.678-1.625.549 0 .937.166 1.267.451l-.509.616c-.223-.187-.442-.294-.754-.294-.45 0-.799.375-.799.852v.01c0 .508.353.87.848.87.214 0 .375-.045.5-.13v-.379h-.611v-.636h1.43v1.402c-.38.319-.862.49-1.358.485-.97.002-1.693-.668-1.693-1.613Zm3.445-1.572h1.478c.477 0 .808.125 1.019.334.183.183.277.42.277.728v.009c0 .482-.255.799-.643.964l.744 1.09h-.995l-.63-.946h-.383v.946h-.867V32.77Zm1.442 1.5c.291 0 .465-.143.465-.37v-.01c0-.25-.183-.375-.47-.375h-.57v.754h.575Zm1.576.072v-.009c0-.897.723-1.625 1.687-1.625.964 0 1.678.72 1.678 1.617v.008c0 .897-.723 1.625-1.687 1.625-.964 0-1.678-.72-1.678-1.616Zm2.474 0v-.009c0-.455-.321-.843-.798-.843-.478 0-.795.383-.795.835v.008c0 .451.326.844.803.844.478 0 .793-.385.793-.835h-.003Zm1.213.182v-1.754h.873v1.736c0 .45.228.665.576.665s.582-.205.582-.643v-1.758h.873v1.732c0 1.004-.575 1.45-1.464 1.45-.888 0-1.44-.45-1.44-1.428Zm3.332-1.754h1.343c.786 0 1.295.406 1.295 1.093v.009c0 .741-.567 1.13-1.34 1.13h-.434v.893h-.864V32.77Zm1.28 1.552c.304 0 .496-.165.496-.41v-.006c0-.268-.191-.407-.5-.407h-.412v.825l.417-.002Z" fill="#F8F8F8"/></g></g><defs><clipPath id="a"><path fill="#fff" d="M0 0h38.571v36H0z"/></clipPath></defs></svg>