<svg width="167" height="36" fill="none" xmlns="http://www.w3.org/2000/svg"><g clip-path="url(#a)" fill="#F8F8F8"><path d="M166.803 23.066a4.483 4.483 0 1 1-8.967 0 4.483 4.483 0 0 1 8.967 0ZM19.473 17.927c0 2.773-.915 5.116-2.743 7.03-1.829 1.914-4.154 2.872-6.976 2.872S4.6 26.87 2.76 24.957C.92 23.043 0 20.7 0 17.927V0h4.897v10.233c1.399-1.471 3.239-2.207 5.52-2.207 2.504 0 4.64.968 6.405 2.906 1.767 1.939 2.65 4.271 2.65 6.995Zm-4.859.036c0-1.546-.473-2.839-1.418-3.883-.944-1.043-2.091-1.565-3.44-1.565-1.35 0-2.498.534-3.441 1.602-.945 1.067-1.418 2.35-1.418 3.846 0 1.495.472 2.731 1.418 3.772.945 1.043 2.091 1.564 3.44 1.564 1.35 0 2.497-.515 3.441-1.546.945-1.03 1.418-2.294 1.418-3.792v.002ZM39.348 17.927v9.46h-4.601v-1.988c-1.448 1.595-3.374 2.394-5.78 2.394-2.405 0-4.644-.964-6.423-2.89-1.78-1.927-2.669-4.252-2.669-6.974 0-2.723.92-5.16 2.761-7.086 1.84-1.926 4.171-2.889 6.993-2.889s5.147.963 6.976 2.89c1.828 1.926 2.741 4.288 2.741 7.085l.002-.002Zm-4.859.036c0-1.495-.473-2.779-1.416-3.846-.945-1.068-2.091-1.602-3.44-1.602-1.35 0-2.498.522-3.443 1.565-.945 1.045-1.416 2.337-1.416 3.883 0 1.546.471 2.76 1.416 3.792.944 1.03 2.091 1.546 3.442 1.546 1.35 0 2.496-.521 3.441-1.564.945-1.043 1.416-2.301 1.416-3.773v-.001ZM51.607 8.062v4.564a6.256 6.256 0 0 0-1.141-.11c-1.227 0-2.203.355-2.926 1.068-.725.712-1.086 1.655-1.086 2.834v10.97h-4.859v-10.97c0-2.504.748-4.54 2.245-6.11 1.496-1.57 3.558-2.355 6.184-2.355.515 0 1.043.037 1.583.11v-.001ZM57.274 8.43v21.276c0 4.122-1.988 6.182-5.963 6.182-.565 0-1.178-.049-1.84-.145v-4.307c1.964.196 2.944-.564 2.944-2.282V8.432h4.859V8.43Zm.525-5.446a2.984 2.984 0 1 1-5.968 0 2.984 2.984 0 0 1 5.968 0ZM77.924 17.927v9.46h-4.601v-1.988c-1.45 1.595-3.374 2.394-5.78 2.394-2.405 0-4.644-.964-6.423-2.89-1.78-1.927-2.669-4.252-2.669-6.974 0-2.723.92-5.16 2.761-7.086 1.84-1.926 4.171-2.889 6.993-2.889s5.148.963 6.976 2.89c1.828 1.926 2.741 4.288 2.741 7.085l.002-.002Zm-4.859.036c0-1.495-.473-2.779-1.417-3.846-.945-1.068-2.092-1.602-3.443-1.602-1.35 0-2.497.522-3.44 1.565-.945 1.045-1.418 2.337-1.418 3.883 0 1.546.471 2.76 1.418 3.792.944 1.03 2.091 1.546 3.44 1.546 1.35 0 2.497-.521 3.443-1.564.944-1.043 1.417-2.301 1.417-3.773v-.001ZM99.31 17.927c0 2.773-.914 5.116-2.742 7.03-1.828 1.914-4.153 2.872-6.975 2.872s-5.154-.958-6.994-2.872c-1.84-1.914-2.76-4.257-2.76-7.03V0h4.895v10.233c1.398-1.471 3.239-2.207 5.522-2.207 2.502 0 4.638.968 6.406 2.906 1.765 1.939 2.65 4.271 2.65 6.995h-.002Zm-4.859.036c0-1.546-.473-2.839-1.416-3.883-.945-1.043-2.092-1.565-3.442-1.565-1.351 0-2.498.534-3.441 1.602-.945 1.067-1.418 2.35-1.418 3.846 0 1.495.473 2.731 1.418 3.772.944 1.043 2.091 1.564 3.44 1.564 1.35 0 2.498-.515 3.443-1.546.945-1.03 1.416-2.294 1.416-3.792v.002ZM117.604 19.36c0 2.455-.786 4.48-2.355 6.075-1.571 1.596-3.633 2.393-6.184 2.393s-4.656-.78-6.166-2.337c-1.509-1.557-2.264-3.601-2.264-6.129V8.432h4.858V19.51c0 2.406 1.19 3.607 3.571 3.607 1.08 0 1.963-.338 2.649-1.012.687-.675 1.031-1.54 1.031-2.595V8.43h4.858v10.931l.002-.001ZM119.738 19.434V0h4.896v19.434c0 2.48 1.202 3.643 3.607 3.497v4.417c-.418.05-.834.075-1.252.075-2.331 0-4.136-.738-5.411-2.21-1.227-1.398-1.84-3.324-1.84-5.779ZM128.684 19.434V0h4.895v19.434c0 2.48 1.202 3.643 3.608 3.497v4.417c-.417.05-.835.075-1.251.075-2.331 0-4.136-.738-5.412-2.21-1.228-1.398-1.84-3.324-1.84-5.779ZM150.547 21.349h5.189c-.564 1.965-1.656 3.534-3.276 4.711-1.619 1.178-3.582 1.767-5.888 1.767-2.7 0-4.995-.964-6.883-2.89-1.889-1.927-2.834-4.264-2.834-7.011 0-2.748.949-5.1 2.852-7.05 1.901-1.95 4.189-2.926 6.865-2.926 2.331 0 4.342.687 6.037 2.06 1.74 1.448 2.834 3.411 3.275 5.89l-13.397 5.63c1.006 1.351 2.356 2.025 4.049 2.025 1.89 0 3.227-.736 4.012-2.208l-.001.002Zm-9.165-3.682 8.908-3.755c-.933-1.127-2.186-1.693-3.755-1.693-1.424 0-2.626.51-3.608 1.527-.981 1.019-1.498 2.326-1.545 3.92v.001Z"/></g><defs><clipPath id="a"><path fill="#fff" d="M0 0h166.909v36H0z"/></clipPath></defs></svg>