<svg xmlns="http://www.w3.org/2000/svg" width="160" height="40" fill="none"><path fill="#F8F8F8" d="M11.845 6.23H3.322v29.432h8.523V6.23ZM32.087 6.23h-4.261v29.432h8.522V10.495a4.264 4.264 0 0 0-4.261-4.265ZM19.73 6.23h-4.262v29.432h8.523V10.495A4.264 4.264 0 0 0 19.73 6.23Z"/><path fill="#F8F8F8" d="M14.17 34.013H5.647a.29.29 0 0 1-.29-.29V4.29c0-.16.13-.291.29-.291h8.523c.16 0 .29.13.29.29v29.433c0 .16-.13.29-.29.29Zm-8.232-.58h7.941V4.58H5.938v28.851ZM38.672 34.013H30.15a.29.29 0 0 1-.29-.29V4.29c0-.162.13-.291.29-.291h4.261a4.558 4.558 0 0 1 4.552 4.556v25.167c0 .16-.13.29-.29.29Zm-8.231-.58h7.941V8.555a3.978 3.978 0 0 0-3.97-3.975H30.44v28.851ZM26.314 34.013h-8.522a.29.29 0 0 1-.29-.29V4.29c0-.162.13-.291.29-.291h4.261a4.558 4.558 0 0 1 4.551 4.556v25.167c0 .16-.129.29-.29.29Zm-8.232-.58h7.942V8.555a3.978 3.978 0 0 0-3.971-3.975h-3.97v28.851Z"/><path fill="#F8F8F8" d="M27.889 35.874a.29.29 0 0 1-.29-.293c.001-.273.192-27.345.001-29.246a.293.293 0 0 1 .095-.245l2.21-1.986a.29.29 0 1 1 .388.433l-2.104 1.89c.16 2.64.022 24.433-.006 28.531l1.843-1.538a.29.29 0 1 1 .372.447l-2.325 1.94a.272.272 0 0 1-.184.067ZM11.827 35.874H3.29a.29.29 0 1 1 0-.58h8.34l2.347-1.797a.29.29 0 1 1 .352.462l-2.502 1.915ZM24.113 35.874h-8.62a.29.29 0 0 1 0-.581h8.413l2.201-1.791a.29.29 0 1 1 .366.452l-2.36 1.92Z"/><path fill="#F8F8F8" d="M36.422 35.874h-8.533a.29.29 0 0 1 0-.581h8.332l2.286-1.794a.29.29 0 1 1 .358.457l-2.443 1.918ZM3.29 35.874a.291.291 0 0 1-.286-.339c.15-.9.063-19.51-.004-29.226a.29.29 0 0 1 .105-.226L5.43 4.145a.29.29 0 1 1 .372.447L3.58 6.443c.016 2.186.16 24.165.034 28.491l1.814-1.512a.29.29 0 1 1 .372.447l-2.324 1.938a.293.293 0 0 1-.187.067ZM15.493 35.874a.292.292 0 0 1-.281-.367c.148-.867.043-21.361-.01-29.199 0-.085.036-.165.1-.22L17.576 4.1a.29.29 0 1 1 .382.439l-2.174 1.9c.007 1.016.05 7.66.072 14.287.032 9.573.001 12.967-.035 14.204l1.81-1.51a.29.29 0 1 1 .371.447l-2.325 1.94a.287.287 0 0 1-.185.066Zm-.275-.383ZM64.457 29.311v-9.054L61.18 26.84h-1.873l-3.276-6.583v9.054h-3.492V14.184h3.79l3.915 7.905 3.938-7.905h3.767v15.127h-3.492ZM75.755 14.188h3.151l5.51 15.127h-3.573l-1.172-3.386h-4.703l-1.149 3.386h-3.574l5.51-15.127Zm3.344 9.329L77.33 18.17l-1.81 5.347h3.578ZM97.339 26.243v3.068H86.718V14.184h10.429v3.068H90.21v2.938h5.96v2.832h-5.96v3.217h7.129v.004ZM109.021 18.617c-.043-.055-.192-.165-.447-.318a8.86 8.86 0 0 0-.956-.49 9.986 9.986 0 0 0-1.254-.447A4.961 4.961 0 0 0 105 17.17c-1.251 0-1.874.42-1.874 1.255 0 .255.067.47.204.64.133.168.333.321.596.458.262.134.592.26.987.373.396.114.859.243 1.384.384.725.2 1.376.416 1.959.652a5.254 5.254 0 0 1 1.478.875c.404.349.717.768.937 1.267.219.498.329 1.094.329 1.788 0 .852-.161 1.574-.478 2.162a4.026 4.026 0 0 1-1.266 1.428 5.404 5.404 0 0 1-1.811.788 8.931 8.931 0 0 1-2.108.244c-.553 0-1.121-.043-1.701-.13a12.241 12.241 0 0 1-1.701-.372 13.679 13.679 0 0 1-1.607-.585 9.2 9.2 0 0 1-1.438-.788l1.532-3.049c.055.071.243.208.553.405.313.2.697.396 1.16.596.462.2.976.376 1.544.533.568.157 1.14.236 1.724.236 1.235 0 1.85-.377 1.85-1.13a.956.956 0 0 0-.278-.702 2.58 2.58 0 0 0-.768-.503 8.55 8.55 0 0 0-1.16-.415c-.447-.13-.933-.271-1.458-.428a12.818 12.818 0 0 1-1.811-.69 4.79 4.79 0 0 1-1.266-.863 3.139 3.139 0 0 1-.745-1.13c-.164-.428-.242-.922-.242-1.491 0-.796.148-1.498.446-2.11a4.526 4.526 0 0 1 1.215-1.546 5.302 5.302 0 0 1 1.776-.95 7.096 7.096 0 0 1 2.14-.317c.525 0 1.042.05 1.552.149.509.098.999.227 1.469.384.471.157.906.334 1.309.534.404.2.776.396 1.117.596l-1.528 2.9ZM125.264 17.256h-4.598v12.059h-3.492v-12.06h-4.616v-3.067h12.706v3.068ZM127.77 29.311V14.184h6.812c.709 0 1.363.15 1.967.447.604.298 1.125.69 1.564 1.173a5.472 5.472 0 0 1 1.03 1.64 4.91 4.91 0 0 1 .373 1.852c0 .467-.059.918-.169 1.353a5.178 5.178 0 0 1-.49 1.224 4.631 4.631 0 0 1-1.806 1.808l3.319 5.626h-3.939l-2.896-4.88h-2.277v4.88h-3.488v.004Zm3.492-7.924h3.194c.412 0 .768-.197 1.066-.585.298-.392.447-.89.447-1.502 0-.624-.169-1.122-.51-1.491-.341-.369-.709-.553-1.105-.553h-3.084v4.13h-.008ZM149.46 29.44c-1.121 0-2.144-.219-3.065-.658a7.566 7.566 0 0 1-2.363-1.738 7.868 7.868 0 0 1-1.521-2.46 7.771 7.771 0 0 1-.541-2.856c0-.992.188-1.953.565-2.875a7.678 7.678 0 0 1 1.575-2.44 7.725 7.725 0 0 1 2.395-1.683c.921-.42 1.928-.628 3.021-.628 1.121 0 2.144.22 3.065.66a7.529 7.529 0 0 1 2.363 1.745 7.974 7.974 0 0 1 1.513 2.471c.353.922.533 1.86.533 2.813 0 .993-.188 1.954-.564 2.876a7.787 7.787 0 0 1-1.564 2.44 7.74 7.74 0 0 1-2.383 1.695c-.929.427-1.936.639-3.029.639Zm-3.939-7.669c0 .581.086 1.146.255 1.695.168.546.423 1.032.756 1.46.333.427.749.769 1.246 1.024.498.254 1.066.384 1.701.384.667 0 1.251-.133 1.744-.404.498-.27.91-.62 1.235-1.055.325-.432.572-.922.733-1.472a5.768 5.768 0 0 0 .243-1.67c0-.581-.086-1.146-.255-1.695a4.268 4.268 0 0 0-.768-1.448 3.788 3.788 0 0 0-1.246-1c-.49-.248-1.055-.373-1.693-.373-.667 0-1.247.133-1.737.392a3.89 3.89 0 0 0-1.234 1.032c-.333.428-.58.914-.745 1.46a6.163 6.163 0 0 0-.235 1.67Z"/></svg>