<svg width="88" height="36" fill="none" xmlns="http://www.w3.org/2000/svg"><g clip-path="url(#a)" fill="#F8F8F8"><path d="M35.965 17.997C36.026 30.502 23.238 39.32 11.543 34.8 2.099 31.237-2.569 20.199 1.444 10.93 4.214 4.24 11.284-.294 18.502.015 28.02.13 36.145 8.56 35.965 17.997Zm0 0C36.042 8.54 27.942.668 18.502 1.054 9.541 1.183 1.91 9.117 2.073 17.997c-.167 8.882 7.463 16.824 16.43 16.949 9.441.383 17.54-7.49 17.462-16.949Z"/><path d="m4.216 22.649 7.061-8.693a.202.202 0 0 0-.157-.332H4.474a.206.206 0 0 1-.2-.202v-.546a.206.206 0 0 1 .2-.202h8.11c.111.003.2.091.202.202v.568a.21.21 0 0 1-.044.127l-7 8.697a.201.201 0 0 0 .158.328h6.667c.111 0 .201.09.201.2v.548c0 .11-.09.201-.2.201H4.351a.206.206 0 0 1-.201-.201v-.569a.209.209 0 0 1 .065-.126ZM22.739 22.802v.547a.206.206 0 0 1-.201.2h-6.9a.206.206 0 0 1-.205-.2V12.876a.205.205 0 0 1 .206-.201h6.759c.11 0 .2.09.2.2v.548c0 .11-.09.2-.2.2H16.71a.206.206 0 0 0-.205.202v3.5a.205.205 0 0 0 .205.201h4.909c.11.003.198.091.2.201v.499c0 .111-.09.201-.2.201H16.71a.206.206 0 0 0-.205.206v3.745a.205.205 0 0 0 .205.2h5.828a.206.206 0 0 1 .201.224ZM25.097 23.344V12.876a.206.206 0 0 1 .2-.201h3.982a6.121 6.121 0 0 1 2.37.437A4.778 4.778 0 0 1 34.407 16c.238.676.356 1.388.35 2.105a6.117 6.117 0 0 1-.39 2.244 4.81 4.81 0 0 1-1.11 1.715 4.998 4.998 0 0 1-1.729 1.102 6.255 6.255 0 0 1-2.248.39h-3.981a.206.206 0 0 1-.201-.21Zm6.627-5.25c.006-.39-.05-.778-.166-1.15a2.59 2.59 0 0 0-.481-.875 2.207 2.207 0 0 0-.775-.573 2.504 2.504 0 0 0-1.024-.206h-1.002a.206.206 0 0 0-.205.202v5.25a.205.205 0 0 0 .205.2h.994a2.44 2.44 0 0 0 1.04-.214c.3-.14.563-.344.77-.6.217-.266.378-.572.478-.9.11-.368.167-.75.166-1.133ZM44.573 21.144v2.187a.206.206 0 0 1-.202.201h-7.345a.206.206 0 0 1-.2-.2V12.875a.206.206 0 0 1 .2-.201h7.205c.111 0 .201.09.201.2v2.188c0 .111-.09.201-.2.201h-4.218a.206.206 0 0 0-.206.202v1.128a.205.205 0 0 0 .206.201h3.544c.11 0 .2.09.2.202v2.017c0 .11-.09.2-.2.2h-3.544a.206.206 0 0 0-.206.202v1.312a.205.205 0 0 0 .206.201h4.375c.108.012.189.106.184.215ZM49.713 18.773v4.571a.205.205 0 0 1-.202.201h-2.58a.206.206 0 0 1-.206-.2v-10.47a.205.205 0 0 1 .205-.2h2.026a.188.188 0 0 1 .157.079l3.937 4.991a.206.206 0 0 0 .363-.127v-4.742a.206.206 0 0 1 .202-.201h2.58c.111 0 .202.09.202.2v10.47c0 .11-.09.2-.202.2h-2.064a.2.2 0 0 1-.158-.074l-3.898-4.812a.201.201 0 0 0-.363.114ZM67.307 15.277h-2.72a.206.206 0 0 0-.202.202v7.874a.205.205 0 0 1-.206.201h-2.577a.206.206 0 0 1-.205-.2v-7.875a.201.201 0 0 0-.201-.201h-2.734a.206.206 0 0 1-.202-.202V12.89a.206.206 0 0 1 .202-.201h8.845c.11.002.199.09.201.201v2.187a.206.206 0 0 1-.2.201ZM71.328 12.675h2.445c.087-.001.164.053.192.135l3.627 10.464a.206.206 0 0 1-.192.272h-2.6a.2.2 0 0 1-.191-.145l-.57-1.841a.206.206 0 0 0-.196-.145H71.25a.205.205 0 0 0-.192.145L70.5 23.4a.202.202 0 0 1-.197.145H67.68a.206.206 0 0 1-.192-.272l3.661-10.464a.201.201 0 0 1 .18-.135Zm2.108 6.491-.7-2.445a.2.2 0 0 0-.39 0l-.734 2.445a.201.201 0 0 0 .197.259h1.43a.206.206 0 0 0 .197-.258ZM79.342 23.344V12.876a.205.205 0 0 1 .205-.201h2.581c.11.002.199.09.201.2v7.875c.003.11.091.199.202.201h4.527c.11.003.2.091.201.202v2.187a.206.206 0 0 1-.2.201h-7.512c-.11 0-.201-.087-.206-.197Z"/></g><defs><clipPath id="a"><path fill="#fff" d="M0 0h87.26v36H0z"/></clipPath></defs></svg>