<svg width="36" height="37" viewBox="0 0 36 37" fill="none" xmlns="http://www.w3.org/2000/svg">
<path d="M35.3729 16.7812H24.6055L33.9301 11.3986L32.081 8.19505L22.7552 13.5776L28.1377 4.25534L24.9341 2.4062L19.5504 11.7261V0.963409H15.8498V11.7273L10.4661 2.4062L7.26134 4.25534L12.6439 13.5752L3.32045 8.19505L1.47014 11.3986L10.7947 16.7812H0.0273438V20.4806H10.7935L1.47014 25.8631L3.31927 29.0667L12.645 23.6842L7.26134 33.0064L10.4649 34.8555L15.8498 25.5345V36.2972H19.5504V25.3037L25.033 34.7967L28.0376 33.063L22.5538 23.5676L32.0786 29.0655L33.9289 25.8619L24.6055 20.4794H35.3717L35.3729 16.7812ZM17.7001 23.6595C17.0395 23.6595 16.3854 23.5295 15.775 23.2768C15.1647 23.024 14.6101 22.6536 14.1429 22.1865C13.6758 21.7195 13.3052 21.165 13.0523 20.5547C12.7994 19.9444 12.6693 19.2903 12.6692 18.6297C12.6691 17.9691 12.7991 17.315 13.0519 16.7046C13.3046 16.0943 13.6751 15.5397 14.1421 15.0725C14.6092 14.6054 15.1637 14.2348 15.7739 13.9819C16.3842 13.729 17.0383 13.5988 17.6989 13.5988C19.0331 13.5986 20.3126 14.1284 21.2561 15.0717C22.1996 16.015 22.7297 17.2944 22.7299 18.6285C22.73 19.9627 22.2002 21.2422 21.2569 22.1857C20.3137 23.1292 19.0342 23.6593 17.7001 23.6595Z" fill="#565ADD"/>
</svg>
