<svg width="346" height="100" viewBox="0 0 346 100" fill="none" xmlns="http://www.w3.org/2000/svg">
<path d="M41.7522 67.7325C45.1301 67.7325 48.4749 67.0605 51.5957 65.7547C54.7164 64.449 57.5521 62.5352 59.9406 60.1225C62.3291 57.7099 64.2238 54.8456 65.5165 51.6933C66.8091 48.541 67.4745 45.1624 67.4745 41.7504C67.4745 38.3384 66.8091 34.9598 65.5165 31.8075C64.2238 28.6552 62.3291 25.791 59.9406 23.3783C57.5521 20.9656 54.7164 19.0518 51.5957 17.7461C48.4749 16.4404 45.1301 15.7683 41.7522 15.7683V67.7325Z" fill="#FDD33C"/>
<path d="M15.7686 67.7325C19.1465 67.7325 22.4913 67.0605 25.612 65.7547C28.7328 64.449 31.5684 62.5352 33.957 60.1225C36.3455 57.7099 38.2402 54.8456 39.5328 51.6933C40.8255 48.541 41.4908 45.1624 41.4908 41.7504C41.4908 38.3384 40.8255 34.9598 39.5328 31.8075C38.2402 28.6552 36.3455 25.791 33.957 23.3783C31.5684 20.9656 28.7328 19.0518 25.612 17.7461C22.4913 16.4404 19.1465 15.7683 15.7686 15.7683L15.7686 67.7325Z" fill="#FDD33C"/>
<path d="M99.4761 68.9867C115.683 68.9867 125.525 58.5523 125.525 43.0857C125.525 27.545 115.683 17.1846 99.4761 17.1846H82.8994V68.9867H99.4761ZM89.3377 23.1049H99.4761C112.057 23.1049 118.939 30.9492 118.939 43.0857C118.939 55.1482 112.057 63.0665 99.4761 63.0665H89.3377V23.1049Z" fill="white"/>
<path d="M135.852 24.8809C138.072 24.8809 139.774 23.2529 139.774 20.9588C139.774 18.6647 138.072 17.0366 135.852 17.0366C133.632 17.0366 131.93 18.6647 131.93 20.9588C131.93 23.2529 133.632 24.8809 135.852 24.8809ZM132.744 68.9867H138.812V31.2452H132.744V68.9867Z" fill="white"/>
<path d="M176.875 37.7575C174.506 33.5393 170.288 30.8012 163.924 30.8012C153.49 30.8012 145.793 38.5715 145.793 50.116C145.793 62.4005 153.49 69.4307 163.924 69.4307C170.288 69.4307 174.358 66.7666 176.875 62.4745V66.9146C176.875 75.129 172.582 78.8291 164.664 78.8291C158.374 78.8291 154.156 76.165 153.12 71.4288H146.903C147.865 79.7172 154.6 84.2313 164.22 84.2313C177.171 84.2313 182.943 78.0151 182.943 67.1366V31.2452H177.689L176.875 37.7575ZM164.516 64.0285C157.042 64.0285 152.01 58.3303 152.01 50.116C152.01 41.9016 157.042 36.2034 164.516 36.2034C171.916 36.2034 176.949 41.9756 176.949 50.264C176.949 58.3303 171.916 64.0285 164.516 64.0285Z" fill="white"/>
<path d="M194.317 24.8809C196.537 24.8809 198.239 23.2529 198.239 20.9588C198.239 18.6647 196.537 17.0366 194.317 17.0366C192.097 17.0366 190.395 18.6647 190.395 20.9588C190.395 23.2529 192.097 24.8809 194.317 24.8809ZM191.209 68.9867H197.277V31.2452H191.209V68.9867Z" fill="white"/>
<path d="M235.34 37.0174C233.046 33.3913 228.754 30.8012 222.389 30.8012C211.955 30.8012 204.259 38.5715 204.259 50.116C204.259 62.4005 211.955 69.4307 222.389 69.4307C228.754 69.4307 232.824 66.3966 235.34 62.9185L236.154 68.9867H241.408V17.1846H235.34V37.0174ZM222.981 64.0285C215.507 64.0285 210.475 58.3303 210.475 50.116C210.475 41.9016 215.507 36.2034 222.981 36.2034C230.382 36.2034 235.414 41.9756 235.414 50.264C235.414 58.3303 230.382 64.0285 222.981 64.0285Z" fill="white"/>
<path d="M267.065 69.4307C278.092 69.4307 285.788 61.5864 285.788 50.116C285.788 38.6455 278.092 30.8012 267.065 30.8012C256.039 30.8012 248.342 38.6455 248.342 50.116C248.342 61.5864 256.039 69.4307 267.065 69.4307ZM267.065 64.0285C259.591 64.0285 254.559 58.1823 254.559 50.116C254.559 42.0496 259.591 36.2034 267.065 36.2034C274.539 36.2034 279.572 42.0496 279.572 50.116C279.572 58.1823 274.539 64.0285 267.065 64.0285Z" fill="white"/>
<path d="M311.765 30.8012C305.401 30.8012 301.331 33.8353 298.815 37.3134L298.001 31.2452H292.747V83.7873H298.815V63.2145C301.109 66.8406 305.401 69.4307 311.765 69.4307C322.2 69.4307 329.896 61.6604 329.896 50.116C329.896 37.8315 322.2 30.8012 311.765 30.8012ZM311.173 64.0285C303.773 64.0285 298.741 58.2563 298.741 49.968C298.741 41.9016 303.773 36.2034 311.173 36.2034C318.648 36.2034 323.68 41.9016 323.68 50.116C323.68 58.3303 318.648 64.0285 311.173 64.0285Z" fill="white"/>
</svg>
