<svg xmlns="http://www.w3.org/2000/svg" width="209" height="36" fill="none"><g fill="#4C4B49" clip-path="url(#a)"><path d="M30.48 17.992c-.337-6.546-5.672-11.723-12.225-11.865-1.818-4.87-7.25-7.347-12.12-5.529a9.419 9.419 0 0 0-.62 17.394v.621c.007 6.905 5.595 12.494 12.5 12.509h.315c2.506 4.556 8.237 6.217 12.793 3.703 4.556-2.513 6.217-8.237 3.703-12.793a9.416 9.416 0 0 0-4.324-4.017l-.015-.023h-.008Zm-24.21-3.74A5.768 5.768 0 0 1 4.63 6.254a5.768 5.768 0 0 1 7.998-1.638 5.835 5.835 0 0 1 1.855 1.99 12.55 12.55 0 0 0-8.214 7.646Zm20.29 18.067a5.752 5.752 0 0 1-4.407-2.05l-.105-.12a4.915 4.915 0 0 1-.232-.314l-.082-.12a5.279 5.279 0 0 1-.21-.344l-.067-.12c-.067-.127-.12-.246-.18-.366-.022-.045-.037-.09-.06-.135a3.185 3.185 0 0 1-.134-.374c0-.052-.038-.097-.053-.15-.037-.119-.067-.246-.097-.373 0-.053-.03-.113-.037-.172-.008-.06-.038-.247-.053-.367s0-.127-.03-.195v-.568a5.766 5.766 0 0 1 5.768-5.768c.195 0 .382 0 .57.03h.066c.165 0 .322.037.487.075h.097c.15.03.3.067.456.112l.09.022c.157.053.322.113.456.18h.023c.172.075.337.15.494.24h.03c.134.074.269.156.404.239l.157.112a5.763 5.763 0 0 1-3.33 10.489l-.014.037h-.008ZM198.943 7.773h-13.937c-5.267 0-9.547 4.264-9.547 9.531s4.272 9.531 9.547 9.531h13.937c5.275 0 9.546-4.264 9.546-9.53 0-5.268-4.271-9.532-9.546-9.532Zm0 14.686h-13.937a5.148 5.148 0 0 1-5.155-5.147 5.171 5.171 0 0 1 5.155-5.163h13.937a5.148 5.148 0 0 1 5.155 5.148 5.171 5.171 0 0 1-5.155 5.162ZM61.781 21.404 50.963 8.11h-3.98v18.404h4.325v-6c0-1.452-.038-2.82-.105-4.1-.03-.516-.068-1.04-.12-1.564l9.838 11.664h1.72L72.48 14.85a28.127 28.127 0 0 0-.12 1.564 78.158 78.158 0 0 0-.105 4.1v6h4.324V8.117h-3.965L61.79 21.411l-.008-.007ZM137.029 19.384a6.318 6.318 0 0 0 2.484-2.207 5.665 5.665 0 0 0 .92-3.165 5.87 5.87 0 0 0-.815-3.12 5.324 5.324 0 0 0-2.357-2.05 8.676 8.676 0 0 0-3.741-.725h-19.361v18.404h4.242v-6.336h13.189l4.751 6.336h5.184l-5.162-6.853c.225-.09.449-.18.659-.284h.007Zm-18.628-7.541h14.543c.509 0 1.018.09 1.489.284.426.172.8.457 1.085.816.277.374.426.838.404 1.309.007.471-.127.942-.404 1.332a2.6 2.6 0 0 1-1.078.867c-.456.21-.95.322-1.451.315h-14.596v-4.923h.008ZM102.345 7.773H88.377c-5.282 0-9.561 4.272-9.561 9.546 0 5.274 4.28 9.546 9.561 9.546h13.968c5.281 0 9.561-4.272 9.561-9.546 0-5.274-4.28-9.546-9.561-9.546Zm0 14.708H88.377a5.164 5.164 0 0 1-5.17-5.162 5.176 5.176 0 0 1 5.17-5.17h13.968a5.164 5.164 0 0 1 5.169 5.163 5.176 5.176 0 0 1-5.169 5.17ZM145.617 7.773h-1.848v18.845h3.898v-6.942h24.606v-3.823h-24.606v-4.04h25.548v-4.04h-27.598Z"/></g><defs><clipPath id="a"><path fill="#fff" d="M0 0h208.489v36H0z"/></clipPath></defs></svg>