<svg xmlns="http://www.w3.org/2000/svg" width="80" height="36" fill="none"><g fill="#4C4B49" clip-path="url(#a)"><g clip-path="url(#b)"><path d="M13.367 0H.047v.01H0V13.52h6.83V6.83h6.537V0ZM36.15.046V0H22.51v6.852h6.755v6.558h6.895V.046h-.01ZM36.054 22.479h-6.83v6.688h-6.538V36h13.322v-.013h.046V22.478ZM6.833 29.093v-6.538H0v13.322h.013v.046H13.52v-6.83H6.833ZM20.734 15.728H15.52v5.214h5.214v-5.214Z"/></g><path d="M43.84 9.846c-.904 0-1.623-.246-2.158-.74-.534-.5-.8-1.211-.8-2.136V5.244c0-.924.266-1.633.8-2.126.535-.5 1.254-.75 2.157-.75.904 0 1.623.25 2.158.75.534.493.8 1.202.8 2.126V6.97c0 .925-.266 1.637-.8 2.137-.535.493-1.254.74-2.157.74Zm0-1.212c.506 0 .9-.147 1.18-.442.282-.294.422-.688.422-1.18V5.202c0-.493-.14-.887-.421-1.181-.28-.294-.675-.442-1.181-.442-.5 0-.894.148-1.182.442-.28.294-.42.688-.42 1.181v1.808c0 .493.14.887.42 1.181.288.295.682.442 1.181.442ZM49.412 9.702V3.745h-2.096V2.512h5.547v1.233h-2.095v5.957h-1.356ZM53.838 9.702v-7.19h4.622v1.233h-3.266V5.46h2.979v1.233h-2.98V8.47h3.33v1.232h-4.685ZM59.577 9.702v-7.19H62.7c.452 0 .846.079 1.181.236.336.158.596.38.78.668.186.288.278.627.278 1.017v.123c0 .432-.102.78-.308 1.048a1.812 1.812 0 0 1-.76.585v.185c.274.014.486.11.637.288.15.171.226.4.226.688v2.352h-1.356V7.545a.59.59 0 0 0-.134-.4c-.082-.103-.222-.154-.42-.154h-1.89v2.711h-1.357Zm1.356-3.944h1.623c.322 0 .572-.086.75-.257.185-.178.277-.41.277-.698V4.7c0-.288-.089-.517-.267-.688-.178-.178-.431-.267-.76-.267h-1.623v2.013ZM66.119 9.702v-7.19h1.356v7.19h-1.356ZM68.386 9.702l1.89-7.19h2.362l1.89 7.19h-1.397l-.39-1.581h-2.568l-.39 1.581h-1.397Zm2.105-2.835h1.931l-.873-3.502h-.184l-.874 3.502ZM43.778 21.963c-.89 0-1.596-.247-2.116-.74-.52-.5-.78-1.212-.78-2.136V17.36c0-.924.26-1.633.78-2.126.52-.5 1.226-.75 2.116-.75.883 0 1.565.243 2.044.73.486.479.73 1.14.73 1.982v.061h-1.336v-.102c0-.425-.12-.774-.36-1.048-.232-.274-.592-.411-1.078-.411-.48 0-.856.147-1.13.442-.274.294-.41.695-.41 1.202v1.766c0 .5.136.9.41 1.202.274.295.65.442 1.13.442.486 0 .846-.137 1.078-.41.24-.282.36-.631.36-1.049v-.185h1.335v.144c0 .842-.243 1.507-.729 1.993-.48.48-1.16.72-2.044.72ZM49.376 21.82v-2.476l-2.445-4.715h1.51l1.52 3.081h.185l1.52-3.081h1.51l-2.444 4.715v2.475h-1.356ZM53.783 21.82v-1.192h.945V15.82h-.945V14.63h3.698c.438 0 .818.075 1.14.226.329.143.582.352.76.626.185.267.278.59.278.966v.103c0 .328-.062.599-.185.811a1.51 1.51 0 0 1-.442.483c-.164.11-.322.188-.472.236v.185c.15.041.315.12.493.236.178.11.328.27.452.483.13.212.195.49.195.832v.103c0 .397-.093.74-.278 1.027-.184.28-.441.497-.77.647-.322.15-.699.226-1.13.226h-3.739Zm2.301-1.233h1.274c.294 0 .53-.072.709-.216.184-.144.277-.35.277-.616v-.103c0-.267-.09-.473-.267-.617-.178-.143-.418-.215-.72-.215h-1.273v1.767Zm0-3h1.253c.28 0 .51-.072.688-.216a.713.713 0 0 0 .278-.595v-.103c0-.26-.09-.459-.267-.596-.178-.144-.411-.216-.699-.216h-1.253v1.726ZM60.861 21.82v-7.191h4.623v1.232h-3.267v1.716h2.979v1.232h-2.979v1.778h3.328v1.232h-4.684ZM66.6 21.82v-7.191h3.123c.452 0 .846.079 1.181.236.336.158.596.38.781.668.185.287.277.626.277 1.017v.123c0 .431-.102.78-.308 1.048a1.812 1.812 0 0 1-.76.585v.185c.274.014.486.11.637.288.15.17.226.4.226.688v2.352H70.4v-2.157a.59.59 0 0 0-.133-.4c-.083-.103-.223-.155-.422-.155h-1.89v2.712H66.6Zm1.356-3.945h1.623c.322 0 .572-.086.75-.257.185-.178.278-.411.278-.699v-.102c0-.288-.09-.517-.268-.689-.178-.178-.431-.267-.76-.267h-1.623v2.014ZM43.542 33.914c-.555 0-1.045-.1-1.47-.298a2.337 2.337 0 0 1-.996-.853c-.24-.37-.36-.815-.36-1.335v-.288h1.336v.288c0 .431.134.756.4.976.268.212.63.318 1.09.318.465 0 .811-.092 1.037-.277a.866.866 0 0 0 .35-.71.675.675 0 0 0-.175-.482c-.11-.123-.274-.223-.493-.298a5.5 5.5 0 0 0-.781-.226l-.236-.051a6.332 6.332 0 0 1-1.274-.411 2.082 2.082 0 0 1-.812-.668c-.184-.274-.277-.63-.277-1.068 0-.438.103-.811.308-1.12.213-.315.507-.554.884-.719.383-.171.832-.257 1.345-.257.514 0 .97.09 1.367.268.404.17.719.43.945.78.232.343.349.774.349 1.294v.309h-1.336v-.308c0-.274-.054-.494-.164-.658a.867.867 0 0 0-.452-.37 1.848 1.848 0 0 0-.709-.123c-.41 0-.715.079-.914.236-.192.15-.287.36-.287.627a.75.75 0 0 0 .133.452c.096.123.236.226.421.308.185.082.421.154.709.216l.236.051c.514.11.959.25 1.336.421.383.172.681.397.893.678.213.281.319.64.319 1.079 0 .438-.113.825-.34 1.16-.218.33-.533.59-.944.781-.404.185-.884.278-1.438.278ZM50.059 33.914c-.89 0-1.596-.247-2.116-.74-.52-.5-.781-1.212-.781-2.137v-1.725c0-.925.26-1.634.78-2.127.521-.5 1.227-.75 2.117-.75.883 0 1.565.244 2.044.73.486.48.73 1.14.73 1.982v.062h-1.336v-.103c0-.424-.12-.774-.36-1.048-.233-.273-.592-.41-1.078-.41-.48 0-.856.147-1.13.441-.274.295-.411.695-.411 1.202v1.767c0 .5.137.9.41 1.202.275.294.651.442 1.13.442.487 0 .846-.137 1.08-.411.239-.281.359-.63.359-1.048v-.185h1.335v.144c0 .842-.243 1.506-.73 1.992-.478.48-1.16.72-2.043.72ZM53.988 33.77v-7.19h1.356v2.968h2.671v-2.969h1.356v7.19h-1.356v-2.988h-2.67v2.989h-1.357ZM63.575 33.914c-.904 0-1.623-.247-2.157-.74-.534-.5-.801-1.212-.801-2.137v-1.725c0-.925.267-1.634.8-2.127.535-.5 1.254-.75 2.158-.75.904 0 1.623.25 2.157.75.534.493.801 1.202.801 2.127v1.725c0 .925-.267 1.637-.8 2.137-.535.493-1.254.74-2.158.74Zm0-1.212c.507 0 .9-.148 1.181-.442.281-.295.421-.688.421-1.181V29.27c0-.494-.14-.887-.42-1.182-.282-.294-.675-.441-1.182-.441-.5 0-.894.147-1.181.441-.281.295-.422.689-.422 1.182v1.807c0 .494.14.887.422 1.182.287.294.681.442 1.18.442ZM70.568 33.914c-.904 0-1.623-.247-2.157-.74-.534-.5-.801-1.212-.801-2.137v-1.725c0-.925.267-1.634.8-2.127.535-.5 1.254-.75 2.158-.75.904 0 1.623.25 2.157.75.534.493.801 1.202.801 2.127v1.725c0 .925-.267 1.637-.8 2.137-.535.493-1.254.74-2.158.74Zm0-1.212c.507 0 .9-.148 1.181-.442.281-.295.422-.688.422-1.181V29.27c0-.494-.14-.887-.422-1.182-.28-.294-.674-.441-1.181-.441-.5 0-.894.147-1.181.441-.281.295-.421.689-.421 1.182v1.807c0 .494.14.887.42 1.182.288.294.682.442 1.182.442ZM74.767 33.77v-7.19h1.356v5.957h3.287v1.233h-4.643Z"/></g><defs><clipPath id="a"><path fill="#fff" d="M0 0h79.676v36H0z"/></clipPath><clipPath id="b"><path fill="#fff" d="M0 0h36.131v36H0z"/></clipPath></defs></svg>