<svg width="214" height="103" viewBox="0 0 214 103" fill="none" xmlns="http://www.w3.org/2000/svg">
<circle cx="51.6371" cy="52.4286" r="33.3636" fill="white" fill-opacity="0.6"/>
<circle cx="51.237" cy="51.237" r="50.0455" stroke="white" stroke-opacity="0.6" stroke-width="2.38312"/>
<rect width="145.386" height="27.3655" transform="translate(67.6797 74.4342)" fill="#101010"/>
<path d="M87.4007 94.6169C91.545 94.6169 94.0619 91.9486 94.0619 87.9936C94.0619 84.0196 91.545 81.3703 87.4007 81.3703H83.1618V94.6169H87.4007ZM84.8082 82.8842H87.4007C90.6178 82.8842 92.3777 84.8901 92.3777 87.9936C92.3777 91.0781 90.6178 93.103 87.4007 93.103H84.8082V82.8842ZM96.7026 83.3383C97.2703 83.3383 97.7056 82.922 97.7056 82.3354C97.7056 81.7487 97.2703 81.3324 96.7026 81.3324C96.1349 81.3324 95.6997 81.7487 95.6997 82.3354C95.6997 82.922 96.1349 83.3383 96.7026 83.3383ZM95.9078 94.6169H97.4596V84.9658H95.9078V94.6169ZM107.193 86.631C106.587 85.5524 105.509 84.8522 103.881 84.8522C101.213 84.8522 99.2448 86.8392 99.2448 89.7913C99.2448 92.9326 101.213 94.7304 103.881 94.7304C105.509 94.7304 106.549 94.0491 107.193 92.9516V94.087C107.193 96.1875 106.095 97.1337 104.07 97.1337C102.462 97.1337 101.383 96.4525 101.118 95.2413H99.5286C99.7746 97.3608 101.497 98.5151 103.957 98.5151C107.268 98.5151 108.744 96.9255 108.744 94.1438V84.9658H107.401L107.193 86.631ZM104.032 93.349C102.121 93.349 100.834 91.8918 100.834 89.7913C100.834 87.6908 102.121 86.2337 104.032 86.2337C105.925 86.2337 107.212 87.7097 107.212 89.8292C107.212 91.8918 105.925 93.349 104.032 93.349ZM111.653 83.3383C112.221 83.3383 112.656 82.922 112.656 82.3354C112.656 81.7487 112.221 81.3324 111.653 81.3324C111.085 81.3324 110.65 81.7487 110.65 82.3354C110.65 82.922 111.085 83.3383 111.653 83.3383ZM110.858 94.6169H112.41V84.9658H110.858V94.6169ZM122.143 86.4418C121.557 85.5145 120.459 84.8522 118.832 84.8522C116.163 84.8522 114.195 86.8392 114.195 89.7913C114.195 92.9326 116.163 94.7304 118.832 94.7304C120.459 94.7304 121.5 93.9545 122.143 93.0651L122.351 94.6169H123.695V81.3703H122.143V86.4418ZM118.983 93.349C117.072 93.349 115.785 91.8918 115.785 89.7913C115.785 87.6908 117.072 86.2337 118.983 86.2337C120.875 86.2337 122.162 87.7097 122.162 89.8292C122.162 91.8918 120.875 93.349 118.983 93.349ZM130.256 94.7304C133.075 94.7304 135.044 92.7245 135.044 89.7913C135.044 86.8581 133.075 84.8522 130.256 84.8522C127.436 84.8522 125.468 86.8581 125.468 89.7913C125.468 92.7245 127.436 94.7304 130.256 94.7304ZM130.256 93.349C128.345 93.349 127.058 91.854 127.058 89.7913C127.058 87.7286 128.345 86.2337 130.256 86.2337C132.167 86.2337 133.454 87.7286 133.454 89.7913C133.454 91.854 132.167 93.349 130.256 93.349ZM141.686 84.8522C140.059 84.8522 139.018 85.6281 138.375 86.5175L138.167 84.9658H136.823V98.4016H138.375V93.1408C138.961 94.0681 140.059 94.7304 141.686 94.7304C144.355 94.7304 146.323 92.7434 146.323 89.7913C146.323 86.65 144.355 84.8522 141.686 84.8522ZM141.535 93.349C139.643 93.349 138.356 91.8729 138.356 89.7535C138.356 87.6908 139.643 86.2337 141.535 86.2337C143.446 86.2337 144.733 87.6908 144.733 89.7913C144.733 91.8918 143.446 93.349 141.535 93.349ZM152.367 82.8842H156.663V94.6169H158.309V82.8842H162.605V81.3703H152.367V82.8842ZM166.791 94.7304C169.024 94.7304 170.614 93.3111 170.992 91.3809H169.422C169.1 92.6299 168.04 93.349 166.678 93.349C164.842 93.349 163.688 92.0622 163.631 90.2266V90.0941H171.125C171.144 89.867 171.163 89.6399 171.163 89.4318C171.087 86.5743 169.308 84.8522 166.583 84.8522C163.858 84.8522 162.003 86.8581 162.003 89.7913C162.003 92.7434 163.896 94.7304 166.791 94.7304ZM163.726 88.8073C163.877 87.2366 165.183 86.2147 166.602 86.2147C168.21 86.2147 169.346 87.142 169.497 88.8073H163.726ZM181.468 93.1976C181.033 93.1976 180.843 93.0651 180.843 92.5542V88.3342C180.843 86.0823 179.424 84.8522 176.964 84.8522C174.636 84.8522 173.104 85.9687 172.876 87.8611H174.428C174.617 86.8771 175.526 86.2337 176.888 86.2337C178.402 86.2337 179.292 86.9906 179.292 88.2396V88.9019H176.453C173.917 88.9019 172.574 89.9805 172.574 91.9108C172.574 93.6707 174.012 94.7304 176.131 94.7304C177.797 94.7304 178.762 93.9924 179.367 93.1219C179.386 94.0681 179.821 94.6169 181.108 94.6169H181.96V93.1976H181.468ZM179.292 90.6807C179.292 92.2892 178.175 93.4057 176.245 93.4057C174.958 93.4057 174.144 92.7623 174.144 91.8161C174.144 90.7186 174.92 90.2076 176.302 90.2076H179.292V90.6807ZM193.92 84.8522C192.198 84.8522 191.158 85.647 190.571 86.6878C190.022 85.4578 188.868 84.8522 187.524 84.8522C186.029 84.8522 185.215 85.5902 184.705 86.2904L184.496 84.9658H183.153V94.6169H184.705V89.5264C184.705 87.5962 185.67 86.2715 187.259 86.2715C188.735 86.2715 189.587 87.2555 189.587 89.1479V94.6169H191.139V89.4507C191.139 87.4826 192.123 86.2715 193.731 86.2715C195.188 86.2715 196.021 87.2555 196.021 89.1479V94.6169H197.573V89.0533C197.573 86.0066 195.926 84.8522 193.92 84.8522Z" fill="white"/>
<path d="M51 51.0002L55.7662 73.6398L60.9297 64.9017L70.4621 62.9158L51 51.0002Z" fill="#101010" stroke="white" stroke-width="0.794372"/>
</svg>
