<svg width="128" height="81" viewBox="0 0 128 81" fill="none" xmlns="http://www.w3.org/2000/svg">
<g clip-path="url(#clip0_1749_43509)">
<path d="M63.6066 80.9971C98.7355 80.9971 127.213 63.0885 127.213 40.9971C127.213 18.9057 98.7355 0.99707 63.6066 0.99707C28.4776 0.99707 0 18.9057 0 40.9971C0 63.0885 28.4776 80.9971 63.6066 80.9971Z" fill="#4353FF"/>
<path d="M29.5801 31.3906H32.3014C34.1899 31.3906 35.4293 32.23 35.4293 34.0136V34.0595C35.4293 35.8431 34.1178 36.6365 32.3342 36.6365H31.1538V39.8496H29.5801V31.3906ZM32.3014 35.489C33.3375 35.489 33.8948 34.9841 33.8948 34.0464V34.0005C33.8948 32.9972 33.3047 32.6103 32.3014 32.6103H31.1538V35.489H32.3014Z" fill="white"/>
<path d="M36.6553 33.6595H38.0782V34.8136C38.244 34.4235 38.5266 34.0943 38.887 33.8712C39.2475 33.6481 39.6682 33.5421 40.0913 33.5677V34.8792C38.8389 34.8792 38.0782 35.2923 38.0782 36.6038V39.8169H36.6553V33.6595Z" fill="white"/>
<path d="M40.8066 36.8135V36.7151C40.8438 35.8992 41.194 35.129 41.7845 34.5647C42.375 34.0004 43.1604 33.6855 43.9771 33.6855C44.7939 33.6855 45.5792 34.0004 46.1697 34.5647C46.7603 35.129 47.1105 35.8992 47.1476 36.7151V36.8069C47.1159 37.6233 46.7706 38.396 46.1835 38.9642C45.5965 39.5324 44.8129 39.8523 43.9959 39.8574C43.179 39.8625 42.3915 39.5523 41.7974 38.9914C41.2034 38.4305 40.8485 37.6622 40.8066 36.8462V36.8135ZM45.6853 36.8135V36.7282C45.6853 35.4561 45.0296 34.6757 43.987 34.6757C42.9443 34.6757 42.2689 35.443 42.2689 36.7216V36.8135C42.2689 38.079 42.9247 38.8659 43.987 38.8659C45.0493 38.8659 45.6853 38.0528 45.6853 36.7872V36.8135Z" fill="white"/>
<path d="M48.6823 34.7347H47.8691V33.6593H48.7085V32.833C48.6751 32.5514 48.7058 32.2659 48.7982 31.9978C48.8907 31.7298 49.0425 31.486 49.2424 31.2849C49.4423 31.0838 49.6851 30.9304 49.9526 30.8362C50.2201 30.7421 50.5054 30.7096 50.7872 30.7412C51.0628 30.736 51.3375 30.7759 51.6003 30.8593V31.9675C51.3892 31.8956 51.1675 31.8601 50.9446 31.8625C50.3675 31.8625 50.1314 32.2429 50.1314 32.774V33.6593H51.5347V34.7347H50.1118V39.8363H48.6823V34.7347Z" fill="white"/>
<path d="M52.0592 36.8134V36.7151C52.0337 36.2999 52.0946 35.884 52.2382 35.4936C52.3818 35.1033 52.605 34.747 52.8935 34.4474C53.182 34.1478 53.5296 33.9114 53.9142 33.7532C54.2989 33.5949 54.7122 33.5183 55.1281 33.5282C56.6625 33.5282 58.0395 34.4397 58.0395 36.6429V37.0626H53.5215C53.5674 38.2364 54.1772 38.8987 55.2199 38.8987C56.0854 38.8987 56.5313 38.5511 56.6363 37.9479H58.0199C57.8166 39.2593 56.7674 39.961 55.1871 39.961C54.7681 39.9861 54.3485 39.9217 53.9563 39.7722C53.5641 39.6226 53.2083 39.3912 52.9124 39.0935C52.6165 38.7958 52.3874 38.4385 52.2403 38.0453C52.0932 37.6522 52.0315 37.2323 52.0592 36.8134ZM56.6494 36.1052C56.5838 35.0429 56.0395 34.5708 55.1543 34.5708C54.7423 34.5706 54.3465 34.7306 54.0503 35.0169C53.7542 35.3032 53.581 35.6935 53.5674 36.1052H56.6494Z" fill="white"/>
<path d="M58.9053 37.9086H60.2167C60.2889 38.5644 60.6036 38.8988 61.443 38.8988C62.2823 38.8988 62.5512 38.63 62.5512 38.1119C62.5512 37.5939 62.1381 37.4103 61.2397 37.2595C59.6331 36.9972 59.0167 36.5382 59.0167 35.3841C59.0167 34.23 60.1774 33.5283 61.3315 33.5283C62.5971 33.5283 63.6004 34.0005 63.7512 35.3972H62.4397C62.4246 35.2693 62.3837 35.1458 62.3194 35.0342C62.2552 34.9226 62.1689 34.8253 62.0659 34.748C61.9629 34.6707 61.8453 34.6152 61.7202 34.5848C61.595 34.5543 61.465 34.5496 61.3381 34.5709C60.7282 34.5709 60.361 34.866 60.361 35.2988C60.361 35.7316 60.6561 35.9545 61.6331 36.0923C63.0889 36.3152 63.9479 36.6693 63.9479 37.9808C63.9479 39.2923 63.0627 39.948 61.4823 39.948C59.902 39.948 58.9643 39.2201 58.9053 37.9086Z" fill="white"/>
<path d="M64.7344 37.9086H66.0459C66.118 38.5644 66.4327 38.8988 67.2721 38.8988C68.1114 38.8988 68.3803 38.63 68.3803 38.1119C68.3803 37.5939 67.9672 37.4103 67.0688 37.2595C65.436 36.9972 64.8393 36.5382 64.8393 35.3841C64.8393 34.23 65.9934 33.5283 67.1475 33.5283C68.4131 33.5283 69.4163 34.0005 69.5672 35.3972H68.2557C68.2406 35.2693 68.1997 35.1458 68.1354 35.0342C68.0712 34.9226 67.9849 34.8253 67.8819 34.748C67.7789 34.6707 67.6613 34.6152 67.5361 34.5848C67.411 34.5543 67.281 34.5496 67.154 34.5709C66.5442 34.5709 66.177 34.866 66.177 35.2988C66.177 35.7316 66.4721 35.9545 67.4491 36.0923C68.9049 36.3152 69.7639 36.6693 69.7639 37.9808C69.7639 39.2923 68.8786 39.948 67.2983 39.948C65.718 39.948 64.7934 39.2201 64.7344 37.9086Z" fill="white"/>
<path d="M70.9179 31.8166C70.91 31.6466 70.9533 31.478 71.042 31.3328C71.1308 31.1875 71.261 31.0721 71.416 31.0016C71.5709 30.931 71.7434 30.9084 71.9112 30.9367C72.0791 30.965 72.2346 31.0429 72.3578 31.1604C72.481 31.2779 72.5662 31.4296 72.6024 31.596C72.6386 31.7623 72.6242 31.9357 72.561 32.0937C72.4978 32.2518 72.3887 32.3873 72.2478 32.4829C72.1069 32.5784 71.9406 32.6295 71.7704 32.6297C71.6608 32.6332 71.5516 32.6149 71.4491 32.5757C71.3467 32.5366 71.2531 32.4775 71.1738 32.4018C71.0944 32.3261 71.0309 32.2354 70.987 32.1349C70.9431 32.0344 70.9196 31.9262 70.9179 31.8166ZM71.0687 33.6461H72.4982V39.8232H71.0687V33.6461Z" fill="white"/>
<path d="M73.8232 36.8135V36.7151C73.8604 35.8992 74.2106 35.129 74.8011 34.5647C75.3916 34.0004 76.177 33.6855 76.9937 33.6855C77.8105 33.6855 78.5958 34.0004 79.1863 34.5647C79.7769 35.129 80.1271 35.8992 80.1642 36.7151V36.8069C80.1325 37.6233 79.7872 38.396 79.2001 38.9642C78.6131 39.5324 77.8295 39.8523 77.0125 39.8574C76.1956 39.8625 75.4081 39.5523 74.814 38.9914C74.22 38.4305 73.8651 37.6622 73.8232 36.8462V36.8135ZM78.6954 36.8135V36.7282C78.6954 35.4561 78.0396 34.6757 76.997 34.6757C75.9544 34.6757 75.2855 35.443 75.2855 36.7216V36.8135C75.2855 38.079 75.9413 38.8659 76.997 38.8659C78.0527 38.8659 78.6888 38.0528 78.6888 36.7872L78.6954 36.8135Z" fill="white"/>
<path d="M81.4424 33.6594H82.8719V34.6365C83.0655 34.2808 83.3565 33.9877 83.7107 33.7915C84.0649 33.5952 84.4677 33.5039 84.8719 33.5283C86.1112 33.5283 86.9834 34.2496 86.9834 35.948V39.8365H85.5539V36.0791C85.5539 35.148 85.1735 34.7217 84.3276 34.7217C84.1314 34.7089 83.9348 34.7384 83.751 34.8083C83.5672 34.8782 83.4007 34.9868 83.2626 35.1267C83.1245 35.2667 83.0181 35.4347 82.9507 35.6194C82.8833 35.8041 82.8564 36.0011 82.8719 36.1971V39.8365H81.4424V33.6594Z" fill="white"/>
<path d="M88.1709 38.1248C88.1709 36.6821 89.5676 36.1576 91.3381 36.1576H92.1053V35.8362C92.1053 35.01 91.8234 34.5969 90.984 34.5969C90.8416 34.5756 90.6963 34.5845 90.5575 34.6229C90.4187 34.6613 90.2895 34.7284 90.1782 34.8199C90.067 34.9114 89.9762 35.0252 89.9117 35.1539C89.8471 35.2827 89.8104 35.4235 89.8037 35.5674H88.4201C88.5381 34.1248 89.6856 33.5215 91.043 33.5215C92.4004 33.5215 93.5086 34.0854 93.5086 35.7772V39.8297H92.1315V39.0756C91.9165 39.3696 91.6306 39.6043 91.3004 39.7579C90.9701 39.9116 90.6064 39.9791 90.243 39.9543C89.1086 39.9543 88.1709 39.41 88.1709 38.1248ZM92.1053 37.6723V37.0625H91.3709C90.2889 37.0625 89.5873 37.3116 89.5873 38.0657C89.5873 38.5903 89.8758 38.9313 90.584 38.9313C91.4561 38.9248 92.1053 38.4657 92.1053 37.6723Z" fill="white"/>
<path d="M95.2061 30.8003H96.6356V39.8364H95.2061V30.8003Z" fill="white"/>
<path d="M43.3242 44.5054H46.039C47.9275 44.5054 49.1668 45.3447 49.1668 47.1283V47.1742C49.1668 48.9578 47.8554 49.7513 46.0718 49.7513H44.8914V52.9644H43.3242V44.5054ZM46.039 48.6037C47.075 48.6037 47.6324 48.0988 47.6324 47.1611V47.1152C47.6324 46.1119 47.0423 45.725 46.039 45.725H44.8914V48.6037H46.039Z" fill="white"/>
<path d="M49.8359 51.2395C49.8359 49.7969 51.2327 49.2723 53.0032 49.2723H53.7704V48.951C53.7704 48.1248 53.4884 47.7116 52.6491 47.7116C52.5066 47.6904 52.3613 47.6993 52.2225 47.7377C52.0837 47.7761 51.9545 47.8432 51.8433 47.9347C51.732 48.0261 51.6412 48.1399 51.5767 48.2687C51.5122 48.3974 51.4754 48.5383 51.4687 48.6821H50.072C50.19 47.2395 51.3376 46.6362 52.695 46.6362C54.0523 46.6362 55.1671 47.2002 55.1671 48.892V52.9444H53.7704V52.1903C53.5539 52.4844 53.2667 52.7191 52.9355 52.8726C52.6042 53.0262 52.2396 53.0938 51.8753 53.069C50.7605 53.069 49.8359 52.5248 49.8359 51.2395ZM53.7704 50.7871V50.1772H53.0228C51.9409 50.1772 51.2392 50.4264 51.2392 51.1805C51.2392 51.7051 51.5277 52.0461 52.2359 52.0461C53.1146 52.0395 53.7704 51.5805 53.7704 50.7871Z" fill="white"/>
<path d="M56.8262 46.7739H58.2557V47.928C58.4195 47.5378 58.7007 47.2083 59.0602 46.985C59.4198 46.7618 59.8398 46.6559 60.2622 46.6821V47.9936C59.0098 47.9936 58.2557 48.4067 58.2557 49.7182V52.9313H56.8262V46.7739Z" fill="white"/>
<path d="M61.8031 51.2263V47.8493H60.9834V46.7739H61.8096V45.4165H63.2391V46.7739H64.59V47.8493H63.2326V51.128C63.2326 51.6722 63.4949 51.9214 63.9408 51.9214C64.1787 51.9293 64.4155 51.8868 64.6359 51.7968V52.9313C64.327 53.0427 64.0002 53.0961 63.6719 53.0886C63.4192 53.1218 63.1623 53.0965 62.9209 53.0148C62.6795 52.933 62.4601 52.7969 62.2796 52.617C62.099 52.4371 61.9622 52.2182 61.8796 51.9771C61.797 51.736 61.7708 51.4792 61.8031 51.2263Z" fill="white"/>
<path d="M65.9277 46.7742H67.3507V47.7512C67.5443 47.3956 67.8353 47.1025 68.1895 46.9062C68.5437 46.7099 68.9465 46.6186 69.3507 46.643C70.59 46.643 71.4622 47.3643 71.4622 49.0627V52.9512H70.0327V49.1938C70.0327 48.2627 69.6523 47.8365 68.8064 47.8365C68.6102 47.8236 68.4136 47.8532 68.2298 47.923C68.046 47.9929 67.8794 48.1015 67.7414 48.2415C67.6033 48.3814 67.4969 48.5495 67.4295 48.7342C67.3621 48.9188 67.3352 49.1159 67.3507 49.3119V52.9512H65.9277V46.7742Z" fill="white"/>
<path d="M72.6881 49.9282V49.8298C72.6626 49.4147 72.7235 48.9987 72.8671 48.6084C73.0108 48.218 73.2339 47.8618 73.5224 47.5622C73.8109 47.2626 74.1585 47.0262 74.5432 46.8679C74.9278 46.7097 75.3411 46.6331 75.757 46.6429C77.2914 46.6429 78.675 47.5544 78.675 49.7577V50.1774H74.1504C74.1963 51.3511 74.8061 52.0134 75.8488 52.0134C76.7143 52.0134 77.1602 51.6659 77.2652 51.0626H78.6488C78.4455 52.3741 77.3963 53.0757 75.816 53.0757C75.397 53.1008 74.9774 53.0365 74.5852 52.8869C74.193 52.7373 73.8372 52.506 73.5413 52.2083C73.2454 51.9105 73.0163 51.5532 72.8692 51.1601C72.7221 50.767 72.6604 50.347 72.6881 49.9282ZM77.2783 49.22C77.2061 48.1577 76.6619 47.6856 75.7766 47.6856C75.3653 47.6854 74.9702 47.8456 74.6751 48.1321C74.38 48.4186 74.2083 48.8089 74.1963 49.22H77.2783Z" fill="white"/>
<path d="M79.9473 46.7739H81.3768V47.928C81.5406 47.5378 81.8218 47.2083 82.1813 46.985C82.5409 46.7618 82.9609 46.6559 83.3833 46.6821V47.9936C82.1309 47.9936 81.3768 48.4067 81.3768 49.7182V52.9313H79.9473V46.7739Z" fill="white"/>
<path d="M67.0818 13.3445L64.754 13.2854L64.6949 15.7576H63.9736L64.1113 10.1772L67.5408 10.2625V10.8658L64.8261 10.8068L64.7802 12.715L67.1081 12.774L67.0818 13.3445Z" fill="white"/>
<path d="M70.6685 13.7447L69.5538 13.6594L69.3898 15.9348L68.6816 15.8889L69.0882 10.3086L70.7275 10.4266C70.9764 10.4487 71.2211 10.5038 71.4554 10.5906C71.6694 10.669 71.8656 10.7894 72.0325 10.9447C72.1976 11.0972 72.3254 11.2857 72.4062 11.4955C72.4896 11.733 72.5209 11.9857 72.498 12.2365C72.4884 12.4061 72.4484 12.5727 72.38 12.7283C72.3231 12.8727 72.2409 13.006 72.1374 13.1217C72.035 13.2393 71.9157 13.341 71.7833 13.4233C71.6443 13.5098 71.4972 13.5823 71.3439 13.6397L72.3538 16.0791V16.125L71.5997 16.0791L70.6685 13.7447ZM69.5997 13.0889L70.5505 13.1611C70.7028 13.1692 70.8554 13.1537 71.003 13.1152C71.1412 13.0848 71.271 13.0243 71.3833 12.9381C71.4995 12.8601 71.5942 12.7541 71.6587 12.6299C71.736 12.4961 71.7789 12.3451 71.7833 12.1906C71.8006 12.0312 71.7826 11.8701 71.7308 11.7184C71.6868 11.5819 71.6103 11.4582 71.5079 11.3578C71.4057 11.2592 71.2855 11.1812 71.1538 11.1283C71.0028 11.0689 70.8435 11.0335 70.6816 11.0233L69.7505 10.9512L69.5997 13.0889Z" fill="white"/>
<path d="M76.7544 14.0722L74.4331 13.7837L74.1905 15.7509L76.8921 16.0919L76.82 16.6886L73.4102 16.2624L74.0659 10.7148L77.4429 11.1345L77.3708 11.7378L74.7544 11.4034L74.5315 13.187L76.8462 13.4755L76.7544 14.0722Z" fill="white"/>
<path d="M81.5544 14.8789L79.2527 14.4658L78.9052 16.433L81.5872 16.9183L81.4757 17.5084L78.0986 16.9052L79.0822 11.397L82.4331 12.0003L82.3216 12.597L79.6986 12.1183L79.3773 13.8888L81.679 14.3019L81.5544 14.8789Z" fill="white"/>
<path d="M83.6332 17.3509L86.2561 18.0067L86.1184 18.5968L82.7676 17.7903L84.0791 12.3477L84.7676 12.5181L83.6332 17.3509Z" fill="white"/>
<path d="M90.2554 18.2891L88.4718 17.7383L87.6128 18.9907L86.957 18.7809L90.3275 13.9678L90.898 14.1448L90.9505 20.0465L90.2947 19.8366L90.2554 18.2891ZM88.839 17.2006L90.2554 17.6399V15.1022L88.839 17.2006Z" fill="white"/>
<path d="M95.0357 21.5872L94.3799 21.3249L93.8685 16.6429L92.3471 20.5314L91.6914 20.2757L93.7242 15.0298L94.3799 15.2921L94.8914 19.9675L96.393 16.1118L97.0488 16.374L95.0357 21.5872Z" fill="white"/>
<path d="M100.111 22.1381C99.9756 22.3451 99.8098 22.5307 99.6195 22.6889C99.4412 22.8321 99.2392 22.943 99.0228 23.0168C98.8114 23.0852 98.5883 23.1097 98.367 23.0889C98.1176 23.0695 97.8746 23.0004 97.6523 22.8856C97.459 22.7947 97.2818 22.6729 97.1277 22.525C96.9948 22.3864 96.8822 22.2296 96.7933 22.0594C96.7152 21.891 96.6621 21.712 96.6359 21.5283C96.6162 21.3364 96.6162 21.1431 96.6359 20.9512C96.6562 20.7512 96.6957 20.5535 96.7539 20.361C96.8123 20.1638 96.8846 19.971 96.9703 19.784L97.3113 19.0824C97.4082 18.8993 97.5155 18.722 97.6326 18.5512C97.7537 18.39 97.8875 18.2387 98.0326 18.0988C98.1722 17.9681 98.3262 17.8537 98.4916 17.7578C98.6541 17.6615 98.8313 17.5928 99.0162 17.5545C99.205 17.5215 99.398 17.5215 99.5867 17.5545C99.7989 17.581 100.005 17.643 100.197 17.7381C100.426 17.8502 100.635 18.001 100.813 18.184C100.966 18.3512 101.084 18.5474 101.16 18.761C101.23 18.9725 101.263 19.1942 101.259 19.4168C101.242 19.6673 101.191 19.9144 101.108 20.1512L100.452 19.843C100.508 19.6888 100.544 19.5278 100.557 19.3643C100.571 19.2145 100.558 19.0635 100.518 18.9184C100.483 18.7759 100.416 18.6435 100.321 18.5315C100.211 18.4079 100.077 18.3075 99.9277 18.2365C99.7908 18.1666 99.6416 18.1242 99.4884 18.1119C99.3524 18.1042 99.2163 18.1243 99.0884 18.1709C98.9602 18.2132 98.8403 18.2776 98.7343 18.361C98.62 18.4489 98.5145 18.5477 98.4195 18.6561C98.3248 18.7686 98.2372 18.8869 98.1572 19.0102C98.0798 19.1305 98.0098 19.2553 97.9474 19.384L97.5998 20.0922C97.5373 20.2199 97.4826 20.3513 97.4359 20.4856C97.3331 20.7582 97.2798 21.0468 97.2785 21.3381C97.2768 21.4742 97.2989 21.6096 97.3441 21.7381C97.3833 21.869 97.4504 21.9898 97.5408 22.0922C97.6438 22.2057 97.7687 22.2972 97.908 22.361C98.0564 22.4384 98.2196 22.4831 98.3867 22.4922C98.5298 22.5042 98.6737 22.4817 98.8064 22.4266C98.9441 22.3718 99.0691 22.2892 99.1736 22.184C99.2953 22.0771 99.4013 21.9534 99.4884 21.8168L100.111 22.1381Z" fill="white"/>
<path d="M104.263 23.5936L102.295 22.3608L101.246 24.0461L103.561 25.4821L103.24 25.9936L100.328 24.1838L103.285 19.4297L106.171 21.2264L105.849 21.7379L103.567 20.3215L102.617 21.8494L104.584 23.0821L104.263 23.5936Z" fill="white"/>
<path d="M107.068 26.0722L106.229 25.364L104.786 27.128L104.242 26.6821L107.777 22.3477L109.049 23.3903C109.226 23.5544 109.381 23.7419 109.508 23.9477C109.636 24.1363 109.727 24.3478 109.777 24.5706C109.825 24.7865 109.825 25.0104 109.777 25.2263C109.709 25.4687 109.588 25.6928 109.423 25.8821C109.319 26.0155 109.193 26.1289 109.049 26.2165C108.916 26.2979 108.773 26.3598 108.623 26.4001C108.47 26.4384 108.314 26.4539 108.157 26.446C107.996 26.4326 107.835 26.4063 107.678 26.3673L107.088 28.9903V29.0231L106.504 28.5509L107.068 26.0722ZM106.577 24.9116L107.311 25.5149C107.431 25.6104 107.566 25.6857 107.711 25.7378C107.843 25.7891 107.983 25.8158 108.124 25.8165C108.265 25.8095 108.403 25.7761 108.531 25.7181C108.668 25.6481 108.789 25.5498 108.885 25.4296C108.988 25.3063 109.066 25.1637 109.114 25.0099C109.147 24.872 109.147 24.7283 109.114 24.5903C109.09 24.4495 109.036 24.3155 108.957 24.1968C108.868 24.0615 108.76 23.94 108.636 23.8362L107.914 23.246L106.577 24.9116Z" fill="white"/>
<path d="M110.682 30.9117C110.803 30.8172 110.891 30.6861 110.932 30.538C110.961 30.3974 110.961 30.2523 110.932 30.1117C110.913 29.9633 110.876 29.8179 110.82 29.6789C110.761 29.5281 110.709 29.3904 110.65 29.2593C110.591 29.1281 110.499 28.8658 110.433 28.656C110.368 28.4429 110.328 28.2228 110.315 28.0003C110.301 27.7916 110.328 27.5823 110.394 27.3839C110.467 27.1775 110.594 26.9942 110.761 26.8527C110.929 26.7024 111.132 26.5964 111.351 26.5445C111.568 26.5027 111.79 26.5027 112.007 26.5445C112.224 26.5885 112.431 26.6731 112.617 26.7937C112.808 26.9085 112.981 27.0522 113.128 27.2199C113.285 27.4005 113.409 27.6068 113.495 27.8298C113.577 28.0392 113.624 28.2608 113.633 28.4855C113.639 28.7196 113.593 28.9522 113.5 29.1672C113.408 29.3822 113.27 29.5747 113.095 29.7314L112.61 29.1806C112.715 29.0678 112.801 28.9395 112.866 28.8003C112.926 28.6748 112.962 28.539 112.971 28.4003C112.978 28.2616 112.955 28.1232 112.905 27.9937C112.854 27.8478 112.774 27.7138 112.669 27.6003C112.581 27.4974 112.477 27.4089 112.361 27.338C112.253 27.2663 112.133 27.2151 112.007 27.1871C111.884 27.1609 111.756 27.1609 111.633 27.1871C111.501 27.2188 111.379 27.2843 111.279 27.3773C111.164 27.4685 111.084 27.5955 111.05 27.738C111.02 27.8741 111.02 28.015 111.05 28.1511C111.071 28.2967 111.109 28.4397 111.161 28.5773L111.325 28.9642C111.384 29.1019 111.436 29.2396 111.489 29.3773C111.539 29.5188 111.581 29.6634 111.613 29.8101C111.646 29.9524 111.665 30.0972 111.672 30.2429C111.685 30.5304 111.619 30.8158 111.482 31.0691C111.4 31.1998 111.299 31.3171 111.181 31.4166C111.011 31.5723 110.803 31.6788 110.577 31.7248C110.362 31.7738 110.138 31.7738 109.922 31.7248C109.707 31.6699 109.503 31.579 109.318 31.456C109.128 31.3346 108.956 31.1866 108.807 31.0166C108.642 30.8203 108.509 30.599 108.413 30.3609C108.316 30.1388 108.258 29.9013 108.243 29.6593C108.23 29.4234 108.263 29.1872 108.341 28.9642C108.43 28.7315 108.571 28.5227 108.754 28.3544L109.233 28.9052C109.124 29.0238 109.037 29.1616 108.977 29.3117C108.925 29.4524 108.899 29.6011 108.899 29.7511C108.907 29.8999 108.94 30.0462 108.997 30.1839C109.064 30.3316 109.152 30.4686 109.259 30.5904C109.351 30.6941 109.454 30.7865 109.568 30.8658C109.678 30.9404 109.8 30.9958 109.928 31.0298C110.051 31.0593 110.179 31.0593 110.302 31.0298C110.437 31.0255 110.569 30.9847 110.682 30.9117Z" fill="white"/>
<path d="M113.895 36.5382C114.053 36.5122 114.215 36.5122 114.373 36.5382C114.528 36.5597 114.678 36.6039 114.819 36.6694C114.966 36.7386 115.105 36.8244 115.232 36.9251C115.376 37.0355 115.514 37.1537 115.645 37.2792C115.819 37.0847 116.01 36.9068 116.216 36.748C116.396 36.6119 116.605 36.5178 116.826 36.4726C117.019 36.4369 117.216 36.4369 117.409 36.4726C117.578 36.5032 117.739 36.5679 117.882 36.6628C118.019 36.7639 118.133 36.8936 118.216 37.0431C118.313 37.2094 118.379 37.3914 118.413 37.5808C118.446 37.739 118.448 37.9022 118.417 38.061C118.387 38.2198 118.325 38.3709 118.236 38.5054C118.148 38.6291 118.037 38.734 117.908 38.8136C117.779 38.8997 117.634 38.9578 117.482 38.9841C117.358 39.0066 117.231 39.0066 117.108 38.9841C116.989 38.9714 116.874 38.9382 116.767 38.8857C116.653 38.8314 116.546 38.7654 116.445 38.689C116.341 38.6103 116.236 38.5251 116.131 38.4333L115.763 38.1382L114.452 39.5939C114.636 39.6494 114.825 39.6846 115.016 39.6989C115.236 39.7106 115.456 39.6952 115.672 39.653L115.796 40.3087C115.492 40.3736 115.18 40.3869 114.872 40.348C114.586 40.3109 114.308 40.2243 114.052 40.0923L113.291 40.9513L113.127 40.1185L113.482 39.7251C113.29 39.5731 113.125 39.3889 112.996 39.1808C112.869 38.9794 112.778 38.7576 112.727 38.5251C112.689 38.295 112.689 38.0601 112.727 37.83C112.754 37.6276 112.823 37.4332 112.931 37.2595C113.033 37.0908 113.172 36.9474 113.337 36.8398C113.501 36.7036 113.691 36.6011 113.895 36.5382ZM113.298 38.3743C113.33 38.5517 113.397 38.7211 113.495 38.8726C113.596 39.0278 113.722 39.1652 113.868 39.2792L115.252 37.7185L115.141 37.6333C115.028 37.5394 114.907 37.456 114.78 37.3841C114.68 37.3318 114.574 37.2901 114.465 37.2595C114.38 37.2475 114.294 37.2475 114.209 37.2595C114.148 37.2523 114.087 37.2523 114.026 37.2595C113.905 37.2813 113.789 37.3258 113.685 37.3907C113.584 37.4474 113.496 37.5258 113.429 37.6202C113.356 37.7193 113.307 37.8337 113.285 37.9546C113.262 38.0941 113.267 38.2365 113.298 38.3743ZM116.97 37.1874C116.822 37.2181 116.681 37.2783 116.557 37.3644C116.405 37.4674 116.266 37.5885 116.144 37.7251L116.583 38.0923C116.641 38.1581 116.71 38.2135 116.786 38.2562C116.847 38.2936 116.914 38.3203 116.983 38.3349C117.046 38.3442 117.11 38.3442 117.173 38.3349C117.232 38.3417 117.292 38.3417 117.35 38.3349C117.427 38.3227 117.5 38.296 117.567 38.2562C117.632 38.2192 117.69 38.1703 117.737 38.112C117.781 38.0552 117.815 37.9907 117.836 37.9218C117.852 37.844 117.852 37.7636 117.836 37.6858C117.82 37.5876 117.779 37.4951 117.718 37.4169C117.665 37.3445 117.595 37.286 117.514 37.2464C117.436 37.2007 117.349 37.1738 117.259 37.1677C117.163 37.1499 117.066 37.1477 116.97 37.1612V37.1874Z" fill="white"/>
<path d="M112.511 49.0102C112.647 49.0786 112.8 49.106 112.951 49.0888C113.093 49.0683 113.23 49.0168 113.351 48.938C113.479 48.8576 113.597 48.763 113.705 48.6561L114.019 48.3348C114.164 48.178 114.318 48.0291 114.478 47.8889C114.642 47.7446 114.822 47.6212 115.016 47.5216C115.2 47.4252 115.4 47.3651 115.606 47.3446C115.832 47.323 116.058 47.3638 116.262 47.4626C116.468 47.5556 116.646 47.7001 116.78 47.8823C116.908 48.0536 116.997 48.2504 117.042 48.4593C117.082 48.6761 117.082 48.8983 117.042 49.1151C116.987 49.578 116.78 50.0095 116.452 50.3413C116.289 50.5069 116.098 50.6423 115.888 50.7413C115.684 50.8403 115.46 50.894 115.233 50.8987C114.991 50.904 114.751 50.8547 114.531 50.7544L114.839 50.0987C114.985 50.1491 115.137 50.1757 115.292 50.1774C115.43 50.1807 115.569 50.1561 115.698 50.1052C115.829 50.0573 115.948 49.9812 116.046 49.8823C116.156 49.7752 116.245 49.6484 116.308 49.5085C116.366 49.386 116.406 49.2557 116.426 49.1216C116.449 48.9937 116.449 48.8627 116.426 48.7348C116.399 48.6108 116.346 48.4943 116.269 48.3938C116.187 48.2862 116.079 48.2024 115.954 48.1511C115.825 48.0833 115.677 48.0603 115.534 48.0856C115.396 48.1127 115.265 48.1662 115.147 48.2429C115.025 48.3234 114.911 48.4156 114.806 48.5184C114.701 48.6233 114.603 48.7282 114.518 48.8266C114.433 48.9249 114.314 49.0364 114.203 49.1413C114.097 49.2463 113.983 49.3428 113.862 49.4298C113.743 49.5158 113.619 49.5925 113.488 49.6593C113.36 49.7246 113.223 49.771 113.082 49.797C112.943 49.8233 112.801 49.8233 112.662 49.797C112.507 49.7823 112.356 49.7401 112.216 49.6725C112.006 49.5806 111.825 49.4332 111.692 49.2462C111.571 49.0685 111.488 48.8675 111.449 48.6561C111.417 48.4387 111.417 48.2177 111.449 48.0003C111.486 47.7742 111.552 47.5538 111.646 47.3446C111.751 47.1211 111.89 46.9154 112.059 46.7348C112.223 46.5572 112.416 46.4087 112.629 46.2954C112.833 46.1872 113.056 46.1203 113.285 46.0987C113.535 46.0847 113.784 46.1296 114.013 46.2298L113.705 46.8856C113.551 46.8325 113.388 46.8102 113.226 46.82C113.078 46.8245 112.933 46.8603 112.8 46.9249C112.666 46.9882 112.545 47.0773 112.446 47.1872C112.332 47.3056 112.241 47.4433 112.177 47.5938C112.117 47.7188 112.072 47.851 112.046 47.9872C112.023 48.1174 112.023 48.2505 112.046 48.3807C112.066 48.5071 112.113 48.6278 112.183 48.7348C112.265 48.8549 112.379 48.9501 112.511 49.0102Z" fill="white"/>
<path d="M114.308 53.856L111.554 52.8003L113.121 55.3183L112.57 55.9741L108.196 52.5183L108.629 51.9806L110.373 53.3774L112.157 54.8856L110.459 52.1905L110.714 51.8757L113.593 52.9708L111.796 51.6003L110.065 50.1774L110.498 49.6396L114.859 53.1413L114.308 53.856Z" fill="white"/>
<path d="M106.4 56.0792L107.81 54.853L107.2 53.4563L107.738 52.9907L110.04 58.4006L109.587 58.7874L104.584 55.7251L105.115 55.2596L106.4 56.0792ZM108.073 55.4235L106.945 56.394L109.095 57.7514L108.073 55.4235Z" fill="white"/>
<path d="M103.606 57.1218L101.311 58.6234L100.983 58.1185L103.869 56.23L106.885 60.9119L106.288 61.3054L103.606 57.1218Z" fill="white"/>
<path d="M99.5341 59.5677L97.0948 60.8136L96.8193 60.2759L99.8882 58.7021L102.439 63.6792L101.783 64.0071L99.5341 59.5677Z" fill="white"/>
<path d="M93.8819 64.302L96.0459 63.4233L95.2983 61.5873L92.7803 62.6364L92.5508 62.0791L95.7311 60.7676L97.8426 65.9479L94.6885 67.2266L94.459 66.6627L96.9508 65.6528L96.295 63.9872L94.1311 64.8659L93.8819 64.302Z" fill="white"/>
<path d="M90.3282 65.2069L91.3904 64.8659L90.6888 62.6954L91.3446 62.479L93.0626 67.8036L91.5019 68.302C91.2643 68.3782 91.017 68.4202 90.7675 68.4265C90.5437 68.4326 90.3209 68.3948 90.1118 68.3151C89.9028 68.2358 89.7145 68.1102 89.5609 67.9479C89.3915 67.7592 89.266 67.5352 89.1937 67.2921C89.143 67.1285 89.1165 66.9584 89.115 66.7872C89.1199 66.6329 89.1487 66.4803 89.2003 66.3347C89.2489 66.1872 89.3197 66.0479 89.4101 65.9216C89.5052 65.7892 89.6152 65.6682 89.738 65.561L87.8691 63.6528V63.6069L88.5839 63.3774L90.3282 65.2069ZM91.5675 65.4233L90.6626 65.7118C90.5176 65.7617 90.3807 65.8324 90.256 65.9216C90.1416 66.0082 90.0439 66.1149 89.9675 66.2364C89.8947 66.3541 89.8478 66.486 89.8298 66.6233C89.8098 66.7756 89.8255 66.9305 89.8757 67.0757C89.9239 67.2313 90.0019 67.3761 90.1052 67.502C90.1996 67.607 90.316 67.6898 90.4462 67.7446C90.5795 67.7983 90.7222 67.825 90.8659 67.8233C91.0258 67.8208 91.1846 67.7966 91.338 67.7511L92.2298 67.4626L91.5675 65.4233Z" fill="white"/>
<path d="M82.3608 64.9775L83.41 70.4726L82.1378 70.7152C81.7868 70.7808 81.4266 70.7808 81.0755 70.7152C80.7653 70.6551 80.472 70.5275 80.2165 70.3415C79.9496 70.1525 79.7261 69.9088 79.5608 69.6267C79.385 69.3166 79.261 68.98 79.1936 68.63L79.1214 68.2234C79.0637 67.8717 79.0637 67.5129 79.1214 67.1611C79.1666 66.8451 79.2759 66.5416 79.4427 66.2693C79.611 66.0057 79.8348 65.7819 80.0985 65.6136C80.3967 65.4192 80.7314 65.2876 81.0821 65.2267L82.3608 64.9775ZM82.5903 70.0333L81.7641 65.6792L81.2001 65.7907C80.9341 65.8361 80.6813 65.9391 80.4591 66.0923C80.2694 66.2286 80.1126 66.4056 80.0001 66.6103C79.893 66.8142 79.8262 67.0369 79.8034 67.2661C79.7778 67.5332 79.7911 67.8027 79.8427 68.0661L79.9214 68.4792C79.9748 68.7403 80.0607 68.9936 80.1772 69.2333C80.2865 69.4455 80.4357 69.6347 80.6165 69.7907C80.7916 69.9416 81.001 70.0474 81.2264 70.0988C81.4897 70.1585 81.763 70.1585 82.0263 70.0988L82.5903 70.0333Z" fill="white"/>
<path d="M78.3803 71.384L75.0295 71.8299L74.9442 71.22L76.2557 71.043L75.6721 66.7217L74.3606 66.8987L74.2754 66.2889L77.6262 65.8364L77.7115 66.4463L76.4 66.6233L76.977 70.9446L78.2885 70.7676L78.3803 71.384Z" fill="white"/>
<path d="M69.3965 67.4624C69.5955 67.19 69.8532 66.9659 70.1506 66.8066C70.4553 66.6464 70.7906 66.5526 71.1342 66.5312C71.3542 66.5132 71.5756 66.5309 71.7899 66.5837C71.9824 66.6338 72.166 66.7135 72.3342 66.8198C72.4977 66.9254 72.6437 67.0559 72.767 67.2066C72.8977 67.359 73.0099 67.5263 73.1014 67.705C73.196 67.8889 73.2707 68.0823 73.3244 68.282C73.3833 68.4833 73.4228 68.6897 73.4424 68.8984L73.4948 69.5542C73.5131 69.7724 73.5131 69.9917 73.4948 70.2099C73.4806 70.4146 73.4432 70.617 73.3834 70.8132C73.3337 71.0058 73.2587 71.191 73.1604 71.364C73.0692 71.5323 72.9519 71.685 72.8129 71.8165C72.6686 71.9479 72.505 72.0563 72.3276 72.1378C72.1205 72.23 71.8983 72.2833 71.6719 72.2952C71.4273 72.3169 71.1808 72.2947 70.944 72.2296C70.725 72.173 70.5198 72.0727 70.3407 71.9345C70.1627 71.7965 70.0135 71.625 69.9014 71.4296C69.7798 71.2142 69.6977 70.9788 69.6588 70.7345L70.3604 70.682C70.3983 70.8331 70.4556 70.9785 70.5309 71.1148C70.5918 71.2411 70.679 71.3529 70.7866 71.4427C70.8928 71.5329 71.0152 71.6019 71.1473 71.646C71.3001 71.6924 71.4606 71.708 71.6194 71.6919C71.7724 71.6781 71.9214 71.6358 72.0588 71.5673C72.1809 71.5001 72.2898 71.4112 72.3801 71.305C72.4733 71.1988 72.5467 71.0766 72.5965 70.9443C72.6496 70.8082 72.6913 70.6678 72.7211 70.5247C72.7482 70.3795 72.7658 70.2328 72.7735 70.0853C72.7836 69.9412 72.7836 69.7966 72.7735 69.6525L72.7211 68.9968C72.7056 68.8512 72.6815 68.7067 72.6489 68.564C72.616 68.4181 72.5699 68.2754 72.5112 68.1378C72.4572 67.9988 72.3867 67.8667 72.3014 67.7443C72.2247 67.6231 72.127 67.5165 72.0129 67.4296C71.9053 67.3379 71.7804 67.2688 71.6457 67.2263C71.4978 67.1779 71.3416 67.16 71.1866 67.1738C71.0855 67.1786 70.9848 67.1896 70.885 67.2066C70.7815 67.2263 70.6803 67.2571 70.5834 67.2984C70.4878 67.3346 70.3974 67.3831 70.3145 67.4427C70.2304 67.5002 70.1607 67.5765 70.1112 67.6657L70.203 68.9181L71.3375 68.8263L71.3899 69.423L69.5801 69.5739L69.3965 67.4624Z" fill="white"/>
<path d="M68.4129 72.3806L65.0359 72.492V71.8756L66.3473 71.8297L66.2031 67.4691L64.8916 67.515V66.8986L68.2687 66.7871V67.4035L66.9572 67.4494L67.1014 71.8035L68.4129 71.7642V72.3806Z" fill="white"/>
<path d="M59.6719 71.8168H61.3965L61.4752 66.8267H62.1309L62.0588 71.8168H63.7834V72.4267L59.626 72.4726L59.6719 71.8168Z" fill="white"/>
<path d="M56.0001 68.0856L57.8624 68.2036L58.4066 66.7872L59.1148 66.8331L56.9575 72.3019L56.3607 72.2626L54.9443 66.5708L55.6525 66.6167L56.0001 68.0856ZM57.6329 68.8069L56.1509 68.7151L56.7279 71.1872L57.6329 68.8069Z" fill="white"/>
<path d="M53.1608 66.9837L50.4395 66.669L50.5116 66.0723L53.9345 66.4657L53.2788 72.0198L52.5706 71.9411L53.1608 66.9837Z" fill="white"/>
<path d="M41.508 65.8035C41.4614 65.9484 41.4614 66.1044 41.508 66.2494C41.5566 66.3853 41.635 66.5085 41.7375 66.61C41.8414 66.7198 41.9581 66.8166 42.0851 66.8986L42.4654 67.1346C42.6425 67.2395 42.8195 67.3576 43.0031 67.4887C43.1753 67.6185 43.3316 67.7682 43.4687 67.9346C43.6015 68.0962 43.7037 68.2806 43.7703 68.4789C43.8277 68.6943 43.8314 68.9205 43.7811 69.1377C43.7308 69.3549 43.6281 69.5565 43.4818 69.7248C43.3377 69.882 43.1638 70.009 42.9703 70.0985C42.7632 70.1908 42.541 70.2441 42.3146 70.2559C42.095 70.2762 41.8735 70.2607 41.6589 70.21C41.4254 70.1588 41.2031 70.0655 41.0031 69.9346C40.8046 69.8134 40.631 69.6553 40.4916 69.469C40.3514 69.2843 40.2525 69.0716 40.2016 68.8454C40.1507 68.6191 40.149 68.3846 40.1966 68.1576L40.9048 68.3215C40.8846 68.4716 40.8846 68.6238 40.9048 68.774C40.9291 68.9116 40.9803 69.0431 41.0556 69.1608C41.1351 69.2764 41.2351 69.3764 41.3507 69.4559C41.4811 69.5397 41.6255 69.5996 41.7769 69.633C41.9097 69.6495 42.0441 69.6495 42.1769 69.633C42.3056 69.6227 42.4318 69.5917 42.5507 69.5412C42.6667 69.4906 42.7699 69.4143 42.8523 69.3182C42.936 69.2127 42.9944 69.0893 43.0228 68.9576C43.0702 68.8195 43.0702 68.6694 43.0228 68.5313C42.9689 68.402 42.8911 68.2841 42.7933 68.1838C42.6859 68.0818 42.5696 67.9896 42.4457 67.9084L42.0851 67.692L41.7113 67.4559C41.5877 67.3692 41.4694 67.2751 41.3572 67.174C41.2484 67.0773 41.1476 66.972 41.0556 66.8592C40.9668 66.7486 40.8919 66.6275 40.8326 66.4986C40.7777 66.3667 40.7424 66.2275 40.7277 66.0854C40.7096 65.9317 40.7207 65.776 40.7605 65.6264C40.8035 65.4 40.9105 65.1907 41.0687 65.0231C41.2164 64.8676 41.3951 64.7447 41.5933 64.6625C41.8018 64.5776 42.0239 64.5309 42.249 64.5248C42.4689 64.5135 42.6894 64.5312 42.9048 64.5772C43.1348 64.6388 43.3554 64.7315 43.5605 64.8526C43.7679 64.9773 43.9539 65.1345 44.1113 65.3182C44.2599 65.5027 44.3712 65.7143 44.4392 65.9412C44.4986 66.1824 44.4986 66.4344 44.4392 66.6756L43.8228 66.5707C43.8373 66.4079 43.8239 66.2438 43.7834 66.0854C43.747 65.9429 43.6823 65.8091 43.5933 65.692C43.5011 65.5737 43.3877 65.4736 43.2589 65.3969C43.1182 65.3145 42.9656 65.2548 42.8064 65.2199C42.6712 65.1874 42.5321 65.1741 42.3933 65.1805C42.2602 65.1794 42.1284 65.2062 42.0064 65.2592C41.888 65.3064 41.7807 65.3779 41.6916 65.469C41.6037 65.5636 41.5406 65.6785 41.508 65.8035Z" fill="white"/>
<path d="M35.0487 67.6989L36.7077 68.1907L38.1176 63.4038L38.7733 63.6005L37.3766 68.3874L39.0356 68.8727L38.8651 69.4563L34.8848 68.2825L35.0487 67.6989Z" fill="white"/>
<path d="M30.3408 66.63L31.6523 63.0759C31.7435 62.8357 31.8767 62.6136 32.0457 62.4201C32.2021 62.2416 32.3914 62.0946 32.6031 61.9874C32.8092 61.8903 33.0316 61.8325 33.2589 61.8169C33.5263 61.8078 33.7919 61.8641 34.0326 61.9808C34.2773 62.0626 34.5011 62.1969 34.6884 62.3742C34.8599 62.5357 34.9942 62.7326 35.0818 62.9513C35.1689 63.1594 35.2178 63.3816 35.2261 63.607C35.2272 63.8599 35.1828 64.1109 35.0949 64.348L33.7834 67.8955L33.1277 67.6595L34.4392 64.1054C34.4969 63.952 34.5301 63.7904 34.5375 63.6267C34.5452 63.4714 34.5253 63.316 34.4785 63.1677C34.4305 63.0238 34.3523 62.8919 34.249 62.7808C34.1351 62.6591 33.9933 62.5668 33.8359 62.5119C33.6797 62.4505 33.5114 62.4258 33.3441 62.4398C33.1954 62.4568 33.0522 62.506 32.9244 62.5841C32.7922 62.6667 32.6747 62.7709 32.5769 62.8923C32.4785 63.0237 32.397 63.1669 32.3343 63.3185L31.0228 66.8595L30.3408 66.63Z" fill="white"/>
<path d="M31.2593 60.9513L28.8527 66.0201L27.6855 65.4693C27.361 65.3169 27.0676 65.1057 26.82 64.8464C26.604 64.6139 26.4427 64.3361 26.3478 64.0333C26.2508 63.7308 26.2195 63.4111 26.256 63.0955C26.2962 62.7391 26.3937 62.3915 26.5445 62.066L26.7216 61.6988C26.8707 61.375 27.0723 61.0781 27.3183 60.8201C27.5389 60.588 27.8074 60.4068 28.1052 60.289C28.398 60.1692 28.7141 60.1177 29.0298 60.1382C29.3865 60.1593 29.736 60.2483 30.0593 60.4005L31.2593 60.9513ZM28.479 65.1808L30.3609 61.1742L29.8363 60.9316C29.5963 60.81 29.3316 60.745 29.0626 60.7415C28.8356 60.743 28.6117 60.7945 28.4068 60.8923C28.1897 60.9969 27.9974 61.1467 27.8429 61.3316C27.6713 61.5309 27.5259 61.7512 27.4101 61.9874L27.2331 62.3677C27.1197 62.6092 27.0403 62.8651 26.997 63.1283C26.9474 63.3618 26.9474 63.6031 26.997 63.8365C27.0508 64.0624 27.1589 64.2717 27.3118 64.4464C27.4919 64.6529 27.7159 64.8164 27.9675 64.9251L28.479 65.1808Z" fill="white"/>
<path d="M24.1315 63.6985L21.2266 61.9805L21.5413 61.4493L22.6954 62.105L24.9184 58.3739L23.7708 57.7182L24.0856 57.187L26.9905 58.9182L26.6757 59.4427L25.5479 58.787L23.3184 62.5378L24.4462 63.1936L24.1315 63.6985Z" fill="white"/>
<path d="M18.6497 56.1972C18.7753 56.0378 18.9134 55.8886 19.0629 55.7513C19.2102 55.6099 19.3705 55.4826 19.5415 55.371C19.7067 55.2654 19.8826 55.1775 20.0661 55.1087C20.2459 55.0459 20.4334 55.0084 20.6235 54.9972C20.8164 54.9888 21.0093 55.0132 21.194 55.0694C21.3968 55.1346 21.5858 55.2369 21.7514 55.371C22.0824 55.6138 22.3152 55.9676 22.4071 56.3677C22.4336 56.557 22.4336 56.749 22.4071 56.9382C22.3874 57.1341 22.3478 57.3274 22.2891 57.5153C22.2246 57.7078 22.1434 57.8943 22.0465 58.0726C21.9526 58.2526 21.8429 58.4237 21.7186 58.5841L21.3317 59.089C21.2062 59.2485 21.068 59.3976 20.9186 59.5349C20.7728 59.6762 20.6123 59.8015 20.4399 59.9087C20.2739 60.0169 20.0956 60.1049 19.9088 60.171C19.7302 60.239 19.5422 60.2788 19.3514 60.289C19.1584 60.3007 18.9649 60.2762 18.7809 60.2169C18.5795 60.1514 18.3909 60.0516 18.2235 59.9218C18.0524 59.7913 17.9059 59.6315 17.7907 59.4497C17.688 59.2874 17.6168 59.1072 17.5809 58.9185C17.5512 58.7295 17.5512 58.5371 17.5809 58.3481C17.6006 58.1516 17.6424 57.9581 17.7055 57.771C17.7684 57.5779 17.8497 57.3913 17.9481 57.2136C18.0442 57.0335 18.1561 56.8624 18.2825 56.7021L18.6497 56.1972ZM18.8137 57.1349C18.7284 57.2464 18.6563 57.3579 18.5776 57.4825C18.5009 57.6065 18.4329 57.7358 18.3743 57.8694C18.3188 58.003 18.2749 58.1413 18.2432 58.2825C18.2214 58.4193 18.2214 58.5588 18.2432 58.6956C18.2571 58.8301 18.2949 58.9611 18.3547 59.0825C18.4286 59.2134 18.5291 59.3273 18.6497 59.4169C18.7664 59.512 18.9032 59.5793 19.0497 59.6136C19.1818 59.6398 19.3177 59.6398 19.4497 59.6136C19.5872 59.5918 19.7201 59.5475 19.8432 59.4825C19.9735 59.4194 20.0966 59.3425 20.2104 59.253C20.3257 59.1638 20.4352 59.0675 20.5383 58.9644L20.7874 58.7022L21.1809 58.1907C21.2641 58.0794 21.3408 57.9634 21.4104 57.8431C21.5005 57.6996 21.5773 57.5482 21.6399 57.3907C21.6925 57.256 21.7363 57.118 21.7711 56.9776C21.7929 56.8407 21.7929 56.7013 21.7711 56.5644C21.7571 56.4299 21.7194 56.2989 21.6596 56.1776C21.5859 56.0447 21.4854 55.9285 21.3645 55.8366C21.2463 55.7439 21.11 55.677 20.9645 55.6399C20.8324 55.6137 20.6965 55.6137 20.5645 55.6399C20.427 55.6616 20.2941 55.7059 20.1711 55.771C20.0447 55.8374 19.9241 55.9142 19.8104 56.0005C19.6936 56.0902 19.584 56.1889 19.4825 56.2956L19.2071 56.6169L18.8137 57.1349Z" fill="white"/>
<path d="M16.3931 52.4136C16.2783 52.5141 16.1961 52.6465 16.157 52.7939C16.1305 52.9347 16.1305 53.0793 16.157 53.2201C16.1856 53.3685 16.2295 53.5136 16.2881 53.6529C16.3472 53.7972 16.4127 53.9349 16.4717 54.0595C16.5308 54.1841 16.6422 54.4464 16.7144 54.6562C16.7867 54.8684 16.833 55.0886 16.8521 55.3119C16.8719 55.5193 16.8519 55.7285 16.7931 55.9283C16.7262 56.1367 16.6065 56.3243 16.4455 56.4726C16.2819 56.6281 16.0809 56.7388 15.8619 56.7939C15.6457 56.8392 15.4224 56.8392 15.2062 56.7939C14.9897 56.7546 14.7813 56.6792 14.5898 56.5709C14.3959 56.4593 14.2192 56.3202 14.0652 56.1578C13.9028 55.9827 13.7719 55.7808 13.6783 55.5611C13.5853 55.3539 13.5298 55.1319 13.5144 54.9054C13.5081 54.6822 13.5437 54.4598 13.6193 54.2496C13.7031 54.0233 13.8377 53.8192 14.0127 53.6529L14.5111 54.1841C14.4121 54.3019 14.3324 54.4347 14.275 54.5775C14.2161 54.7027 14.1848 54.8391 14.1832 54.9775C14.1807 55.117 14.2075 55.2555 14.2619 55.3841C14.3195 55.5277 14.4041 55.6591 14.5111 55.7709C14.6026 55.8697 14.7088 55.9537 14.8258 56.0201C14.9371 56.0868 15.0592 56.1334 15.1865 56.1578C15.3097 56.184 15.4371 56.184 15.5603 56.1578C15.6923 56.1225 15.8123 56.0523 15.9078 55.9545C16.0188 55.8597 16.095 55.7304 16.1242 55.5873C16.1504 55.4509 16.1504 55.3107 16.1242 55.1742C16.0955 55.0301 16.0516 54.8894 15.9931 54.7546L15.8226 54.3677C15.7557 54.2357 15.6966 54.1 15.6455 53.9611C15.5877 53.8225 15.5395 53.6801 15.5013 53.5349C15.4676 53.3924 15.4435 53.2478 15.4291 53.1021C15.4128 52.9605 15.4128 52.8175 15.4291 52.6759C15.4562 52.5368 15.5025 52.4021 15.5668 52.2759C15.6409 52.1395 15.7386 52.0174 15.8554 51.9152C16.0179 51.7534 16.2222 51.6399 16.4455 51.5873C16.6614 51.5386 16.8854 51.5386 17.1013 51.5873C17.3185 51.6342 17.5267 51.7161 17.7176 51.83C17.9105 51.9483 18.0869 52.0916 18.2422 52.2562C18.4123 52.438 18.5518 52.6462 18.6554 52.8726C18.7596 53.0911 18.824 53.3265 18.8455 53.5677C18.8707 53.8019 18.8461 54.0387 18.7734 54.2627C18.7002 54.5113 18.5648 54.737 18.3799 54.9185L17.8881 54.3873C17.9921 54.2632 18.0721 54.1209 18.1242 53.9677C18.1751 53.8277 18.1973 53.6789 18.1894 53.5302C18.1815 53.3815 18.1437 53.2359 18.0783 53.1021C18.0079 52.9552 17.915 52.8202 17.8029 52.7021C17.7083 52.6004 17.6002 52.5121 17.4816 52.4398C17.3712 52.3672 17.2492 52.314 17.1209 52.2824C16.9955 52.2563 16.866 52.2563 16.7406 52.2824C16.6167 52.3007 16.4981 52.3454 16.3931 52.4136Z" fill="white"/>
<path d="M10.99 43.4099C11.1864 43.3634 11.3857 43.3305 11.5867 43.3116C11.7896 43.2952 11.9936 43.2952 12.1965 43.3116C12.3925 43.3306 12.5859 43.3702 12.7736 43.4296C12.9547 43.4868 13.1252 43.5732 13.2785 43.6854C13.4389 43.7934 13.577 43.9315 13.6851 44.0919C13.8038 44.2676 13.8904 44.463 13.9408 44.669C14.0029 44.8816 14.0208 45.1048 13.9932 45.3247C13.9751 45.5164 13.9217 45.7031 13.8359 45.8755C13.7525 46.0474 13.6418 46.2047 13.508 46.3411C13.3742 46.4887 13.2222 46.6187 13.0555 46.728C12.8888 46.842 12.7108 46.9387 12.5244 47.0165C12.3401 47.0997 12.1493 47.1677 11.9539 47.2198L11.3375 47.3772C11.1389 47.4237 10.9373 47.4566 10.7342 47.4755C10.5336 47.4952 10.3316 47.4952 10.131 47.4755C9.93266 47.4618 9.73672 47.4244 9.54735 47.364C9.36585 47.3028 9.19372 47.2168 9.03587 47.1083C8.87691 46.9984 8.73917 46.8607 8.62931 46.7017C8.51174 46.5254 8.42524 46.3302 8.37358 46.1247C8.31941 45.9106 8.30167 45.6889 8.32112 45.469C8.34556 45.2785 8.39862 45.0928 8.47849 44.9181C8.56576 44.7486 8.6761 44.5919 8.80636 44.4526C8.94497 44.3119 9.09645 44.1846 9.25882 44.0722C9.4287 43.9596 9.60871 43.863 9.79653 43.7837C9.98306 43.7005 10.176 43.6325 10.3736 43.5804L10.99 43.4099ZM10.5375 44.2755C10.4064 44.3149 10.2752 44.3542 10.1375 44.4067C10.0022 44.4585 9.87069 44.5198 9.74407 44.5903C9.6165 44.6597 9.49575 44.7409 9.38341 44.8329C9.27634 44.9209 9.18345 45.0248 9.108 45.1411C9.03605 45.2551 8.98705 45.3821 8.96374 45.5149C8.93179 45.6618 8.93179 45.8138 8.96374 45.9608C8.99887 46.1058 9.06361 46.242 9.1539 46.3608C9.24319 46.4636 9.3497 46.5502 9.46866 46.6165C9.58901 46.6837 9.71979 46.7303 9.85554 46.7542C9.99751 46.7864 10.1428 46.8018 10.2883 46.8001C10.4324 46.8099 10.577 46.8099 10.7211 46.8001C10.8579 46.7841 10.9937 46.7601 11.1277 46.728L11.7834 46.5706C11.908 46.5313 12.0391 46.4919 12.1769 46.4395C12.3144 46.3854 12.4481 46.3219 12.5769 46.2493C12.7013 46.1782 12.8197 46.0971 12.931 46.0067C13.0383 45.917 13.1332 45.8134 13.2129 45.6985C13.2839 45.5816 13.3328 45.4527 13.3572 45.3181C13.3893 45.1712 13.3893 45.0191 13.3572 44.8722C13.3185 44.7273 13.2517 44.5913 13.1605 44.4722C13.077 44.3644 12.9721 44.2751 12.8523 44.2099C12.7299 44.1487 12.5997 44.1046 12.4654 44.0788C12.3226 44.0527 12.1777 44.0395 12.0326 44.0394C11.8864 44.0264 11.7394 44.0264 11.5932 44.0394C11.4542 44.0581 11.3163 44.0844 11.1801 44.1181L10.5375 44.2755Z" fill="white"/>
<path d="M11.213 40.0067L11.1474 41.1214L13.4228 41.2919L13.3704 42.0001L7.79004 41.587L7.86873 39.9477C7.89292 39.6985 7.95026 39.4537 8.03922 39.2198C8.11765 39.0058 8.23804 38.8096 8.39332 38.6427C8.5459 38.4776 8.73435 38.3498 8.94414 38.269C9.1817 38.1856 9.4344 38.1543 9.68512 38.1772C9.85479 38.1868 10.0214 38.2268 10.1769 38.2952C10.32 38.3549 10.4528 38.4368 10.5704 38.5378C10.6864 38.6417 10.7879 38.7608 10.872 38.8919C10.9589 39.0297 11.0293 39.1771 11.0818 39.3313L13.554 38.328H13.5999L13.5474 39.0755L11.213 40.0067ZM10.5573 41.0821L10.6294 40.1313C10.6376 39.979 10.6221 39.8263 10.5835 39.6788C10.553 39.5386 10.4926 39.4066 10.4064 39.2919C10.3248 39.1789 10.2197 39.0849 10.0982 39.0165C9.96313 38.9422 9.81289 38.8996 9.65889 38.8919C9.49744 38.8783 9.33487 38.8961 9.1802 38.9444C9.04637 38.99 8.9251 39.0664 8.8261 39.1673C8.72536 39.2678 8.64713 39.3885 8.5966 39.5214C8.53803 39.673 8.50052 39.8318 8.48512 39.9936L8.41955 40.9247L10.5573 41.0821Z" fill="white"/>
<path d="M16.1111 30.5707L15.0029 32.0724L15.8947 33.2986L15.4684 33.8691L12.0586 29.0822L12.4127 28.6035L17.9602 30.5052L17.5406 31.0756L16.1111 30.5707ZM14.616 31.5478L15.5012 30.3543L13.1143 29.5019L14.616 31.5478Z" fill="white"/>
<path d="M20.669 27.023C20.6858 27.3644 20.6253 27.7051 20.492 28.0197C20.3475 28.334 20.1399 28.6153 19.8821 28.846C19.7235 28.991 19.5418 29.1084 19.3444 29.1935C19.1643 29.2751 18.9712 29.3239 18.7739 29.3378C18.5805 29.3668 18.3838 29.3668 18.1903 29.3378C17.9933 29.2972 17.8018 29.2334 17.6199 29.1476C17.4329 29.0604 17.255 28.955 17.0887 28.8329C16.9228 28.7053 16.7672 28.565 16.6231 28.4132L16.1838 27.882C16.0458 27.7271 15.9187 27.5628 15.8035 27.3902C15.6915 27.2164 15.597 27.0319 15.5215 26.8394C15.4441 26.6565 15.3891 26.465 15.3576 26.2689C15.3313 26.0797 15.3313 25.8877 15.3576 25.6984C15.3899 25.5064 15.4518 25.3206 15.5412 25.1476C15.7668 24.7388 16.1254 24.4195 16.5576 24.2427C16.7645 24.1527 16.9876 24.1058 17.2133 24.105C17.4385 24.1043 17.6615 24.1489 17.869 24.2361C18.0955 24.3303 18.3023 24.466 18.4789 24.6361L17.9674 25.1083C17.8416 25.0156 17.7077 24.9344 17.5674 24.8656C17.4367 24.8083 17.2968 24.775 17.1543 24.7673C17.0156 24.7602 16.8771 24.7826 16.7477 24.8329C16.5987 24.8875 16.4625 24.9723 16.3477 25.082C16.2325 25.1834 16.1407 25.3088 16.0789 25.4493C16.0209 25.5774 15.9875 25.7153 15.9805 25.8558C15.9759 25.9954 15.9936 26.1349 16.033 26.2689C16.0723 26.4101 16.1273 26.5465 16.1969 26.6755C16.2632 26.8082 16.3399 26.9353 16.4264 27.0558C16.5091 27.1747 16.5989 27.2886 16.6953 27.3968L17.1412 27.8755C17.2419 27.9826 17.3492 28.0833 17.4625 28.1771C17.5803 28.2699 17.7053 28.3532 17.8362 28.4263C17.9646 28.5022 18.101 28.5638 18.2428 28.6099C18.3778 28.6567 18.5196 28.681 18.6625 28.682C18.9634 28.69 19.2555 28.5793 19.4756 28.3738C19.5526 28.3091 19.6249 28.2389 19.692 28.164C19.7626 28.0859 19.8242 28.0001 19.8756 27.9083C19.9264 27.8187 19.9682 27.7242 20.0002 27.6263C20.02 27.5267 20.02 27.4242 20.0002 27.3247L19.1543 26.3935L18.3608 27.187L17.9543 26.7411L19.2658 25.5148L20.669 27.023Z" fill="white"/>
<path d="M23.0621 23.0824L21.1342 24.3938L22.249 26.0266L24.4982 24.4856L24.8391 24.984L22.0064 26.9512L18.8457 22.361L21.6391 20.4004L21.9801 20.9053L19.7637 22.4201L20.7801 23.9086L22.708 22.5971L23.0621 23.0824Z" fill="white"/>
<path d="M28.9576 22.7478L28.3018 23.0822L24.4199 20.4199L26.3871 24.1117L25.7313 24.4527L23.1084 19.515L23.7641 19.174L27.6461 21.8363L25.6789 18.1445L26.3346 17.8101L28.9576 22.7478Z" fill="white"/>
<path d="M32.7015 19.2857C32.7638 19.5231 32.7925 19.7681 32.7868 20.0135C32.7816 20.2394 32.7326 20.4621 32.6425 20.6693C32.5551 20.8772 32.4256 21.0647 32.2622 21.2201C32.0718 21.3966 31.8492 21.5347 31.6064 21.6267C31.4115 21.7141 31.203 21.7673 30.99 21.784C30.7979 21.7976 30.6048 21.7777 30.4195 21.725C30.2383 21.6784 30.0656 21.6031 29.9081 21.5021C29.7484 21.3965 29.601 21.2733 29.4687 21.1349C29.3299 20.9893 29.2048 20.8312 29.095 20.6627C28.986 20.4884 28.8895 20.3065 28.8064 20.1185L28.4982 19.3971C28.4242 19.2069 28.3629 19.0119 28.3146 18.8135C28.2675 18.6178 28.2389 18.418 28.2294 18.2168C28.2246 18.0234 28.2399 17.83 28.2753 17.6398C28.3109 17.456 28.375 17.279 28.4654 17.1152C28.5586 16.9484 28.6782 16.7978 28.8195 16.6693C29.1898 16.3612 29.65 16.1817 30.131 16.1578C30.3554 16.1518 30.5786 16.192 30.7868 16.2758C31 16.361 31.194 16.4881 31.3572 16.6496C31.5411 16.8228 31.6961 17.0242 31.8163 17.2463L31.1605 17.5217C31.0786 17.3811 30.9794 17.2511 30.8654 17.1349C30.7642 17.025 30.6443 16.934 30.5113 16.866C30.3789 16.8003 30.2329 16.7666 30.0851 16.7676C29.9202 16.7646 29.7568 16.7982 29.6064 16.866C29.4645 16.9232 29.3352 17.0079 29.2261 17.1152C29.1318 17.2145 29.0563 17.33 29.0031 17.4562C28.9547 17.5821 28.9259 17.7149 28.9179 17.8496C28.9015 17.9912 28.9015 18.1342 28.9179 18.2758C28.9391 18.4219 28.9697 18.5665 29.0097 18.7086C29.0556 18.8529 29.1015 18.984 29.154 19.1152L29.4622 19.8365C29.5176 19.9692 29.5811 20.0984 29.6523 20.2234C29.7255 20.3522 29.8088 20.475 29.9015 20.5906C29.9843 20.7071 30.0838 20.811 30.1966 20.8988C30.2978 20.9889 30.413 21.062 30.5376 21.1152C30.6642 21.1683 30.8003 21.1951 30.9376 21.1939C31.0912 21.1908 31.2428 21.1573 31.3835 21.0955C31.5369 21.0328 31.6771 20.9416 31.7966 20.8267C31.8951 20.7207 31.971 20.5958 32.0195 20.4594C32.0666 20.3203 32.0866 20.1734 32.0786 20.0267C32.0766 19.8645 32.0524 19.7035 32.0064 19.548L32.7015 19.2857Z" fill="white"/>
<path d="M32.5898 15.1676L35.7898 14.1118L35.9866 14.6954L34.7538 15.102L36.1439 19.2331L37.3767 18.8069L37.5734 19.3905L34.3669 20.4659L34.1702 19.8823L35.4095 19.4692L34.0194 15.3315L32.7866 15.7512L32.5898 15.1676Z" fill="white"/>
<path d="M41.1675 15.725L38.9118 16.3217L39.4167 18.2364L42.0397 17.5414L42.1905 18.125L38.8856 19.0036L37.4561 13.5938L40.7347 12.7217L40.8921 13.3118L38.2692 13.9676L38.7282 15.7053L40.9905 15.1086L41.1675 15.725Z" fill="white"/>
<path d="M46.0268 15.8757C46.0028 15.7243 45.9317 15.5843 45.8235 15.4757C45.7217 15.375 45.6015 15.2948 45.4694 15.2396C45.3292 15.1865 45.1843 15.147 45.0366 15.1216L44.5907 15.0626C44.3702 15.0406 44.1513 15.0056 43.935 14.9576C43.7309 14.92 43.5325 14.856 43.3448 14.7675C43.1562 14.676 42.987 14.5491 42.8464 14.3937C42.7022 14.2285 42.6068 14.0264 42.571 13.8101C42.5128 13.5954 42.5128 13.3691 42.571 13.1544C42.6338 12.9497 42.7413 12.7615 42.8858 12.6035C43.0303 12.4382 43.2036 12.3005 43.3973 12.197C43.6011 12.0837 43.8229 12.006 44.053 11.9675C44.289 11.9217 44.5317 11.9217 44.7677 11.9675C44.997 11.9983 45.2189 12.0694 45.4235 12.1773C45.6233 12.2884 45.7993 12.4377 45.9415 12.6167C46.0872 12.8107 46.188 13.0347 46.2366 13.2724L45.5218 13.4167C45.4741 13.272 45.4056 13.1351 45.3186 13.0101C45.1665 12.7829 44.9308 12.6249 44.6628 12.5707C44.5109 12.5448 44.3557 12.5448 44.2038 12.5707C44.0704 12.5959 43.942 12.6424 43.8235 12.7085C43.709 12.7705 43.605 12.8501 43.5153 12.9445C43.4337 13.04 43.3733 13.1518 43.3382 13.2724C43.3052 13.4037 43.3052 13.5411 43.3382 13.6724C43.3652 13.8171 43.4362 13.9499 43.5415 14.0527C43.6429 14.1458 43.7608 14.2192 43.8891 14.2691C44.0272 14.32 44.1699 14.3574 44.3153 14.3806L44.735 14.433C44.8792 14.433 45.03 14.433 45.1743 14.4921C45.3186 14.5511 45.4694 14.5576 45.6136 14.597C45.7534 14.643 45.8894 14.7 46.0202 14.7675C46.1449 14.8324 46.2615 14.9116 46.3677 15.0035C46.4732 15.1013 46.5638 15.2139 46.6366 15.338C46.7146 15.4723 46.77 15.6185 46.8005 15.7708C46.8433 15.9891 46.8297 16.2148 46.7612 16.4265C46.6895 16.6281 46.578 16.8132 46.4333 16.9708C46.2797 17.1309 46.1001 17.2639 45.9022 17.3642C45.6946 17.4677 45.474 17.5427 45.2464 17.5871C45.003 17.6232 44.7555 17.6232 44.512 17.5871C44.26 17.5631 44.0139 17.4966 43.7841 17.3904C43.5749 17.2849 43.3879 17.1402 43.2333 16.9642C43.0726 16.7753 42.9601 16.5503 42.9054 16.3085L43.6202 16.1642C43.6686 16.3197 43.7465 16.4644 43.8497 16.5904C43.9435 16.7036 44.0567 16.7991 44.1841 16.8724C44.3177 16.9401 44.4618 16.9845 44.6104 17.0035C44.7713 17.0261 44.9346 17.0261 45.0956 17.0035C45.2318 16.9767 45.364 16.9327 45.4891 16.8724C45.6071 16.8125 45.7155 16.7352 45.8104 16.6429C45.8955 16.5491 45.9623 16.4401 46.0071 16.3216C46.0602 16.1787 46.0671 16.0227 46.0268 15.8757Z" fill="white"/>
<path d="M53.7705 13.4034C53.7602 13.2896 53.7904 13.1758 53.8558 13.0821C53.8946 13.0361 53.9428 12.999 53.997 12.973C54.0513 12.947 54.1104 12.9327 54.1705 12.9312C54.2306 12.9221 54.292 12.9256 54.3507 12.9414C54.4093 12.9572 54.4641 12.985 54.5115 13.023C54.5913 13.1019 54.6403 13.2066 54.65 13.3183C54.6596 13.43 54.6291 13.5416 54.564 13.6329C54.5251 13.6788 54.477 13.716 54.4227 13.742C54.3685 13.768 54.3094 13.7822 54.2492 13.7837C54.1921 13.7952 54.1332 13.7941 54.0766 13.7804C54.02 13.7668 53.9671 13.741 53.9215 13.7047C53.8759 13.6685 53.8388 13.6228 53.8127 13.5707C53.7867 13.5187 53.7723 13.4616 53.7705 13.4034Z" fill="white"/>
</g>
<defs>
<clipPath id="clip0_1749_43509">
<rect width="127.213" height="80" fill="white" transform="translate(0 0.99707)"/>
</clipPath>
</defs>
</svg>
