<svg width="276" height="365" viewBox="0 0 276 365" fill="none" xmlns="http://www.w3.org/2000/svg">
<path d="M267.239 170.703L266.121 170.703L266.121 163.036L262.687 166.47L261.888 165.671L266.68 160.879L271.472 165.671L270.673 166.47L267.239 163.036L267.239 170.703Z" fill="#838383"/>
<path d="M271.68 154.155L264.799 154.155L271.68 149.425L271.68 147.968L261.969 147.968L261.969 149.536L268.85 149.536L261.969 154.266L261.969 155.723L271.68 155.723L271.68 154.155ZM271.68 145.505L271.68 138.999L270.265 138.999L270.265 143.91L267.449 143.91L267.449 139.998L266.076 139.998L266.076 143.91L263.384 143.91L263.384 139.166L261.969 139.166L261.969 145.505L271.68 145.505ZM271.68 134.969L271.68 133.097L264.536 131.141L271.68 129.157L271.68 127.298L261.969 124.509L261.969 126.146L269.655 128.227L261.969 130.336L261.969 131.848L269.655 134.012L261.955 136.079L261.969 137.73L271.68 134.969Z" fill="#838383"/>
<path d="M267.239 118.784L266.121 118.784L266.121 111.116L262.687 114.551L261.888 113.752L266.68 108.96L271.472 113.752L270.673 114.551L267.239 111.116L267.239 118.784Z" fill="#838383"/>
<path d="M271.68 102.236L264.799 102.236L271.68 97.5054L271.68 96.0487L261.969 96.0487L261.969 97.6163L268.85 97.6163L261.969 102.347L261.969 103.804L271.68 103.804L271.68 102.236ZM271.68 93.586L271.68 87.0797L270.265 87.0797L270.265 91.9906L267.449 91.9906L267.449 88.0785L266.076 88.0785L266.076 91.9906L263.384 91.9906L263.384 87.2462L261.969 87.2462L261.969 93.586L271.68 93.586ZM271.68 83.05L271.68 81.1772L264.536 79.2212L271.68 77.2374L271.68 75.3784L261.969 72.59L261.969 74.227L269.655 76.3079L261.969 78.4165L261.969 79.9287L269.655 82.0928L261.955 84.1598L261.969 85.8107L271.68 83.05Z" fill="#838383"/>
<path d="M267.239 66.8637L266.121 66.8637L266.121 59.1965L262.687 62.6308L261.888 61.8321L266.68 57.0401L271.472 61.8321L270.673 62.6308L267.239 59.1965L267.239 66.8637Z" fill="#838383"/>
<path d="M271.68 50.316L264.799 50.316L271.68 45.5854L271.68 44.1288L261.969 44.1288L261.969 45.6964L268.85 45.6964L261.969 50.427L261.969 51.8836L271.68 51.8836L271.68 50.316ZM271.68 41.6661L271.68 35.1598L270.265 35.1598L270.265 40.0707L267.449 40.0707L267.449 36.1586L266.076 36.1586L266.076 40.0707L263.384 40.0707L263.384 35.3263L261.969 35.3263L261.969 41.6661L271.68 41.6661ZM271.68 31.1301L271.68 29.2573L264.536 27.3012L271.68 25.3174L271.68 23.4585L261.969 20.6701L261.969 22.3071L269.655 24.388L261.969 26.4966L261.969 28.0087L269.655 30.1729L261.955 32.2399L261.969 33.8908L271.68 31.1301Z" fill="#838383"/>
<path d="M113.773 10.5434L113.773 9.42523L121.44 9.42523L118.005 5.99097L118.804 5.1923L123.596 9.9843L118.804 14.7763L118.005 13.9776L121.44 10.5434H113.773Z" fill="#838383"/>
<path d="M130.32 14.9844V8.10352L135.051 14.9844H136.507V5.27349L134.94 5.27349V12.1543L130.209 5.27349H128.753V14.9844H130.32ZM138.97 14.9844L145.476 14.9844V13.5694L140.566 13.5694V10.7532L144.478 10.7532V9.37981L140.566 9.37981V6.68851L145.31 6.68851V5.27349L138.97 5.27349V14.9844ZM149.506 14.9844H151.379L153.335 7.83994L155.319 14.9844L157.178 14.9844L159.966 5.27349H158.329L156.248 12.959L154.14 5.27349L152.627 5.27349L150.463 12.959L148.396 5.25962L146.745 5.27349L149.506 14.9844Z" fill="#838383"/>
<path d="M165.692 10.5434L165.692 9.42523L173.359 9.42523L169.925 5.99097L170.724 5.1923L175.516 9.9843L170.724 14.7763L169.925 13.9776L173.359 10.5434H165.692Z" fill="#838383"/>
<path d="M182.24 14.9844V8.10352L186.97 14.9844H188.427V5.27349L186.859 5.27349V12.1543L182.129 5.27349H180.672V14.9844H182.24ZM190.89 14.9844L197.396 14.9844V13.5694L192.485 13.5694V10.7532L196.397 10.7532V9.37981L192.485 9.37981V6.68851L197.229 6.68851V5.27349L190.89 5.27349V14.9844ZM201.426 14.9844H203.298L205.254 7.83994L207.238 14.9844L209.097 14.9844L211.886 5.27349H210.249L208.168 12.959L206.059 5.27349L204.547 5.27349L202.383 12.959L200.316 5.25962L198.665 5.27349L201.426 14.9844Z" fill="#838383"/>
<path d="M217.612 10.5434L217.612 9.42523L225.279 9.42523L221.845 5.99097L222.643 5.1923L227.435 9.9843L222.643 14.7763L221.845 13.9776L225.279 10.5434H217.612Z" fill="#838383"/>
<path d="M234.16 14.9844V8.10352L238.89 14.9844H240.347V5.27349L238.779 5.27349V12.1543L234.049 5.27349H232.592V14.9844H234.16ZM242.81 14.9844L249.316 14.9844V13.5694L244.405 13.5694V10.7532L248.317 10.7532V9.37981L244.405 9.37981V6.68851L249.149 6.68851V5.27349L242.81 5.27349V14.9844ZM253.345 14.9844H255.218L257.174 7.83994L259.158 14.9844L261.017 14.9844L263.806 5.27349H262.169L260.088 12.959L257.979 5.27349L256.467 5.27349L254.303 12.959L252.236 5.25962L250.585 5.27349L253.345 14.9844Z" fill="#838383"/>
</svg>
