<svg width="71" height="71" viewBox="0 0 71 71" fill="none" xmlns="http://www.w3.org/2000/svg">
<g clip-path="url(#clip0_1749_44285)">
<path d="M14.7635 44.5895C14.7635 48.6565 11.4766 51.9437 7.40959 51.9437C3.34257 51.9437 0.0556641 48.6565 0.0556641 44.5895C0.0556641 40.5227 3.34257 37.2358 7.40986 37.2358H14.7632V44.5898L14.7635 44.5895ZM18.4406 44.5895C18.4406 40.5227 21.7275 37.2358 25.7945 37.2358C29.8616 37.2358 33.1485 40.5227 33.1485 44.5898V62.9744C33.1485 67.0415 29.8616 70.3286 25.7943 70.3286C21.7278 70.3286 18.4406 67.0415 18.4406 62.9744V44.5895Z" fill="#E01E5A"/>
<path d="M25.7945 15.0631C21.7275 15.0631 18.4403 11.7762 18.4403 7.70915C18.4403 3.64213 21.7278 0.355225 25.7945 0.355225C29.8613 0.355225 33.1485 3.64213 33.1485 7.70915V15.0633H25.7943L25.7945 15.0631ZM25.7945 18.7958C29.8616 18.7958 33.1485 22.0827 33.1485 26.1498C33.1485 30.2168 29.8616 33.5037 25.7943 33.5037H7.3542C3.2869 33.5037 0 30.2168 0 26.1495C0 22.083 3.2869 18.7958 7.35392 18.7958H25.7945Z" fill="#36C5F0"/>
<path d="M55.2668 26.1498C55.2668 22.0827 58.5537 18.7956 62.6204 18.7956C66.6875 18.7956 69.9746 22.0827 69.9746 26.1498C69.9746 30.2168 66.6875 33.5037 62.6204 33.5037H55.2668V26.1498ZM51.5897 26.1498C51.5897 30.2168 48.3025 33.5037 44.2355 33.5037C40.1687 33.5037 36.8818 30.2168 36.8818 26.1495V7.70942C36.8818 3.64213 40.1687 0.355225 44.2355 0.355225C48.3022 0.355225 51.5894 3.64213 51.5894 7.70915V26.1495L51.5897 26.1498Z" fill="#2EB67D"/>
<path d="M44.2355 55.6208C48.3025 55.6208 51.5897 58.9077 51.5897 62.9744C51.5897 67.0415 48.3025 70.3286 44.2355 70.3286C40.1687 70.3286 36.8818 67.0415 36.8818 62.9744V55.6208H44.2355ZM44.2355 51.9437C40.1687 51.9437 36.8818 48.6565 36.8818 44.5895C36.8818 40.5227 40.1687 37.2358 44.2358 37.2358H62.6761C66.7431 37.2358 70.0303 40.5227 70.0303 44.5898C70.0303 48.6565 66.7431 51.9437 62.6761 51.9437H44.2355Z" fill="#ECB22E"/>
</g>
<defs>
<clipPath id="clip0_1749_44285">
<rect width="70.1967" height="70.1967" fill="white" transform="translate(0 0.355225)"/>
</clipPath>
</defs>
</svg>
