<svg width="120" height="36" fill="none" xmlns="http://www.w3.org/2000/svg"><path d="M12.48 17.208v.124H4.21v-.124l1.262-1.584V1.214h-.817L.124 4.505H0V0h16.688v4.506h-.123l-4.532-3.293h-.817v14.41l1.263 1.585ZM22.181 17.704c-2.014 0-3.648-.62-4.902-1.857-1.255-1.255-1.882-2.897-1.882-4.928 0-2.08.644-3.78 1.931-5.1 1.288-1.32 2.938-1.981 4.952-1.981 3.368 0 5.373 2.014 6.017 6.041h-8.468c.215 1.387.71 2.46 1.486 3.22.775.758 1.782 1.138 3.02 1.138 1.7 0 3.062-.644 4.086-1.931l.124.074c-.298 1.684-1.007 2.996-2.13 3.937-1.106.924-2.517 1.387-4.234 1.387Zm-2.476-9.36c0 .248.008.43.025.545h3.813c-.215-1.42-.495-2.427-.842-3.02-.33-.612-.8-.917-1.411-.917-.561 0-.966.264-1.213.792-.248.529-.372 1.395-.372 2.6ZM39.67 17.704c-.76 0-1.42-.198-1.982-.595-.544-.412-.858-.924-.94-1.535h-.174c-1.519 1.42-2.988 2.13-4.407 2.13-.908 0-1.643-.265-2.204-.793-.545-.528-.817-1.213-.817-2.055 0-1.04.462-1.948 1.386-2.723.925-.793 2.378-1.52 4.358-2.18l1.66-.569v-.916c0-.545-.19-.966-.57-1.263-.363-.313-.883-.47-1.56-.47-.743 0-1.494.19-2.253.57a5.905 5.905 0 0 0-1.932 1.51l-.074-.05c.38-1.601 1.106-2.823 2.179-3.664 1.09-.842 2.476-1.263 4.16-1.263 1.551 0 2.822.33 3.813.99.99.66 1.485 1.51 1.485 2.55v7.33l1.238.866v.124c-.313.594-.784 1.081-1.41 1.46a3.765 3.765 0 0 1-1.957.546Zm-5.844-4.532c0 .562.165 1.016.495 1.362.346.347.784.52 1.312.52.413 0 .718-.099.916-.297V10.4l-.297.124c-1.617.627-2.426 1.51-2.426 2.65ZM59.038 17.208v.124h-7.379v-.124l1.065-1.46v-7.33c0-.528-.132-.94-.396-1.238-.265-.297-.636-.445-1.115-.445-.544 0-1.073.181-1.584.545v8.591l1.064 1.337v.124h-7.378v-.124l1.065-1.361V6.735L43.14 5.274V5.15l5.844-1.312h.248l.222 2.451h.174c1.287-1.634 2.756-2.451 4.407-2.451.908 0 1.692.223 2.352.668a3.355 3.355 0 0 1 1.387 1.808h.173c1.304-1.65 2.773-2.476 4.407-2.476 1.156 0 2.105.355 2.848 1.065.743.693 1.114 1.568 1.114 2.624v8.32l1.065 1.361v.124h-7.379v-.124l1.065-1.46v-7.33c0-.528-.132-.94-.396-1.238-.264-.297-.636-.445-1.114-.445-.545 0-1.073.181-1.585.545v8.567l1.065 1.361ZM83.591 10.226c0 2.179-.685 3.97-2.055 5.373-1.353 1.403-3.095 2.105-5.224 2.105-.859 0-1.461-.083-1.808-.248v3.343l1.362 1.361v.124H68.19v-.123l1.065-1.362V6.71l-1.238-1.436V5.15l5.942-1.312h.248l.223 2.228h.148c1.205-1.485 2.51-2.228 3.912-2.228 1.47 0 2.683.602 3.64 1.807.974 1.205 1.461 2.732 1.461 4.581Zm-5.076 2.105c0-1.569-.33-2.88-.99-3.937-.66-1.057-1.478-1.585-2.451-1.585-.297 0-.487.025-.57.074v9.211c.248.297.677.446 1.288.446.858 0 1.526-.371 2.005-1.114.479-.76.718-1.791.718-3.095ZM94.903 17.704c-.76 0-1.42-.198-1.98-.595-.546-.412-.86-.924-.942-1.535h-.173c-1.519 1.42-2.988 2.13-4.407 2.13-.908 0-1.643-.265-2.204-.793-.545-.528-.817-1.213-.817-2.055 0-1.04.462-1.948 1.386-2.723.925-.793 2.377-1.52 4.358-2.18l1.66-.569v-.916c0-.545-.19-.966-.57-1.263-.364-.313-.883-.47-1.56-.47-.743 0-1.494.19-2.253.57a5.905 5.905 0 0 0-1.932 1.51l-.074-.05c.38-1.601 1.106-2.823 2.179-3.664 1.09-.842 2.476-1.263 4.16-1.263 1.551 0 2.822.33 3.813.99.99.66 1.485 1.51 1.485 2.55v7.33l1.238.866v.124c-.313.594-.784 1.081-1.411 1.46a3.765 3.765 0 0 1-1.956.546Zm-5.844-4.532c0 .562.166 1.016.496 1.362.346.347.784.52 1.312.52.413 0 .718-.099.916-.297V10.4l-.297.124c-1.618.627-2.427 1.51-2.427 2.65ZM104.615 17.704c-1.849 0-3.334-.595-4.457-1.783-1.122-1.189-1.684-2.765-1.684-4.73 0-2.178.669-3.944 2.006-5.298 1.354-1.37 3.112-2.055 5.274-2.055 1.502 0 2.674.198 3.516.594v4.086h-.149l-4.209-3.492a.867.867 0 0 0-.248-.024c-.511 0-.957.396-1.337 1.188-.379.792-.569 1.717-.569 2.773 0 1.552.421 2.823 1.263 3.813.858.99 1.956 1.486 3.293 1.486 1.155 0 1.997-.363 2.525-1.09l.124.075c-.247 1.42-.833 2.517-1.758 3.293-.924.776-2.121 1.164-3.59 1.164ZM115.214 17.704c-2.08 0-3.335-.834-3.764-2.501v-9.26h-1.486v-.124l6.24-4.829h.495v3.22h2.724l-.248 1.732h-2.476v7.478c0 .578.157.999.471 1.263.33.264.742.396 1.238.396.528 0 .99-.09 1.386-.272l.099.099c-.363.858-.974 1.543-1.832 2.055-.842.495-1.791.743-2.847.743ZM42.506 28.333l-2.873 7.485h-1.46l-2.97-7.68-.523-.779v-.06h4.43v.06l-.803.78 1.765 4.928 1.618-4.734-1.022-.974v-.06h2.446v.06l-.608.974ZM45.046 36c-.99 0-1.793-.304-2.41-.913-.616-.616-.924-1.424-.924-2.422 0-1.022.316-1.858.949-2.507s1.444-.973 2.434-.973c1.655 0 2.64.99 2.957 2.97H43.89c.105.68.349 1.208.73 1.581.382.374.877.56 1.485.56.836 0 1.505-.316 2.008-.949l.061.036c-.146.828-.495 1.473-1.047 1.936-.543.454-1.237.681-2.08.681Zm-1.217-4.6c0 .121.004.21.012.268h1.875c-.106-.698-.244-1.193-.414-1.485-.163-.3-.394-.45-.694-.45-.276 0-.474.13-.596.389-.122.26-.183.685-.183 1.278ZM51.318 30.876V35.1l.523.658v.06h-3.627v-.06l.523-.67V30.61l-.608-.718v-.061L51 29.185h.122l.11 1.205h.085c.657-.804 1.403-1.205 2.239-1.205.576 0 1.05.174 1.424.523.373.34.56.77.56 1.29v4.09l.523.669v.06h-3.627v-.06l.524-.718v-3.603c0-.26-.07-.462-.207-.608-.138-.146-.333-.22-.585-.22-.292 0-.576.09-.851.268ZM58.358 36c-1.023 0-1.64-.41-1.85-1.23v-4.55h-.73v-.062l3.066-2.373h.244v1.582h1.339l-.122.852h-1.217v3.676c0 .284.077.49.231.62.162.13.365.195.609.195.26 0 .486-.045.681-.134l.049.049a2.123 2.123 0 0 1-.9 1.01c-.415.243-.881.365-1.4.365Z" fill="#4C4B49"/><path d="M62.829 36c-.56 0-1.023-.17-1.388-.511a1.728 1.728 0 0 1-.547-1.302v-3.603l-.609-.706v-.06l3.067-.645h.122v4.576c0 .26.065.462.194.608.138.146.32.22.548.22.268 0 .54-.09.816-.269v-3.7l-.609-.717v-.061l3.067-.645h.122v5.586l.523.67v.06l-2.787.487-.231-1.193h-.086C64.374 35.598 63.64 36 62.83 36ZM68.29 35.757l.523-.67V30.61l-.609-.718v-.05l2.872-.656h.122l.11 1.387h.073c.462-.925.961-1.387 1.497-1.387.219 0 .377.06.474.182v2.47h-.06l-1.388-.936a.447.447 0 0 0-.11-.012c-.194 0-.328.077-.401.23v3.968l.67.67v.06h-3.774v-.06Z" fill="#4C4B49"/><path d="M76.544 36c-.99 0-1.793-.304-2.41-.913-.616-.616-.925-1.424-.925-2.422 0-1.022.317-1.858.95-2.507.632-.649 1.444-.973 2.434-.973 1.655 0 2.64.99 2.957 2.97h-4.162c.105.68.349 1.208.73 1.581.381.374.876.56 1.485.56.836 0 1.505-.316 2.008-.949l.06.036c-.145.828-.494 1.473-1.046 1.936-.543.454-1.237.681-2.08.681Zm-1.217-4.6c0 .121.004.21.012.268h1.874c-.105-.698-.243-1.193-.413-1.485-.163-.3-.394-.45-.694-.45-.276 0-.475.13-.596.389-.122.26-.183.685-.183 1.278ZM82.134 36c-.333 0-.739-.04-1.217-.122-.479-.08-.836-.166-1.071-.255v-1.801h.06l2.057 1.63c.065.033.15.05.256.05.235 0 .418-.082.548-.244.138-.163.207-.382.207-.658 0-.243-.11-.446-.33-.608a2.766 2.766 0 0 0-.766-.426 28.23 28.23 0 0 1-.913-.39c-.3-.145-.56-.36-.779-.644-.21-.284-.316-.63-.316-1.035 0-.698.26-1.258.779-1.68.52-.421 1.213-.632 2.081-.632.349 0 .738.036 1.168.11.43.064.747.141.95.23v1.546h-.061l-1.643-1.339c-.057-.032-.154-.048-.292-.048a.718.718 0 0 0-.548.219c-.13.138-.195.324-.195.56 0 .243.106.45.317.62.219.163.478.305.779.426.308.114.612.244.913.39.3.138.555.349.766.633.22.284.329.628.329 1.034 0 .779-.268 1.38-.803 1.801-.528.422-1.286.633-2.276.633Z" fill="#4C4B49"/></svg>