<svg width="25" height="24" viewBox="0 0 25 24" fill="none" xmlns="http://www.w3.org/2000/svg">
<path d="M17.6531 8.75354C19.1476 9.82133 20.9784 10.4496 22.9558 10.4496V6.64653C22.5816 6.64661 22.2083 6.60756 21.8422 6.53003V9.5236C19.865 9.5236 18.0343 8.89541 16.5395 7.8277V15.5888C16.5395 19.4713 13.3905 22.6184 9.50624 22.6184C8.05694 22.6184 6.70982 22.1805 5.59082 21.4294C6.86801 22.7347 8.64913 23.5443 10.6196 23.5443C14.5041 23.5443 17.6532 20.3972 17.6532 16.5145V8.75354H17.6531ZM19.0269 4.9167C18.2631 4.08271 17.7616 3.00492 17.6531 1.81335V1.32422H16.5977C16.8634 2.83865 17.7696 4.13248 19.0269 4.9167ZM8.04758 18.4501C7.62085 17.891 7.39019 17.2068 7.39122 16.5034C7.39122 14.7277 8.83156 13.2879 10.6086 13.2879C10.9397 13.2878 11.2689 13.3386 11.5845 13.4386V9.55048C11.2157 9.49999 10.8434 9.47847 10.4714 9.48639V12.5127C10.1556 12.4126 9.82623 12.3618 9.49496 12.3621C7.718 12.3621 6.27774 13.8017 6.27774 15.5776C6.27774 16.8334 6.99763 17.9205 8.04758 18.4501Z" fill="#FF004F"/>
<path d="M16.5401 7.82762C18.035 8.89533 19.8655 9.52352 21.8428 9.52352V6.52995C20.7391 6.29494 19.762 5.71852 19.0274 4.9167C17.77 4.1324 16.864 2.83857 16.5984 1.32422H13.8264V16.5144C13.8201 18.2852 12.3822 19.7191 10.609 19.7191C9.56422 19.7191 8.63589 19.2213 8.04803 18.4501C6.99824 17.9205 6.27827 16.8333 6.27827 15.5777C6.27827 13.802 7.71853 12.3622 9.49549 12.3622C9.83595 12.3622 10.1641 12.4152 10.4719 12.5128V9.48647C6.65586 9.56529 3.58691 12.6817 3.58691 16.5144C3.58691 18.4277 4.35113 20.1622 5.59151 21.4296C6.71051 22.1805 8.05755 22.6186 9.50693 22.6186C13.3912 22.6186 16.5402 19.4712 16.5402 15.5888V7.8277L16.5401 7.82762Z" fill="black"/>
<path d="M21.8421 6.52993V5.72067C20.8468 5.72217 19.8712 5.44359 19.0267 4.91676C19.7742 5.73468 20.7585 6.29871 21.8421 6.53009V6.52993ZM16.5976 1.3242C16.5723 1.17951 16.5528 1.03384 16.5393 0.887565V0.398438H12.7119V15.5887C12.7058 17.3595 11.268 18.7933 9.49471 18.7933C8.992 18.7941 8.49616 18.6766 8.04725 18.4503C8.63511 19.2214 9.56344 19.7191 10.6083 19.7191C12.3814 19.7191 13.8194 18.2854 13.8256 16.5145V1.32428H16.5976V1.3242ZM10.4714 9.48646V8.62478C10.1515 8.58107 9.82911 8.5592 9.50631 8.55933C5.62162 8.55933 2.47266 11.7066 2.47266 15.5887C2.47266 18.0227 3.71024 20.1677 5.59089 21.4295C4.35051 20.1622 3.58629 18.4277 3.58629 16.5144C3.58629 12.6817 6.65516 9.56527 10.4714 9.48646Z" fill="#00F2EA"/>
</svg>
