<svg width="36" height="36" fill="none" xmlns="http://www.w3.org/2000/svg"><path stroke="#181818" stroke-width="1.2" d="M6.6 13.277h16.123V29.4H6.6z"/><mask id="a" fill="#fff"><path d="M9.339 9.339H26.66v17.323H9.34V9.339Z"/></mask><path d="M26.662 9.339h1.2v-1.2h-1.2v1.2Zm-17.323 1.2H26.66v-2.4H9.34v2.4Zm16.123-1.2v17.323h2.4V9.339h-2.4Z" fill="#181818" mask="url(#a)"/><mask id="b" fill="#fff"><path d="M12.677 6H30v17.323H12.677V6Z"/></mask><path d="M30 6h1.2V4.8H30V6ZM12.677 7.2H30V4.8H12.677v2.4ZM28.8 6v17.323h2.4V6h-2.4Z" fill="#181818" mask="url(#b)"/><path stroke="#181818" d="M.5.5h35v35H.5z"/></svg>