<svg width="27" height="26" viewBox="0 0 27 26" fill="none" xmlns="http://www.w3.org/2000/svg">
<path d="M19.915 0H6.10254C2.73705 0 0.00878906 2.72826 0.00878906 6.09375V19.9062C0.00878906 23.2717 2.73705 26 6.10254 26H19.915C23.2805 26 26.0088 23.2717 26.0088 19.9062V6.09375C26.0088 2.72826 23.2805 0 19.915 0Z" fill="#4353FF"/>
<path d="M17.1835 10.5052C17.1835 10.5052 15.7804 14.901 15.6767 15.2743C15.6353 14.908 14.6124 7.00781 14.6124 7.00781C12.2209 7.00781 10.9491 8.70807 10.2717 10.5052C10.2717 10.5052 8.56452 14.9149 8.42629 15.2812C8.41938 14.9356 8.16365 10.5467 8.16365 10.5467C8.01841 8.34173 6.00707 7.00781 4.37598 7.00781L6.33898 18.9721C8.84097 18.9652 10.1888 17.2718 10.8938 15.4679C10.8938 15.4679 12.3936 11.5765 12.4559 11.4037C12.4697 11.5696 13.5341 18.9721 13.5341 18.9721C16.0431 18.9721 17.3978 17.3893 18.1235 15.6544L21.6416 7.00781C19.1602 7.00781 17.8539 8.70116 17.1835 10.5052Z" fill="white"/>
</svg>
