<svg width="200" height="200" viewBox="0 0 200 200" fill="none" xmlns="http://www.w3.org/2000/svg">
<path d="M148.35 71.3333C148.35 71.3333 132.133 122.192 130.808 126.392C126.725 94.5172 122.602 62.6478 118.442 30.7833C90.8083 30.7833 76.0333 50.45 68.225 71.2083L46.85 126.517C46.725 122.55 43.85 71.8083 43.85 71.8083C42.15 46.375 18.85 30.8917 0 30.8917L22.825 169.225C51.775 169.1 67.3833 149.55 75.5583 128.792C75.5583 128.792 92.975 83.8083 93.6917 81.7667C93.8167 83.6833 106.192 169.217 106.192 169.217C135.258 169.217 150.875 150.867 159.275 130.833L200 30.9C171.292 30.9 156.158 50.45 148.35 71.325V71.3333Z" fill="white"/>
</svg>
