<svg width="236" height="50" viewBox="0 0 236 50" fill="none" xmlns="http://www.w3.org/2000/svg">
<path d="M0 0H235.6V50H0V0Z" fill="#4353FF"/>
<g clip-path="url(#clip0_2444_87420)">
<path d="M46.9984 22.3484C46.9984 20.6262 45.3237 18.7971 42.4259 18.7971C39.1716 18.7971 35.5968 21.1844 35.0504 25.9469C34.4922 30.757 37.4851 32.8949 40.5017 32.8949C43.5186 32.8949 45.0981 31.7191 46.7134 30.1514C45.3237 28.4054 43.5304 29.2131 43.186 29.3913C42.8059 29.5812 42.319 29.8426 41.3213 29.8426C40.1573 29.8426 38.9697 29.32 38.9697 27.1465C46.4284 26.4102 46.9984 24.0704 46.9984 22.3484ZM43.3047 22.6334C43.2572 23.1678 43.0435 24.0824 39.2667 24.5929C40.0624 21.7664 41.5825 21.5526 42.2834 21.5526C42.9366 21.5526 43.3521 22.0632 43.3047 22.6334ZM30.6677 23.0965C30.6677 23.0965 29.0646 28.1322 28.9338 28.5479C28.8863 28.1204 27.7105 19.0821 27.7105 19.0821C24.9788 19.0821 23.518 21.0299 22.7461 23.0847C22.7461 23.0847 20.7981 28.1322 20.632 28.5597C20.62 28.1678 20.335 23.1441 20.335 23.1441C20.1687 20.626 17.8647 19.0941 16 19.0941L18.2566 32.788C21.1189 32.7762 22.6628 30.8403 23.4706 28.7854C23.4706 28.7854 25.1926 24.3318 25.2638 24.1298C25.2758 24.3198 26.4991 32.788 26.4991 32.788C29.3733 32.788 30.9173 30.9708 31.7487 28.9874L35.7749 19.0941C32.9361 19.0941 31.4399 21.0299 30.6677 23.0965ZM57.5449 18.7733C55.7753 18.7733 54.4214 19.7354 53.2812 21.1488V21.1369L54.3027 12.9062C51.9511 12.9062 50.0389 14.9491 49.6707 17.9894L47.8891 32.6811C49.2432 32.6811 50.6802 32.2893 51.4521 31.2916C52.141 32.1822 53.1743 32.8949 54.7064 32.8949C58.6733 32.8949 61.393 28.2867 61.393 23.9635C61.3694 20.0204 59.4571 18.7733 57.5449 18.7733ZM57.1769 25.8402C56.7612 28.2511 55.4191 29.8902 54.1244 29.8902C52.8181 29.8902 52.2599 29.308 52.2599 29.308C52.5093 27.1939 52.6636 25.8994 53.1387 24.7831C53.6138 23.6667 54.742 21.8851 55.9178 21.8851C57.0698 21.8851 57.5926 23.4173 57.1769 25.8402ZM71.2983 19.0938H68.5309L68.5429 18.9513C68.7329 17.146 69.1604 16.1959 70.5737 16.0416C71.5358 15.9466 71.9633 15.4476 72.0702 14.9014C72.1534 14.4739 72.4146 12.9891 72.4146 12.9891C66.8564 12.9535 65.1106 15.3527 64.6593 19.0107L64.6472 19.0939H64.5878C63.6852 19.0939 62.6877 20.1153 62.5214 21.4098L62.4619 21.8849H64.3148L62.7589 34.7356L62.2838 37.0398C62.3432 37.0398 62.4145 37.0516 62.4737 37.0516C65.0749 36.9565 66.7375 34.9019 67.1057 31.9208L68.3172 21.8849H69.1842C70.0392 21.8849 71.0371 21.0299 71.2152 19.6045L71.2983 19.0938ZM85.693 18.8564C82.498 18.8564 79.4813 21.208 78.5549 24.9016C77.6286 28.5953 79.03 32.9659 83.7332 32.9659C88.4245 32.9659 91.1326 28.4172 91.1326 24.6284C91.1326 20.8634 88.579 18.8564 85.693 18.8564ZM86.9875 25.7211C86.8212 27.3957 86.0849 29.9374 84.0659 29.9374C82.0349 29.9374 82.3199 26.9682 82.5218 25.5548C82.7356 24.0466 83.5789 21.8967 85.3962 21.8967C87.0231 21.8967 87.1774 23.8326 86.9875 25.7211ZM106.917 23.0963C106.917 23.0963 105.313 28.132 105.183 28.5477C105.135 28.1202 103.959 19.0819 103.959 19.0819C101.228 19.0819 99.7669 21.0297 98.995 23.0845C98.995 23.0845 97.0471 28.132 96.8809 28.5595C96.8689 28.1676 96.5839 23.1439 96.5839 23.1439C96.4176 20.6258 94.1136 19.0939 92.2489 19.0939L94.4937 32.7878C97.3559 32.776 98.8999 30.8401 99.7075 28.7853C99.7075 28.7853 101.43 24.3316 101.489 24.1296C101.501 24.3196 102.724 32.7878 102.724 32.7878C105.599 32.7878 107.142 30.9706 107.974 28.9872L112 19.0941C109.173 19.0941 107.677 21.0297 106.917 23.0963ZM73.9112 12.9893L71.5832 31.7665L71.1083 34.0825C71.1676 34.0825 71.2388 34.0945 71.2983 34.0945C73.8042 34.0589 75.5858 31.8616 75.9182 29.0943L77.2604 18.322C77.6642 15.0321 75.7045 12.9895 73.9112 12.9895V12.9893Z" fill="white"/>
</g>
<path d="M123.235 31H132.48V28.908H125.885V24.7439H130.906V22.7516H125.885V18.8465H132.141V16.7545H123.235V31ZM134.671 31H137.082V24.8635C137.082 23.2098 138.178 22.373 139.533 22.373C140.967 22.373 141.605 23.0903 141.605 24.6642V31H144.015V24.4451C144.015 21.5761 142.541 20.3607 140.449 20.3607C138.736 20.3607 137.58 21.2174 137.082 22.2335V20.5799H134.671V31ZM150.339 31.1793C151.076 31.1793 151.594 31.0598 151.973 30.9203V29.0076C151.634 29.1471 151.276 29.2069 150.797 29.2069C150.04 29.2069 149.602 28.7885 149.602 27.872V22.3929H151.893V20.5799H149.602V18.2886H147.191V20.5799H145.797V22.3929H147.191V28.0911C147.191 30.0636 148.267 31.1793 150.339 31.1793ZM154.147 31H156.558V25.5807C156.558 23.3692 157.833 22.6918 159.945 22.6719V20.4205C158.192 20.4404 157.216 21.2174 156.558 22.5324V20.5799H154.147V31ZM166.454 31.1992C169.124 31.1992 170.897 30.0038 171.236 27.8122H168.905C168.726 28.8283 167.969 29.4061 166.514 29.4061C164.721 29.4061 163.725 28.2904 163.645 26.3179H171.276V25.6206C171.276 21.8948 168.945 20.3607 166.355 20.3607C163.386 20.3607 161.174 22.5125 161.174 25.7401V25.8995C161.174 29.1869 163.386 31.1992 166.454 31.1992ZM163.685 24.7041C163.924 23.0903 164.9 22.114 166.355 22.114C167.849 22.114 168.765 22.911 168.885 24.7041H163.685ZM173.429 34.5664H175.84V29.3663C176.398 30.3824 177.593 31.1992 179.247 31.1992C181.937 31.1992 183.869 29.167 183.869 25.8198V25.6604C183.869 22.2933 181.857 20.3607 179.247 20.3607C177.713 20.3607 176.418 21.2573 175.84 22.2535V20.5799H173.429V34.5664ZM178.649 29.2866C176.896 29.2866 175.76 28.1908 175.76 25.8597V25.7003C175.76 23.3891 176.956 22.2535 178.629 22.2535C180.203 22.2535 181.399 23.3891 181.399 25.7003V25.8597C181.399 28.0911 180.422 29.2866 178.649 29.2866ZM186.037 31H188.448V25.5807C188.448 23.3692 189.723 22.6918 191.835 22.6719V20.4205C190.082 20.4404 189.105 21.2174 188.448 22.5324V20.5799H186.037V31ZM194.016 31H196.427V20.5799H194.016V31ZM195.191 18.8664C195.988 18.8664 196.626 18.2687 196.626 17.4917C196.626 16.6947 195.988 16.097 195.191 16.097C194.394 16.097 193.757 16.6947 193.757 17.4917C193.757 18.2687 194.394 18.8664 195.191 18.8664ZM202.931 31.1992C205.601 31.1992 207.095 29.9839 207.095 27.872C207.095 25.6604 205.641 25.0627 203.19 24.6842C201.537 24.4052 201.039 24.1064 201.039 23.3493C201.039 22.6121 201.656 22.114 202.692 22.114C203.808 22.114 204.346 22.5523 204.545 23.5087H206.777C206.518 21.1577 204.824 20.3607 202.692 20.3607C200.74 20.3607 198.787 21.3967 198.787 23.4887C198.787 25.4413 199.803 26.2183 202.553 26.6566C204.087 26.9156 204.784 27.2344 204.784 28.0911C204.784 28.9678 204.207 29.426 202.911 29.426C201.497 29.426 200.959 28.8084 200.839 27.7524H198.568C198.668 29.964 200.242 31.1992 202.931 31.1992ZM213.793 31.1992C216.462 31.1992 218.236 30.0038 218.574 27.8122H216.243C216.064 28.8283 215.307 29.4061 213.852 29.4061C212.059 29.4061 211.063 28.2904 210.983 26.3179H218.614V25.6206C218.614 21.8948 216.283 20.3607 213.693 20.3607C210.724 20.3607 208.513 22.5125 208.513 25.7401V25.8995C208.513 29.1869 210.724 31.1992 213.793 31.1992ZM211.023 24.7041C211.262 23.0903 212.239 22.114 213.693 22.114C215.187 22.114 216.104 22.911 216.223 24.7041H211.023Z" fill="white"/>
<defs>
<clipPath id="clip0_2444_87420">
<rect width="96" height="24.1875" fill="white" transform="translate(16 12.9062)"/>
</clipPath>
</defs>
</svg>
