<svg width="16" height="16" viewBox="0 0 16 16" fill="none" xmlns="http://www.w3.org/2000/svg">
<path d="M11.868 5.70666C11.868 5.70666 10.5707 9.77533 10.4647 10.1113C10.138 7.56137 9.8082 5.01182 9.47533 2.46266C7.26467 2.46266 6.08267 4.036 5.458 5.69666L3.748 10.1213C3.738 9.804 3.508 5.74466 3.508 5.74466C3.372 3.70999 1.508 2.47133 0 2.47133L1.826 13.538C4.142 13.528 5.39067 11.964 6.04467 10.3033C6.04467 10.3033 7.438 6.70466 7.49533 6.54133C7.50533 6.69466 8.49533 13.5373 8.49533 13.5373C10.8207 13.5373 12.07 12.0693 12.742 10.4667L16 2.472C13.7033 2.472 12.4927 4.03599 11.868 5.706V5.70666Z" fill="#BEBEBE"/>
</svg>
