<svg width="37" height="37" viewBox="0 0 37 37" fill="none" xmlns="http://www.w3.org/2000/svg">
<path d="M18.8532 10.2857C19.9956 9.23448 21.4864 8.67297 23.0191 8.71655C24.5518 8.76014 26.01 9.4055 27.0941 10.52C28.1773 11.6333 28.8052 13.1303 28.8491 14.7042C28.893 16.2781 28.3495 17.8096 27.3301 18.9848L18.8512 27.7126L10.3743 18.9848C9.35373 17.809 8.80975 16.2761 8.85407 14.701C8.8984 13.1258 9.52767 11.6279 10.6127 10.5147C11.6977 9.4015 13.1562 8.75749 14.6886 8.7149C16.2211 8.67231 17.7113 9.23437 18.8532 10.2857Z" fill="#FDD33C"/>
<rect x="1.44755" y="0.808636" width="34.808" height="34.808" stroke="#F8F8F8" stroke-width="1.19198"/>
</svg>
