<svg width="153" height="35" viewBox="0 0 153 35" fill="none" xmlns="http://www.w3.org/2000/svg">
<g clip-path="url(#clip0_1782_50589)">
<path d="M47.7796 5.4117C47.4993 4.37602 46.9526 3.43183 46.1939 2.67317C45.4352 1.91452 44.491 1.36787 43.4553 1.08766C39.6634 0.0537109 24.4041 0.0537109 24.4041 0.0537109C24.4041 0.0537109 9.14411 0.0850879 5.35288 1.11903C4.31723 1.39929 3.37307 1.94596 2.61441 2.70461C1.85576 3.46327 1.30909 4.40743 1.02883 5.44308C-0.11807 12.1802 -0.563025 22.4452 1.06021 28.9124C1.34046 29.9481 1.88714 30.8922 2.64579 31.6509C3.40444 32.4096 4.3486 32.9562 5.38425 33.2365C9.17578 34.2704 24.4354 34.2704 24.4354 34.2704C24.4354 34.2704 39.6951 34.2704 43.4866 33.2365C44.5223 32.9562 45.4664 32.4096 46.2251 31.6509C46.9837 30.8922 47.5304 29.9481 47.8107 28.9124C49.02 22.1661 49.393 11.9073 47.7793 5.412L47.7796 5.4117Z" fill="#FF0000"/>
<path d="M19.5469 24.4943L32.2058 17.1622L19.5469 9.8299V24.4943Z" fill="white"/>
<path d="M146.797 9.98675C148.458 9.98675 149.711 10.2999 150.589 10.8952C151.466 11.4908 152.093 12.4306 152.469 13.7155C152.845 15.0002 153.001 16.7546 153.001 19.0108V22.6771H144.948V23.8049L145.074 26.907C145.168 27.5964 145.325 28.0978 145.575 28.411C145.826 28.7245 146.233 28.8811 146.766 28.8811C147.487 28.8811 147.988 28.5993 148.239 28.0354C148.521 27.4712 148.646 26.5311 148.677 25.2464L152.845 25.4971C152.876 25.6851 152.876 25.9358 152.876 26.249C152.876 28.223 152.343 29.696 151.247 30.6672C150.15 31.6383 148.646 32.1398 146.672 32.1398C144.29 32.1398 142.63 31.3879 141.69 29.9153C140.75 28.4424 140.248 26.1235 140.248 23.0216V19.2301C140.355 13.9035 141.292 10.0023 146.797 9.98675ZM88.8605 10.3941V26.0924C88.8605 27.0325 88.9543 27.7219 89.1737 28.1292C89.6186 29.0003 90.7718 28.7777 91.3985 28.3485C91.7602 28.104 92.0518 27.7692 92.2444 27.3774V10.3938H97.0385V31.7949H93.2784L92.8711 29.1629H92.7772C91.7433 31.1369 90.2076 32.1395 88.1711 32.1395C85.0364 32.1317 84.2693 29.8732 84.0867 27.5794L84.0748 27.4177C84.0522 27.0703 84.039 26.7223 84.035 26.3742V10.3941H88.8602H88.8605ZM113.583 10.3941V26.0924C113.583 27.0325 113.677 27.7219 113.896 28.1292C114.342 29.0003 115.494 28.7777 116.121 28.3485C116.483 28.104 116.774 27.7692 116.967 27.3774V10.3938H121.761V31.7949H118.001L117.594 29.1629H117.5C116.466 31.1369 114.93 32.1395 112.894 32.1395C109.759 32.1317 108.992 29.8732 108.809 27.5794L108.797 27.4177C108.775 27.0703 108.762 26.7223 108.758 26.3742V10.3941H113.583ZM74.948 9.98675C76.5147 9.98675 77.7994 10.2999 78.7395 10.9579C79.6793 11.616 80.4001 12.6188 80.8388 13.9973C81.2774 15.3761 81.4968 17.2247 81.4968 19.5122V22.614C81.4968 24.9016 81.2774 26.719 80.8388 28.0975C80.4001 29.4766 79.7107 30.4792 78.7395 31.1372C77.7683 31.7639 76.452 32.1084 74.8228 32.1084C73.1305 32.1398 71.8145 31.7952 70.8433 31.1686C69.8721 30.5106 69.1824 29.5077 68.7754 28.1292C68.3678 26.7504 68.1798 24.9329 68.1798 22.6457V19.5433C68.1798 17.2557 68.3991 15.3758 68.8692 13.997C69.3393 12.5872 70.0597 11.5843 71.0626 10.9579C72.0652 10.331 73.3498 9.98645 74.948 9.98645V9.98675ZM129.282 1.40112V12.6813H129.313C129.752 11.8667 130.315 11.2087 131.099 10.7072C131.831 10.2153 132.693 9.95343 133.574 9.95538C134.734 9.95538 135.611 10.2685 136.269 10.8638C136.927 11.4908 137.397 12.4619 137.679 13.8094C137.952 15.1146 138.108 16.9199 138.117 19.1963L138.118 19.4184V22.8023C138.118 25.9669 137.71 28.3172 136.958 29.8212C136.175 31.3252 134.984 32.0773 133.355 32.0773C132.446 32.0773 131.631 31.858 130.88 31.4507C130.215 31.0631 129.663 30.5075 129.281 29.8394L129.219 29.727H129.125L128.623 31.7639H124.644V1.40142H129.282V1.40112ZM110.105 2.49782V6.38289H105.342V31.7949H100.642V6.38319H95.848V2.49812H110.105L110.105 2.49782ZM58.4347 2.49782L58.4377 2.50978C58.4834 2.71328 59.117 5.52973 59.8138 8.81116L59.8688 9.07114L59.9519 9.4641L60.0075 9.72797L60.0352 9.86035L60.0908 10.1257L60.1186 10.2587L60.1739 10.5249L60.2546 10.9143C60.7252 13.1866 61.1744 15.4655 61.443 17.0995H61.5685C61.8258 15.6337 62.1997 13.758 62.5983 11.8428L62.7029 11.3425C62.7555 11.0921 62.8081 10.8417 62.8613 10.5919L62.9431 10.2043C63.4845 7.6663 64.042 5.13179 64.6157 2.60092L64.6247 2.56058L64.639 2.49782H69.4331L63.8868 22.2698V31.7639H59.1555V22.3009H59.1241L53.6406 2.49752L58.4347 2.49782ZM74.8538 13.3079C74.1958 13.3079 73.7571 13.6528 73.4753 14.3736C73.1932 15.094 73.068 16.1907 73.068 17.7264V24.4004C73.068 25.9672 73.1932 27.1263 73.444 27.816C73.6947 28.5051 74.1647 28.85 74.8538 28.85C75.5119 28.85 75.9819 28.5051 76.264 27.816C76.5461 27.1263 76.6713 25.9672 76.6713 24.4004V17.7261C76.6713 16.1907 76.5458 15.0626 76.264 14.3733C75.9819 13.6528 75.5119 13.3079 74.8538 13.3079ZM130.127 13.9349C129.746 14.2875 129.474 14.7223 129.312 15.2659L129.282 15.3761V27.5336C129.67 28.1917 130.222 28.6303 131.193 28.6617C131.694 28.6617 132.101 28.4738 132.415 28.0978C132.728 27.7219 132.948 27.095 133.073 26.2176C133.193 25.3755 133.256 24.2155 133.261 22.738V19.7629C133.261 18.071 133.198 16.7863 133.104 15.8776C132.979 14.9688 132.822 14.3108 132.54 13.9349C131.995 13.1513 130.817 13.1609 130.127 13.9349ZM146.703 13.2141C146.171 13.2455 145.794 13.4021 145.575 13.6842C145.325 13.9973 145.168 14.4674 145.074 15.1568C144.982 15.8321 144.95 18.1929 144.948 18.2873V19.8257H148.458V18.469V18.495C148.456 18.9692 148.446 18.2198 148.424 17.2997L148.421 17.176C148.402 16.3673 148.373 15.4658 148.333 15.1568C148.239 14.436 148.082 13.9346 147.831 13.6528C147.581 13.3707 147.205 13.2141 146.703 13.2141H146.703Z" fill="white"/>
</g>
<defs>
<clipPath id="clip0_1782_50589">
<rect width="153" height="34.6641" fill="white" transform="translate(0 0.0537109)"/>
</clipPath>
</defs>
</svg>
