<svg width="35" height="24" viewBox="0 0 35 24" fill="none" xmlns="http://www.w3.org/2000/svg">
<g clip-path="url(#clip0_1709_53635)">
<path d="M34.0035 3.74333C33.8077 3.01981 33.4258 2.36019 32.8958 1.83017C32.3658 1.30015 31.7062 0.918215 30.9827 0.7224C28.3339 0 17.6734 0 17.6734 0C17.6734 0 7.01232 0.0218666 4.36352 0.744267C3.63998 0.940093 2.98037 1.32205 2.45037 1.85209C1.92037 2.38214 1.53848 3.04178 1.34272 3.76533C0.541516 8.47173 0.230716 15.6432 1.36472 20.1613C1.5605 20.8849 1.9424 21.5445 2.4724 22.0745C3.0024 22.6045 3.662 22.9865 4.38552 23.1823C7.03432 23.9047 17.6951 23.9047 17.6951 23.9047C17.6951 23.9047 28.3558 23.9047 31.0045 23.1823C31.728 22.9865 32.3876 22.6045 32.9176 22.0745C33.4477 21.5445 33.8296 20.8849 34.0254 20.1613C34.8704 15.4483 35.1309 8.2812 34.0035 3.74333Z" fill="#FF0000"/>
<path d="M14.2803 17.0749L23.124 11.9525L14.2803 6.83008V17.0749Z" fill="white"/>
</g>
<defs>
<clipPath id="clip0_1709_53635">
<rect width="34.1333" height="24" fill="white" transform="translate(0.625)"/>
</clipPath>
</defs>
</svg>
